SplineFontDB: 3.2
FontName: Kritzelei-02-Regular
FullName: Kritzelei-02 Regular
FamilyName: Kritzelei-02
Weight: Regular
Copyright: FONT_LICENSE
UComments: "FONT_COMMENT"
Version: 1.0
ItalicAngle: 0
UnderlinePosition: -204.8
UnderlineWidth: 102.4
Ascent: 1638
Descent: 410
InvalidEm: 0
LayerCount: 2
Layer: 0 0 "Back" 1
Layer: 1 0 "Fore" 0
XUID: [1021 736 393242381 5608654]
OS2Version: 0
OS2_WeightWidthSlopeOnly: 0
OS2_UseTypoMetrics: 1
CreationTime: 1640557551
ModificationTime: 1640557551
OS2TypoAscent: 0
OS2TypoAOffset: 1
OS2TypoDescent: 0
OS2TypoDOffset: 1
OS2TypoLinegap: 0
OS2WinAscent: 0
OS2WinAOffset: 1
OS2WinDescent: 0
OS2WinDOffset: 1
HheadAscent: 0
HheadAOffset: 1
HheadDescent: 0
HheadDOffset: 1
OS2Vendor: 'PfEd'
Lookup: 4 0 0 "extra-ligatures" { "dlig"  } ['dlig' ('latn' <'dflt' > ) ]
Lookup: 4 0 1 "ligatures" { "liga"  } ['liga' ('latn' <'dflt' > ) ]
Lookup: 1 0 0 "+ACIA-ss02+ACIA Style Set 2 lookup" { "ss02"  } ['ss02' ('latn' <'dflt' > ) ]
Lookup: 1 1 0 "+ACIA-ss01+ACIA Style Set 1 lookup" { "ss01"  } ['ss01' ('latn' <'dflt' > ) ]
DEI: 91125
Encoding: UnicodeFull
UnicodeInterp: none
NameList: AGL For New Fonts
DisplaySize: -48
AntiAlias: 1
FitToEm: 0
Grid
-2048 775.89 m 1
 3686.4 775.89 l 1025
-2048 1502.8 m 1
 3686.4 1502.8 l 1025
EndSplineSet
BeginChars: 1114112 160

StartChar: A
Encoding: 65 65 10
Width: 1713
VWidth: -291
Flags: HW
LayerCount: 2
Fore
SplineSet
616 720 m 0
 606 720 603 697 611 668 c 0
 617 638 649 588 679 558 c 0
 707.400692044 529.599307956 722.148010375 516.952508658 731.527537518 516.952508658 c 0
 738.000346022 516.952508658 741.916810842 522.975389275 746 534 c 0
 747 537 748 541 748 545 c 0
 748 566 730 601 696 641 c 0
 661 686 626 720 616 720 c 0
1024 536 m 0
 1024 598 1021 758 984 758 c 0
 974 758 954 727 938 689 c 0
 922 651 909 592 909 555 c 0
 909 510 922 481 951 462 c 0
 973 444 1000 432 1008 432 c 0
 1018 432 1024 478 1024 536 c 0
133 775 m 0
 172 775 196 716 196 669 c 0
 196 656 194 641 192 624 c 0
 182 563 163 407 163 296 c 0
 163 202 179 165 232 115 c 0
 270 78 302 68 376 68 c 0
 443 68 490 79 528 108 c 0
 558 129 610 192 640 246 c 0
 670 302 698 356 698 369 c 0
 698 382 661 425 619 465 c 0
 531 545 487 608 487 755 c 0
 487 814 496 857 515 873 c 0
 526.206836234 880.704699911 543.791451057 886.447006409 560.537646758 886.447006409 c 0
 567.699994523 886.447006409 574.708972557 885.396581883 581 883 c 0
 602 877 658 826 706 772 c 0
 749 721 794 684 810 684 c 0
 826 684 847 728 863 768 c 0
 900 869 1000 1249 1016 1371 c 0
 1024 1446 1034 1563 1088 1563 c 0
 1118 1563 1153 1531 1153 1491 c 0
 1153 1472 1149 1446 1141 1409 c 0
 1119 1310 1106 1085 1106 895 c 0
 1106 805 1109 723 1115 665 c 0
 1125 579 1144 497 1155 481 c 0
 1160 475 1166 473 1176 473 c 0
 1203 473 1257 496 1378 558 c 0
 1488 616 1597 662 1616 662 c 0
 1633 662 1665 655 1665 645 c 0
 1665 633 1594 590 1507 544 c 0
 1416 498 1303 435 1258 406 c 2
 1173 353 l 1
 1187 243 l 2
 1190 214 1192 191 1192 173 c 0
 1192 137 1185 121 1168 107 c 0
 1161 101 1155 98 1148 98 c 0
 1126 98 1095 128 1013 217 c 0
 943 294 870 355 851 355 c 0
 825 355 796 316 754 238 c 0
 673 90 577 -24 366 -24 c 0
 271 -24 192 3 147 52 c 0
 83 123 48 283 48 430 c 0
 48 436 48 443 48 449 c 0
 48 529 55 630 63 670 c 0
 71 716 98 775 133 775 c 0
EndSplineSet
EndChar

StartChar: B
Encoding: 66 66 11
Width: 1108
VWidth: -137
Flags: HW
LayerCount: 2
Fore
SplineSet
550 1452 m 0
 480 1450 301 1409 301 1350 c 0
 301 1345 302 1339 305 1334 c 0
 312 1319 316 1169 316 971 c 0
 316 917 316 860 315 801 c 2
 306 301 l 1
 395 207 l 2
 444 154 505 102 536 85 c 0
 568 68 619 56 653 56 c 0
 760 56 844 172 893 255 c 0
 934 321 947 376 949 452 c 0
 949 528 937 575 906 617 c 0
 884 648 808 702 742 734 c 0
 674 768 606 806 587 823 c 0
 568 837 555 865 555 884 c 0
 555 903 604 966 665 1022 c 0
 726 1082 787 1152 799 1183 c 0
 807 1204 810 1225 810 1246 c 0
 810 1322 765 1389 718 1418 c 0
 682 1440 618 1452 550 1452 c 0
391 1535 m 0
 417 1544 457 1549 502 1549 c 0
 602 1549 727 1529 770 1508 c 0
 843 1469 918 1370 918 1265 c 0
 918 1224 910 1172 900 1146 c 0
 890 1120 841 1055 788 1001 c 0
 737 950 699 898 699 882 c 0
 699 869 759 830 815 801 c 0
 931 743 991 716 1032 609 c 0
 1049 573 1060 506 1060 464 c 0
 1060 422 1045 341 1026 287 c 0
 1004 222 957 153 886 82 c 0
 784 -20 774 -26 675 -26 c 0
 527 -26 498 11 408 82 c 0
 367 114 305 147 269 155 c 0
 208 167 200 177 176 284 c 0
 162 347 136 429 119 461 c 0
 105.227287724 487.656862469 97.7709160413 502.667971971 97.7709160413 512.610430945 c 0
 97.7709160413 525.046732379 109.436927893 529.5527777 135 539 c 0
 164 551 175 556 175 594 c 0
 175 616 171 647 165 697 c 0
 157 772 128 901 99 983 c 0
 70 1061 48 1167 48 1216 c 0
 48 1291 59 1312 124 1375 c 0
 199 1450 294 1508 391 1535 c 0
EndSplineSet
EndChar

StartChar: C
Encoding: 67 67 12
Width: 1957
VWidth: -341
Flags: HW
LayerCount: 2
Fore
SplineSet
1853 165 m 0
 1885 165 1909 146 1909 129 c 0
 1909 119 1871 104 1829 96 c 0
 1528 45 1056 -32 674 -32 c 0
 600 -32 538 -28 491 -20 c 0
 336 5 157 92 86 186 c 0
 65 220 48 274 48 312 c 0
 48 350 71 442 100 520 c 0
 216 835 565 1173 804 1358 c 0
 888 1427 1074 1517 1192 1555 c 0
 1247 1572 1363 1587 1447 1587 c 0
 1454 1587 1462 1587 1469 1587 c 0
 1632 1587 1732 1540 1732 1391 c 0
 1732 1246 1640 1166 1535 1114 c 0
 1452 1069 1268 1017 1135 1017 c 0
 1106.16256698 1017 1058.18909583 1026.84139104 1058.18909583 1042.07715745 c 0
 1058.18909583 1047.44637657 1064.14701749 1053.48553398 1079 1060 c 0
 1100 1073 1176 1095 1247 1112 c 0
 1367 1137 1583 1238 1583 1358 c 0
 1583 1459 1565 1488 1471 1488 c 0
 1448 1488 1421 1487 1388 1484 c 0
 1144 1461 922 1329 764 1186 c 0
 680 1112 592 1026 565 997 c 0
 458 898 336 723 252 570 c 0
 210 486 174 394 174 358 c 0
 174 238 258 175 357 125 c 0
 440 82 489 72 689 72 c 0
 903 72 1199 93 1453 125 c 0
 1631 148 1794 165 1853 165 c 0
EndSplineSet
EndChar

StartChar: D
Encoding: 68 68 13
Width: 1459
VWidth: -344
Flags: HW
LayerCount: 2
Fore
SplineSet
537 1493 m 0
 408 1493 269 1419 210 1345 c 0
 174 1299 159 1253 159 1166 c 0
 159 995 212 841 269 714 c 0
 294 655 324 606 334 606 c 0
 339 606 340 631 340 672 c 0
 340 781 328 1002 328 1158 c 0
 328 1234 332 1294 340 1318 c 0
 353 1352 378 1379 397 1379 c 0
 438 1379 461 1342 461 1297 c 0
 461 1281 459 1263 452 1246 c 0
 442 1219 438 1153 438 1067 c 0
 438 828 467 443 474 367 c 0
 489 232 490 232 581 205 c 0
 630 190 745 177 834 177 c 0
 852 177 867 176 881 176 c 0
 994 176 1009 187 1100 266 c 0
 1212 365 1297 485 1297 669 c 0
 1297 882 1130 1106 999 1239 c 0
 921 1317 805 1404 744 1436 c 0
 676 1470 590 1493 537 1493 c 0
359 1575 m 0
 407 1592 455 1600 503 1600 c 0
 600 1600 695 1569 780 1529 c 0
 945 1447 1175 1210 1272 1052 c 0
 1356 913 1403 828 1411 642 c 0
 1411 572 1394 492 1364 431 c 0
 1311 321 1128 144 1010 106 c 0
 975 94 913 89 846 89 c 0
 741 89 624 102 577 118 c 0
 563.052668078 122.358541226 552.735851309 125.028470752 545.117297758 125.028470752 c 0
 526.516458774 125.028470752 524 109.112988022 524 63 c 0
 524 11 499 -29 466 -29 c 0
 452 -29 437 -22 421 -6 c 0
 406 13 379 68 360 121 c 0
 337 189 299 241 233 289 c 0
 146 352 93 411 93 519 c 0
 93 542 104 560 123 560 c 0
 142 560 172 538 191 511 c 0
 212 484 227 465 227 475 c 0
 227 483 192 583 146 699 c 0
 72 895 48 1004 48 1208 c 0
 48 1276 56 1318 77 1360 c 0
 126 1464 247 1533 359 1575 c 0
EndSplineSet
EndChar

StartChar: E
Encoding: 69 69 14
Width: 1629
VWidth: -346
Flags: HW
LayerCount: 2
Fore
SplineSet
1014 817 m 0
 1054 817 1088 800 1098 777 c 0
 1100.62749329 770.102830105 1101.85266826 762.558436365 1101.85266826 755.075392244 c 0
 1101.85266826 739.77460924 1096.7303234 724.730323398 1088 716 c 0
 1073 701 941 679 792 664 c 0
 620 649 483 619 426 590 c 0
 374 563 327 542 319 542 c 0
 309 542 307 569 311 598 c 0
 315 636 350 670 405 697 c 0
 453 720 579 746 684 756 c 0
 789 766 888 783 909 796 c 0
 930 809 976 817 1014 817 c 0
1554 379 m 0
 1571 379 1581 345 1581 321 c 0
 1581 296 1562 258 1539 237 c 0
 1442 159 1064 42 915 4 c 0
 825 -17 661 -32 548 -32 c 0
 382 -32 326 -19 246 25 c 0
 191 54 126 109 99 147 c 0
 64 194 48 245 48 324 c 0
 48 329 48 335 48 340 c 0
 48 407 65 523 82 592 c 0
 99 661 166 850 233 1010 c 0
 300 1168 357 1314 357 1331 c 0
 357 1375 231 1382 231 1430 c 0
 231 1453 256 1470 288 1470 c 0
 385 1478 397 1455 445 1531 c 0
 468 1567 504 1594 527 1594 c 0
 550 1594 588 1571 615 1546 c 0
 646 1519 667 1507 759 1507 c 0
 869 1507 1253 1534 1366 1534 c 0
 1405 1534 1430 1533 1434 1529 c 0
 1447 1521 1455 1497 1455 1480 c 0
 1455 1459 1430 1436 1401 1432 c 0
 1369 1424 1182 1415 987 1407 c 0
 777 1399 615 1382 594 1367 c 0
 573 1352 542 1279 519 1210 c 0
 494 1136 450 1058 418 1031 c 0
 386 1004 332 918 296 842 c 0
 260 766 214 624 191 527 c 0
 173 447 165 401 165 364 c 0
 165 268 235 167 294 128 c 0
 344 96 414 82 550 82 c 0
 808 82 973 130 1170 195 c 0
 1252 220 1367 275 1428 315 c 0
 1484 352 1534 379 1554 379 c 0
EndSplineSet
EndChar

StartChar: F
Encoding: 70 70 15
Width: 1617
VWidth: -219
Flags: HW
LayerCount: 2
Fore
SplineSet
281 1048 m 0
 281 1120 273 1292 273 1366 c 0
 273 1473 283 1506 309 1549 c 0
 330.72211387 1587.01369927 344.61077664 1603.83100145 359.111385651 1603.83100145 c 0
 365.972394165 1603.83100145 372.970401461 1600.06604671 381 1593 c 0
 399 1579 412 1553 412 1535 c 0
 412 1518 429 1511 501 1511 c 0
 539 1511 592 1513 665 1517 c 0
 802 1526 1036 1544 1184 1562 c 0
 1332 1576 1477 1593 1511 1593 c 0
 1545 1593 1569 1582 1569 1562 c 0
 1569 1506 1416 1485 1348 1485 c 0
 1299 1485 1200 1474 1130 1463 c 0
 1060 1452 883 1435 737 1422 c 0
 591 1411 454 1389 431 1378 c 0
 395 1356 392 1332 392 1132 c 0
 392 952 398 907 421 907 c 0
 439 907 501 917 566 930 c 0
 719 957 930 1005 1078 1045 c 0
 1126 1058 1160 1065 1183 1065 c 0
 1209.45389068 1065 1224.86544081 1051.65717184 1224.86544081 1031.52532991 c 0
 1224.86544081 1021.97753624 1221.39898755 1010.9027191 1214 999 c 0
 1201 977 1139 948 1074 934 c 0
 901 894 779 871 595 828 c 0
 514 808 428 779 408 761 c 0
 376 736 370 695 370 556 c 0
 370 459 383 329 401 264 c 0
 419 199 433 111 433 68 c 0
 433 6 422 -27 381 -27 c 0
 301 -27 284 137 273 243 c 0
 257 387 195 595 145 694 c 0
 127 725 100 761 82 775 c 0
 62 793 48 822 48 844 c 0
 48 884 63 898 91 898 c 0
 108 898 131 893 158 885 c 0
 182.298423528 877.586921635 199.812435842 873.566048878 213.615520784 873.566048878 c 0
 233.328273224 873.566048878 245.472266799 881.766968294 259 900 c 0
 275 921 281 961 281 1048 c 0
EndSplineSet
EndChar

StartChar: G
Encoding: 71 71 16
Width: 1075
VWidth: 0
Flags: HW
LayerCount: 2
Fore
SplineSet
356 -149 m 0
 356 -189 415 -221 455 -221 c 0
 479 -221 501 -211 519 -192 c 0
 562 -145 591 -25 591 71 c 0
 591 137 587 158 574 158 c 0
 566 158 535 134 507 103 c 0
 479 71 435 18 411 -15 c 0
 379 -57 356 -101 356 -149 c 0
673 906 m 0
 673 884 633 812 615 812 c 0
 608 812 603 822 603 850 c 0
 603 887 596 895 576 895 c 0
 522 895 490 883 431 854 c 0
 390 833 322 782 270 730 c 0
 204 666 170 622 146 569 c 0
 121 514 106 455 106 394 c 0
 106 353.405149351 134.815619221 315.92550078 171.140900837 315.92550078 c 0
 175.977562857 315.92550078 180.947360389 316.589961039 186 318 c 0
 225 326 404 450 434 465 c 0
 448 472 478 478 500 478 c 0
 564 478 587 427 605 373 c 0
 613 346 627 315 637 315 c 0
 648 315 680 334 714 358 c 0
 750 384 833 436 899 473 c 0
 960 508 1012 534 1023 534 c 0
 1031 534 1023 516 1018 509 c 0
 1010 500 966 469 919 441 c 0
 872 414 805 369 769 342 c 0
 733 314 693 280 680 265 c 0
 661 244 656 215 649 84 c 0
 645 -15 635 -95 622 -135 c 0
 595 -208 551 -276 459 -276 c 0
 404 -276 370 -252 332 -224 c 0
 303 -201 295 -194 295 -165 c 0
 295 -95 307 -63 347 -5 c 0
 371 31 433 101 484 152 c 0
 557 225 574 242 574 268 c 0
 574 316 534 419 490 419 c 0
 475 419 413 385 353 345 c 0
 249 274 239 271 172 271 c 0
 105 271 99 273 72 312 c 0
 54 339 48 354 48 387 c 0
 48 607 183 743 310 844 c 0
 378 894 466 948 570 948 c 0
 631 948 673 943 673 906 c 0
EndSplineSet
EndChar

StartChar: H
Encoding: 72 72 17
Width: 1925
VWidth: -511
Flags: HW
LayerCount: 2
Fore
SplineSet
970 281 m 0
 1025 281 1026 320 1026 441 c 2
 1026 583 l 1
 956 581 l 1
 904 577 525 510 525 463 c 0
 525 449 571 414 630 391 c 0
 688 368 781 330 842 308 c 0
 889 293 940 281 970 281 c 0
440 377 m 0
 423 377 416 332 416 302 c 0
 416 243 444 103 500 103 c 0
 554 103 604 191 660 191 c 0
 682 191 698 178 698 164 c 0
 698 150 662 101 619 56 c 0
 561 -2 518 -27 477 -27 c 0
 367 -27 327 115 327 250 c 0
 327 344 316 395 293 418 c 0
 275 438 247 452 234 452 c 0
 220 452 171 464 126 477 c 0
 69.7681856035 489.905662321 47.5274160909 505.360653007 47.5274160909 528.8484339 c 0
 47.5274160909 530.840083999 47.6873320916 532.889491618 48 535 c 0
 55 566 83 572 198 572 c 2
 338 572 l 1
 376 758 l 1
 396 861 424 1082 437 1249 c 0
 450 1415 467 1561 471 1570 c 0
 478 1579 504 1586 527 1586 c 0
 565 1586 569 1571 569 1449 c 0
 569 1375 544 1174 513 1003 c 0
 482 832 459 671 459 648 c 0
 459 616 475 605 520 605 c 0
 565 605 1016 698 1038 720 c 0
 1045 727 1064 857 1082 1010 c 0
 1096 1165 1118 1345 1125 1406 c 0
 1135 1469 1156 1582 1202 1582 c 0
 1238 1582 1242 1551 1242 1483 c 0
 1242 1450 1240 1406 1236 1348 c 0
 1227 1233 1217 1051 1208 945 c 1
 1195 752 l 1
 1411 770 l 1
 1528 781 1676 790 1739 790 c 0
 1746.58974359 790 1754.07429323 790.02103879 1761.39538765 790.02103879 c 0
 1825.45496384 790.02103879 1877 788.41025641 1877 757 c 0
 1877 730 1809 727 1753 722 c 0
 1645 709 1280 682 1208 635 c 0
 1163 606 1157 587 1157 389 c 0
 1157 227 1149 168 1127 148 c 0
 1118 141 1107 137 1091 137 c 0
 1061 137 1015 150 929 178 c 0
 839 209 695 267 610 310 c 0
 533 347 461 377 440 377 c 0
EndSplineSet
EndChar

StartChar: I
Encoding: 73 73 18
Width: 464
VWidth: -448
Flags: HW
LayerCount: 2
Fore
SplineSet
239 379 m 0
 239 339 241 291 241 256 c 0
 241 139 233 79 212 45 c 0
 195 16 148 -30 104 -30 c 0
 62.6868933908 -30 47.3280174508 3.85334435115 47.3280174508 52.4883945409 c 0
 47.3280174508 68.6010232352 49.0137687147 86.3360544671 52 105 c 0
 102 459 154 997 228 1325 c 0
 250 1413 276 1505 288 1537 c 0
 298 1567 330 1591 356 1591 c 0
 386 1591 416 1572 416 1538 c 0
 416 1486 392 1338 356 1175 c 0
 314 983 272 775 260 707 c 0
 249 647 239 505 239 379 c 0
EndSplineSet
EndChar

StartChar: J
Encoding: 74 74 19
Width: 739
VWidth: 0
Flags: HW
LayerCount: 2
Fore
SplineSet
368 927 m 0
 372 927 390 915 409 902 c 0
 430 886 446 879 472 879 c 0
 513 879 561 894 590 908 c 0
 612 919 639 927 652 927 c 0
 664 927 680 914 686 897 c 0
 689 889 691 858 691 810 c 0
 691 663 671 280 662 192 c 0
 651 89 632 -63 584 -118 c 0
 559 -146 552 -150 471 -150 c 0
 461 -150 450 -150 437 -150 c 0
 316 -150 169 -126 94 -91 c 0
 74 -80 48 -62 48 -42 c 0
 48 -35 51 -28 58 -21 c 0
 68 -11 81 -15 109 -35 c 0
 154 -69 338 -97 423 -97 c 0
 477 -97 499 -91 523 -69 c 0
 546 -50 560 -21 573 36 c 0
 601 182 612 483 617 666 c 2
 622 845 l 1
 585 838 l 2
 550 832 506 822 464 822 c 0
 416 822 362 840 353 873 c 0
 348 896 352 927 368 927 c 0
EndSplineSet
EndChar

StartChar: K
Encoding: 75 75 20
Width: 1840
VWidth: -698
Flags: HW
LayerCount: 2
Fore
SplineSet
1792 15 m 0
 1792 3 1779 -23 1759 -23 c 0
 1738 -23 1689 -6 1642 23 c 0
 1474 113 1282 173 1032 203 c 0
 910 217 784 243 752 259 c 0
 737 265 726 269 714 269 c 0
 681 269 648 238 552 139 c 0
 476 59 386 -13 350 -21 c 0
 324 -27 300 -30 278 -30 c 0
 210 -30 158 -3 114 33 c 0
 72 68 48 139 48 237 c 0
 48 320 65 472 88 613 c 0
 116 779 144 1015 152 1139 c 0
 160 1263 168 1391 176 1423 c 0
 184 1455 206 1475 232 1475 c 0
 303 1475 306 1401 306 1308 c 0
 306 1298 306 1289 306 1279 c 0
 306 1163 162 351 162 241 c 0
 162 153 210 85 292 85 c 0
 380 85 544 303 576 367 c 0
 598 405 634 493 660 565 c 0
 684 637 754 779 814 877 c 0
 872 975 1000 1179 1096 1327 c 0
 1210 1501 1288 1595 1314 1595 c 0
 1340 1595 1374 1568 1374 1532 c 0
 1374 1488 1326 1399 1186 1191 c 0
 1074 1025 956 841 928 781 c 0
 900 721 856 633 830 585 c 0
 806 537 786 473 786 447 c 0
 786 421 806 387 832 373 c 0
 856 359 972 333 1082 313 c 0
 1326 271 1510 209 1678 103 c 0
 1740 65 1792 25 1792 15 c 0
EndSplineSet
EndChar

StartChar: L
Encoding: 76 76 21
Width: 1431
VWidth: -433
Flags: HW
LayerCount: 2
Fore
SplineSet
449 1524 m 0
 453.759001296 1525.42770039 458.659553176 1526.09102763 463.600609728 1526.09102763 c 0
 500.189750324 1526.09102763 539 1489.71689883 539 1458 c 0
 539 1444 481 1300 409 1144 c 0
 337 984 255 772 227 674 c 0
 196 570 182 496 182 414 c 0
 182 391 183 367 185 342 c 0
 197 170 223 96 383 96 c 0
 439 96 665 130 885 168 c 0
 1107 208 1309 240 1335 240 c 0
 1361 240 1383 224 1383 208 c 0
 1383 188 1357 162 1323 148 c 0
 1223 98 517 -30 373 -30 c 0
 141 -30 92 70 59 284 c 0
 52 324 48 359 48 394 c 0
 48 455 59 518 83 616 c 0
 131 826 287 1248 367 1414 c 0
 395 1470 433 1516 449 1524 c 0
EndSplineSet
EndChar

StartChar: M
Encoding: 77 77 22
Width: 1792
VWidth: -401
Flags: HW
LayerCount: 2
Fore
SplineSet
1457 721 m 0
 1457 806 1469 951 1469 1024 c 0
 1469 1081 1462 1094 1443 1094 c 0
 1425 1094 1407 1086 1400 1075 c 0
 1391 1064 1315 1001 1227 934 c 0
 1141 869 992 774 898 724 c 0
 772 659 730 640 659 640 c 0
 519 640 473 655 390 736 c 0
 346 777 305 811 296 811 c 0
 290 811 271 717 251 619 c 0
 231 520 215 383 215 313 c 0
 215 207 210 76 129 76 c 0
 100 76 75 97 61 133 c 0
 52 154 48 205 48 298 c 0
 48 445 86 1360 98 1379 c 0
 105 1390 129 1399 152 1399 c 0
 226 1399 230 1550 307 1550 c 0
 356 1550 354 1425 359 1283 c 0
 363 1162 383 1012 401 949 c 0
 435 830 495 747 626 747 c 0
 671 747 762 778 845 819 c 0
 1050 922 1199 1019 1357 1188 c 0
 1427 1264 1502 1352 1524 1384 c 0
 1546 1417 1565 1434 1582 1434 c 0
 1604 1434 1629 1395 1629 1351 c 0
 1629 1316 1622 1263 1612 1213 c 0
 1586 1107 1562 791 1562 622 c 0
 1562 525 1571 462 1592 376 c 0
 1614 288 1663 168 1697 112 c 0
 1729 59 1744 22 1744 1 c 0
 1744 -18.0868495867 1730.83653359 -26.1448489376 1713.42215342 -26.1448489376 c 0
 1701.64050714 -26.1448489376 1687.91315041 -22.4565752066 1675 -16 c 0
 1652 -3 1601 74 1565 157 c 0
 1492 311 1457 502 1457 721 c 0
EndSplineSet
EndChar

StartChar: N
Encoding: 78 78 23
Width: 1728
VWidth: -646
Flags: HW
LayerCount: 2
Fore
SplineSet
330 1313 m 0
 330 1397 350 1505 428 1505 c 0
 458 1505 502 1484 525 1459 c 0
 597 1381 603 1041 603 868 c 0
 605 764 620 601 641 502 c 0
 683 306 687 277 784 173 c 0
 816 137 859 108 882 108 c 0
 903 108 930 124 943 139 c 0
 956 152 998 270 1040 395 c 0
 1165 802 1290 1151 1508 1455 c 0
 1567 1533 1627 1596 1646 1596 c 0
 1665 1596 1680 1581 1680 1558 c 0
 1680 1537 1630 1439 1565 1340 c 0
 1419 1110 1287 798 1209 505 c 0
 1150 288 1131 177 1021 59 c 0
 983 15 940 -6 894 -6 c 0
 786 -6 681 93 632 163 c 0
 577 249 491 539 491 680 c 0
 491 737 481 796 470 815 c 0
 459 834 446 836 436 823 c 0
 428 812 404 720 379 621 c 0
 356 520 311 357 284 256 c 0
 257 155 219 52 200 25 c 0
 179 -5 143 -28 113 -28 c 0
 86 -28 48 -14 48 5 c 0
 48 34 79 201 128 384 c 0
 176 578 243 851 273 988 c 0
 305 1125 330 1271 330 1313 c 0
EndSplineSet
EndChar

StartChar: O
Encoding: 79 79 24
Width: 1495
VWidth: -224
Flags: HW
LayerCount: 2
Fore
SplineSet
732 1500 m 0
 615 1500 556 1477 480 1435 c 1
 310 1355 208 1134 162 920 c 0
 153 878 150 830 150 781 c 0
 150 621 190 438 232 333 c 0
 256 265 307 182 344 143 c 0
 407 80 419 77 550 77 c 0
 671 77 711 86 839 151 c 0
 944 202 1031 266 1126 366 c 0
 1223 466 1276 537 1308 622 c 0
 1339 704 1352 784 1352 891 c 0
 1352 1088 1315 1161 1223 1263 c 0
 1186 1304 1146 1338 1129 1338 c 0
 1112 1338 1102 1318 1102 1294 c 0
 1102 1207 1017 1110 949 1081 c 0
 910 1064 853 1054 822 1054 c 0
 791 1054 743 1066 716 1080 c 0
 690.305244826 1091.41989119 671.855707138 1113.70760861 671.855707138 1124.45451185 c 0
 671.855707138 1137.06565702 698.932345272 1139.01939058 729.937017058 1139.01939058 c 0
 757.548476454 1139.01939058 789.210526316 1137 811 1137 c 0
 860 1137 890 1150 924 1177 c 0
 964 1209 977 1225 977 1269 c 0
 977 1279 976 1292 975 1306 c 0
 968 1384 964 1396 898 1396 c 0
 860 1396 786 1378 727 1358 c 0
 664 1334 570 1284 521 1245 c 0
 470 1206 419 1177 409 1177 c 0
 397 1177 388 1188 388 1202 c 0
 388 1216 434 1264 492 1306 c 0
 550 1348 646 1405 706 1432 c 0
 767 1459 817 1484 817 1491 c 0
 817 1496.78019301 791.771564185 1500.51483717 755.953518562 1500.51483717 c 0
 748.394756699 1500.51483717 740.364390799 1500.34851628 732 1500 c 0
775 1598 m 0
 906 1598 937 1588 1007 1527 c 0
 1111 1439 1191 1418 1291 1323 c 0
 1388 1226 1447 1083 1447 894 c 0
 1447 562 1324 415 1135 247 c 0
 1064 179 943 97 868 58 c 0
 738 -6 651 -26 491 -26 c 0
 392 -26 353 -8 281 56 c 0
 242 88 187 172 155 242 c 0
 105 356 48 569 48 728 c 0
 48 778 53 829 62 898 c 0
 91 1124 150 1260 269 1389 c 0
 364 1493 453 1542 587 1583 c 0
 625 1592 706 1598 775 1598 c 0
EndSplineSet
EndChar

StartChar: P
Encoding: 80 80 25
Width: 1034
VWidth: -374
Flags: HW
LayerCount: 2
Fore
SplineSet
146 953 m 0
 146 902 163 800 179 800 c 0
 189 800 206 807 224 813 c 0
 250 823 256 861 256 1043 c 0
 256 1181 248 1264 237 1264 c 0
 195 1264 170 1126 157 1072 c 0
 150 1040 146 995 146 953 c 0
378 1167 m 0
 378 1098 371 980 371 922 c 0
 371 846 380 840 405 840 c 0
 496 840 684 905 751 947 c 0
 831 993 891 1058 891 1162 c 0
 891 1192 870 1248 843 1288 c 0
 779 1380 659 1448 512 1448 c 0
 435 1448 361 1437 361 1365 c 0
 361 1351 363 1335 368 1317 c 0
 374 1294 378 1236 378 1167 c 0
528 1533 m 0
 706 1533 776 1495 869 1405 c 0
 935 1341 986 1252 986 1139 c 0
 986 978 892 907 768 856 c 0
 714 830 600 799 515 781 c 2
 362 751 l 1
 346 637 l 2
 341 600 339 547 339 486 c 0
 339 335 351 141 359 59 c 0
 359.215756806 52.9588094413 359.326773863 47.3249401255 359.326773863 42.0732828155 c 0
 359.326773863 -1.35632667205 351.73455354 -18.647270417 333 -24 c 0
 332.205969484 -24.0882256128 331.398317391 -24.1316946128 330.578417174 -24.1316946128 c 0
 312.811873136 -24.1316946128 289.294195097 -3.7207286138 274 24 c 0
 220 114 83 684 61 807 c 0
 52 862 48 911 48 957 c 0
 48 1052 66 1134 95 1223 c 0
 130 1346 216 1448 323 1496 c 0
 373 1518 446 1533 528 1533 c 0
EndSplineSet
EndChar

StartChar: Q
Encoding: 81 81 26
Width: 1536
VWidth: -40
Flags: HW
LayerCount: 2
Fore
SplineSet
920 1323 m 0
 920 1365 855 1447 817 1447 c 0
 793 1447 689 1380 668 1380 c 0
 658 1380 651 1391 651 1405 c 0
 651 1419 639 1431 622 1431 c 0
 604 1431 546 1403 490 1368 c 0
 371 1291 289 1160 229 1034 c 1
 170 922 142 825 142 651 c 0
 145 494 169 419 250 353 c 0
 304 306 379 275 473 275 c 0
 479 275 486 276 492 276 c 0
 550 276 708 313 708 363 c 0
 708 397 618 638 618 672 c 0
 618 687 631 693 653 690 c 0
 681 687 700 655 735 558 c 0
 760 489 791 431 801 428 c 0
 802.053313302 427.712732736 803.262502402 427.572172105 804.609129294 427.572172105 c 0
 817.325645608 427.572172105 842.298138114 440.106626604 864 460 c 0
 928 520 996 673 1027 775 c 0
 1042 828 1055 927 1055 1011 c 0
 1055 1089 1049 1171 1043 1193 c 0
 1036 1213 1025 1229 1015 1229 c 0
 1007 1229 975 1211 944 1187 c 0
 873 1134 742 1062 623 1062 c 0
 575 1062 516 1071 489 1082 c 0
 473 1089 464 1093 464 1097 c 0
 464 1103 492 1107 567 1113 c 0
 720 1124 786 1156 866 1232 c 0
 898 1263 920 1298 920 1323 c 0
1261 57 m 0
 1283 57 1307 58 1329 58 c 0
 1413 58 1479 54 1484 49 c 0
 1491 43 1488 32 1480 24 c 0
 1457 1 1266 -21 1170 -21 c 0
 1049 -21 942 53 878 117 c 0
 850 142 811 187 791 215 c 2
 755 266 l 1
 667 234 l 1
 610 212 535 201 458 201 c 0
 381 202 317 214 278 232 c 0
 244 247 187 291 152 330 c 0
 99 389 83 421 66 512 c 0
 56 571 48 644 48 675 c 0
 48 800 108 978 156 1079 c 0
 255 1279 390 1448 618 1517 c 0
 668 1532 728 1547 752 1547 c 0
 758 1547 764 1548 770 1548 c 0
 857 1548 937 1501 989 1449 c 0
 1090 1348 1136 1175 1136 965 c 0
 1136 898 1128 848 1105 768 c 0
 1060 604 1019 511 922 406 c 0
 883 365 853 327 853 319 c 0
 853 312 863 285 877 260 c 0
 905 208 1014 98 1067 74 c 0
 1089 64 1162 57 1261 57 c 0
EndSplineSet
EndChar

StartChar: R
Encoding: 82 82 27
Width: 1533
VWidth: -411
Flags: HW
LayerCount: 2
Fore
SplineSet
603 723 m 0
 603 755 494 850 462 850 c 0
 422 850 413 826 413 781 c 0
 413 717 477 696 544 696 c 0
 582 696 603 705 603 723 c 0
318 1328 m 0
 308 1328 277 1290 248 1242 c 0
 196 1148 149 1021 149 881 c 0
 149 861 150 841 152 821 c 0
 166 709 179 529 240 475 c 0
 270 448 278 446 286 467 c 0
 292 483 301 595 307 715 c 0
 309 769 329 1065 329 1225 c 0
 329 1287 326 1328 318 1328 c 0
682 1482 m 0
 613 1480 550 1468 504 1442 c 1
 432 1405 l 1
 432 1259 432 1116 432 970 c 1
 493 957 l 2
 533 949 587 911 646 847 c 2
 738 749 l 1
 798 787 l 2
 876 837 934 907 963 1000 c 0
 976 1037 987 1093 987 1125 c 0
 987 1248 944 1332 869 1407 c 0
 799 1476 783 1482 682 1482 c 0
1485 21 m 0
 1485 3 1474 -24 1457 -24 c 0
 1440 -24 1403 -7 1365 19 c 0
 1323 48 1157 197 1000 351 c 2
 715 627 l 1
 560 621 l 1
 474 619 398 613 395 610 c 0
 392 604 388 516 386 410 c 0
 384 282 381 186 342 186 c 0
 325 186 301 208 250 264 c 0
 143 384 117 411 77 584 c 0
 61 651 48 776 48 861 c 0
 48 1055 97 1231 182 1335 c 1
 294 1458 459 1576 686 1576 c 0
 690 1576 695 1576 699 1576 c 0
 815 1576 919 1514 968 1443 c 0
 1010 1385 1083 1215 1083 1122 c 0
 1083 1092 1070 1022 1054 968 c 0
 1032 891 1004 851 930 787 c 0
 876 741 834 695 834 679 c 0
 834 663 939 545 1069 419 c 0
 1199 291 1345 159 1395 122 c 0
 1443 85 1485 39 1485 21 c 0
EndSplineSet
EndChar

StartChar: S
Encoding: 83 83 28
Width: 1650
VWidth: -623
Flags: HW
LayerCount: 2
Fore
SplineSet
1344 1550 m 0
 1454 1550 1496 1539 1547 1501 c 0
 1588 1469 1602 1449 1602 1410 c 0
 1602 1398 1600 1384 1598 1368 c 0
 1590 1286 1492 1100 1431 1077 c 0
 1418 1072 1408 1070 1400 1070 c 0
 1386 1070 1380 1078 1380 1091 c 0
 1380 1119 1405 1169 1427 1214 c 0
 1461 1280 1490 1347 1490 1360 c 0
 1490 1375 1465 1406 1433 1427 c 0
 1404 1445 1383 1453 1351 1453 c 0
 1326 1453 1293 1448 1245 1438 c 0
 1101 1410 940 1322 856 1246 c 0
 826 1221 804 1172 804 1140 c 0
 804 1108 836 1041 878 990 c 0
 981 863 1341 526 1444 395 c 0
 1492 332 1544 241 1555 193 c 0
 1563 165 1567 144 1567 127 c 0
 1567 104 1559 89 1545 74 c 0
 1524 55 1450 24 1380 3 c 0
 1304 -19 1240 -29 1100 -29 c 0
 875 -29 433 0 306 26 c 0
 215 45 121 72 94 85 c 0
 69 98 48 131 48 154 c 0
 48 184 65 199 90 199 c 0
 113 199 143 187 156 174 c 0
 169 161 240 132 316 117 c 0
 401 95 775 67 1028 67 c 0
 1130 67 1212 72 1249 83 c 0
 1330 105 1416 126 1416 206 c 0
 1416 216 1415 226 1412 237 c 0
 1401 279 1293 402 1118 577 c 0
 964 729 799 898 753 955 c 0
 688 1031 666 1079 666 1138 c 0
 666 1203 685 1237 742 1290 c 0
 837 1385 958 1453 1097 1506 c 0
 1160 1529 1266 1548 1344 1550 c 0
EndSplineSet
EndChar

StartChar: T
Encoding: 84 84 29
Width: 2435
VWidth: -804
Flags: HW
LayerCount: 2
Fore
SplineSet
953 1380 m 0
 953 1350 1079 1091 1105 1091 c 0
 1128 1091 1144 1255 1144 1338 c 0
 1144 1362 1143 1379 1140 1384 c 0
 1132 1394 1087 1403 1039 1403 c 0
 991 1403 953 1393 953 1380 c 0
1277 1551 m 0
 1423 1551 1581 1553 1724 1553 c 0
 2004 1553 2232 1549 2278 1541 c 0
 2349 1531 2387 1514 2387 1489 c 0
 2387 1468 2378 1453 2368 1453 c 0
 2355 1451 2151 1446 1909 1438 c 1
 1667 1434 1430 1419 1382 1409 c 2
 1293 1388 l 1
 1281 1050 l 2
 1278 968 1276 901 1276 844 c 0
 1276 713 1285 634 1310 536 c 0
 1335 439 1356 290 1356 204 c 0
 1356 95 1343 37 1316 10 c 0
 1295 -13 1262 -32 1247 -32 c 0
 1230 -32 1203 -21 1182 -8 c 0
 1155 9 1144 90 1140 317 c 0
 1136 542 1119 657 1079 775 c 0
 1050 863 986 1012 936 1111 c 0
 888 1210 831 1311 808 1336 c 0
 785 1361 735 1378 676 1378 c 0
 560 1378 279 1289 212 1241 c 0
 185 1218 136 1201 107 1201 c 0
 73 1201 48 1218 48 1235 c 0
 48 1252 93 1309 145 1359 c 0
 195 1407 283 1476 338 1514 c 0
 402 1557 430 1573 491 1573 c 0
 519 1573 553 1569 600 1564 c 0
 675 1555 960 1551 1277 1551 c 0
EndSplineSet
EndChar

StartChar: U
Encoding: 85 85 30
Width: 1427
VWidth: -507
Flags: HW
LayerCount: 2
Fore
SplineSet
1061 329 m 0
 1061 348 1051 382 1035 382 c 0
 1017 382 948 333 878 266 c 0
 802 192 706 120 665 102 c 0
 624 84 541 70 480 70 c 0
 250 70 111 220 71 414 c 0
 58 468 48 592 48 689 c 0
 48 889 115 1258 176 1393 c 0
 198 1443 219 1499 226 1521 c 0
 235.526756221 1542.65171868 252.554263192 1553.80238631 277.082520914 1553.80238631 c 0
 280.875638138 1553.80238631 284.848131167 1553.53572501 289 1553 c 0
 329 1548 345 1514 345 1476 c 0
 345 1439 331 1399 311 1375 c 0
 289 1352 259 1287 246 1233 c 0
 205 1087 156 864 151 673 c 1
 151 450 179 351 298 241 c 0
 370 176 410 155 464 155 c 0
 504 155 585 178 646 209 c 0
 779 276 914 421 977 552 c 0
 1002 613 1025 736 1038 912 c 0
 1061 1184 1067 1233 1135 1391 c 0
 1156 1441 1184 1491 1222 1491 c 0
 1255 1491 1285 1461 1285 1414 c 0
 1285 1363 1266 1263 1223 1047 c 0
 1169 791 1150 666 1150 562 c 0
 1150 353 1215 187 1324 92 c 0
 1362 57 1379 39 1379 24 c 0
 1379 14 1372 5 1360 -6 c 0
 1345.74173383 -20.2582661664 1336.80161201 -27.5062511579 1326.04852002 -27.5062511579 c 0
 1314.93081341 -27.5062511579 1301.87510422 -19.7584051325 1279 -4 c 0
 1236 25 1061 261 1061 329 c 0
EndSplineSet
EndChar

StartChar: V
Encoding: 86 86 31
Width: 1628
VWidth: -483
Flags: HW
LayerCount: 2
Fore
SplineSet
48 1449 m 0
 48 1467 84 1475 109 1475 c 0
 137 1475 167 1447 189 1399 c 0
 209 1355 261 1153 309 949 c 0
 357 745 429 495 473 397 c 0
 517 299 565 219 585 219 c 0
 601 219 635 255 661 301 c 0
 685 347 763 511 835 661 c 0
 909 811 1037 1029 1123 1143 c 0
 1207 1255 1329 1387 1391 1435 c 0
 1453 1483 1519 1523 1535 1523 c 0
 1547 1523 1580 1515 1580 1503 c 0
 1580 1486 1506 1398 1417 1305 c 0
 1223 1105 1107 913 989 677 c 0
 891 481 847 335 747 135 c 0
 695 27 657 -25 621 -29 c 0
 618.316936585 -29.4127789869 615.48478499 -29.6125748588 612.538711196 -29.6125748588 c 0
 586.936105065 -29.6125748588 552.729715572 -14.5233260786 533 7 c 0
 511 31 461 117 421 197 c 0
 381 279 277 589 191 889 c 0
 111 1169 48 1408 48 1449 c 0
EndSplineSet
EndChar

StartChar: W
Encoding: 87 87 32
Width: 1561
VWidth: -432
Flags: HW
LayerCount: 2
Fore
SplineSet
48 1449 m 0
 48 1501 64 1559 107 1559 c 0
 150 1559 187 1484 197 1444 c 0
 210 1401 239 1233 262 1073 c 0
 307 772 365 535 412 292 c 0
 423 242 458 131 491 131 c 0
 498 131 505 136 511 146 c 0
 533 184 673 698 673 761 c 0
 673 795 685 846 703 868 c 0
 717.5 888 725.75 897.25 736.875 897.25 c 0
 748 897.25 762 888 788 871 c 0
 829 846 845 812 854 745 c 0
 861 693 871 567 880 464 c 0
 886 355 894 261 920 261 c 0
 931 261 944 277 962 313 c 0
 978 345 1369 1494 1396 1521 c 0
 1407 1533 1420 1539 1433 1539 c 0
 1473 1539 1513 1487 1513 1451 c 0
 1513 1422 1486 1347 1452 1282 c 0
 1418 1215 1318 945 1232 680 c 0
 1124 342 1058 175 1015 117 c 0
 981 74 931 38 908 38 c 0
 885 38 847 66 824 106 c 0
 802 142 772 221 759 279 c 0
 746.006788616 330.972845535 727.845509618 371.748211239 716.50719782 371.748211239 c 0
 715.628640325 371.748211239 714.791048198 371.503394308 714 371 c 0
 705 364 685 302 671 230 c 0
 649 117 611 -27 503 -27 c 0
 402 -27 334 99 311 191 c 0
 270 358 181 799 145 986 c 0
 125 1087 97 1216 79 1274 c 0
 61 1332 48 1413 48 1449 c 0
EndSplineSet
EndChar

StartChar: X
Encoding: 88 88 33
Width: 1288
VWidth: -220
Flags: HW
LayerCount: 2
Fore
SplineSet
1096 1424 m 0
 1096 1464 1144 1532 1188 1532 c 0
 1206 1532 1222 1519 1222 1504 c 0
 1222 1489 1203 1435 1179 1383 c 0
 1121 1254 900 998 822 888 c 0
 784 836 753 789 753 783 c 0
 753 775 844 631 958 460 c 0
 1070 289 1182 134 1203 116 c 0
 1224 96 1240 58 1240 28 c 0
 1240 -6 1232 -22 1212 -22 c 0
 1197 -22 1169 -13 1149 -4 c 0
 1131 6 1092 54 1066 100 c 0
 1040 146 949 295 862 429 c 0
 775 563 694 677 676 677 c 0
 660 677 630 648 604 612 c 0
 577 574 458 434 336 302 c 0
 214 168 108 55 99 52 c 0
 97.2666836648 51.3697031508 95.4899154729 51.0746063388 93.6873017183 51.0746063388 c 0
 72.6103626783 51.0746063388 48 91.4181679106 48 108 c 0
 48 116 152 232 276 370 c 0
 400 508 528 652 556 694 c 0
 584 736 608 779 608 789 c 0
 608 805 410 1117 410 1132 c 0
 410 1140 378 1183 340 1227 c 0
 302 1271 260 1334 250 1368 c 0
 238 1402 228 1443 228 1461 c 0
 228 1485 242 1496 270 1496 c 0
 294 1496 325 1482 340 1466 c 0
 356 1448 400 1376 434 1306 c 0
 470 1237 536 1115 586 1035 c 0
 632 955 683 890 693 890 c 0
 703 890 763 960 826 1042 c 0
 889 1128 976 1240 1018 1294 c 0
 1060 1350 1094 1409 1096 1424 c 0
EndSplineSet
EndChar

StartChar: Y
Encoding: 89 89 34
Width: 989
VWidth: -73
Flags: HW
LayerCount: 2
Fore
SplineSet
82 1595 m 0
 102 1595 132 1569 160 1517 c 0
 185 1471 227 1409 252 1377 c 0
 277 1345 362 1252 439 1171 c 0
 516 1088 592 1022 609 1022 c 0
 629 1022 654 1052 679 1112 c 0
 701 1160 747 1276 782 1368 c 0
 817 1460 857 1547 871 1557 c 0
 881 1565 890 1569 898 1569 c 0
 924 1569 941 1532 941 1501 c 0
 941 1427 800 1144 768 1094 c 0
 746 1059 634 829 516 583 c 0
 369 271 311 137 311 99 c 0
 311 91 314 83 314 75 c 0
 314 53 303 34 279 13 c 0
 257.053697216 -7.11744421846 228.417947129 -21.3816220461 210.679200923 -21.3816220461 c 0
 209.019239605 -21.3816220461 207.454702195 -21.256712152 206 -21 c 0
 189 -18 170 -2 170 15 c 0
 170 36 244 210 339 404 c 0
 437 600 528 790 539 824 c 0
 546 845 551 858 551 871 c 0
 551 895 536 914 495 966 c 0
 410 1068 240 1241 160 1349 c 0
 126 1395 87 1457 73 1491 c 0
 59 1523 48 1560 48 1571 c 0
 48 1585 64 1595 82 1595 c 0
EndSplineSet
EndChar

StartChar: Z
Encoding: 90 90 35
Width: 1448
VWidth: -243
Flags: HW
LayerCount: 2
Fore
SplineSet
427 73 m 0
 621 73 1021 98 1169 98 c 0
 1265 98 1355 94 1371 88 c 0
 1387 82 1400 65 1400 53 c 0
 1400 12 1341 8 1272 8 c 0
 1256 8 1240 8 1223 8 c 0
 1129 8 538 -23 376 -23 c 0
 275 -23 235 -14 171 4 c 0
 93 25 48 47 48 68 c 0
 48 90 111 164 222 274 c 0
 320 372 446 514 504 590 c 0
 571 679 594 711 594 735 c 0
 594 756.052631579 555.526623576 804.036626654 555.526623576 827.654149995 c 0
 555.526623576 830.960603263 556.280701754 833.789473684 558 836 c 0
 566 844 602 848 638 848 c 2
 704 848 l 1
 816 1066 l 2
 888 1207 931 1315 939 1375 c 0
 943 1400 945 1419 945 1435 c 0
 945 1465 938 1481 920 1499 c 0
 901 1518 882 1526 835 1526 c 0
 605 1526 450 1435 275 1369 c 0
 214 1345 177 1334 155 1334 c 0
 134.194348623 1334 120.122310367 1348.42917097 120.122310367 1363.94492177 c 0
 120.122310367 1370.8015791 122.870434252 1377.87043425 129 1384 c 0
 139 1394 234 1441 338 1486 c 0
 438 1531 564 1577 614 1589 c 0
 675 1603 776 1615 853 1615 c 0
 935 1615 952 1607 993 1568 c 0
 1028 1533 1038 1518 1038 1465 c 0
 1038 1259 937 1078 857 943 c 0
 830 899 809 859 809 847 c 0
 809 841 817 841 827 841 c 0
 885 841 1068 877 1082 877 c 0
 1098 877 1110 866 1110 851 c 0
 1110 839 1088 816 1061 806 c 0
 1033 794 946 773 866 758 c 0
 756 740 714 723 686 689 c 0
 666 665 595 577 527 490 c 0
 458 403 359 285 305 227 c 0
 251 169 207 118 207 112 c 0
 207 104 238 92 276 83 c 0
 301 76 351 73 427 73 c 0
EndSplineSet
EndChar

StartChar: Adieresis
Encoding: 196 196 36
Width: 1332
VWidth: -105
Flags: HW
LayerCount: 2
Fore
SplineSet
858.739864781 1009.10432586 m 0
 855.883639598 1009.10432586 840.476134322 982.77764675 826 949 c 0
 782 853 743 743 695 644 c 0
 672 598 658 567 658 544 c 0
 658 514 679 496 732 472 c 0
 767 458 808 444 822 444 c 0
 846 444 847 460 855 724 c 0
 858 827 860 918 860 968 c 0
 860 992.556212207 860.194782336 1009.10432586 858.739864781 1009.10432586 c 0
930 306 m 2
 930 249 979 146 979 78 c 0
 979 47 969 23 937 23 c 0
 916 23 903 34 894 60 c 0
 875 115 706 361 668 397 c 0
 646.906341374 416.33585374 626.585152253 428.719481946 613.825685973 428.719481946 c 0
 612.067652176 428.719481946 610.453170687 428.484390229 609 428 c 0
 597 422 588 409 588 396 c 0
 588 383 558 317 523 249 c 0
 489 182 445 106 426 82 c 0
 389 35 302 -16 223 -16 c 0
 149 -16 89 42 67 98 c 0
 56 122 48 179 48 226 c 0
 48 286 55 317 69 331 c 0
 80 343 88 348 94 348 c 0
 112 348 114 305 114 255 c 0
 114 155 125 102 187 68 c 0
 208 57 219 51 232 51 c 0
 246 51 263 59 296 75 c 0
 333 93 375 123 389 143 c 0
 412 174 535 400 535 451 c 0
 535 466 525 494 512 512 c 0
 494 537 460 587 460 626 c 0
 460 646 474 656 508 656 c 0
 529 656 553 647 562 636 c 0
 571 625 586 616 595 616 c 0
 615 616 707 805 707 824 c 0
 707 832 726 879 748 927 c 0
 790 1025 825 1151 862 1242 c 0
 874 1271 888 1302 895 1311 c 0
 902 1319 915 1328 926 1328 c 0
 935 1328 949 1315 957 1302 c 0
 964 1288 970 1253 970 1222 c 0
 970 1191 957 1076 943 965 c 0
 927 844 920 738 920 637 c 0
 920 623 920 609 920 595 c 2
 924 425 l 1
 1062 425 l 2
 1176 425 1201 420 1201 405 c 0
 1201 394 1180 379 1155 370 c 0
 1130 361 1068 354 1020 354 c 1
 930 352 l 1
 930 306 l 2
775 1472 m 0
 791.40330391 1472 797.52969056 1468.73007178 797.52969056 1453.25061095 c 0
 797.52969056 1446.08176496 796.215703026 1436.29421816 794 1423 c 0
 790 1395 782 1330 778 1278 c 0
 770 1187 768 1182 736 1182 c 2
 704 1182 l 1
 709 1306 l 1
 711 1382 721 1438 732 1451 c 0
 741 1463 761 1472 775 1472 c 0
1218 1175 m 0
 1184 1175 1181 1223 1181 1294 c 0
 1181 1357 1188 1397 1201 1415 c 0
 1212 1428 1221 1456 1221 1476 c 0
 1221 1508 1225 1513 1250 1509 c 0
 1278 1506 1284 1482 1284 1433 c 0
 1284 1407 1279 1380 1274 1368 c 0
 1266 1355 1256 1309 1252 1267 c 0
 1247 1224 1241 1175 1218 1175 c 0
EndSplineSet
EndChar

StartChar: Odieresis
Encoding: 214 214 37
Width: 1052
VWidth: -221
Flags: HW
LayerCount: 2
Fore
SplineSet
724 917 m 0
 672 945 589 952 492 952 c 0
 359 952 287 932 215 852 c 0
 168 800 153 770 133 679 c 0
 120 623 114 573 114 524 c 0
 114 388 184 174 256 109 c 0
 303 71 370 52 452 52 c 0
 478 52 505 54 534 58 c 0
 667 75 700 85 798 138 c 0
 851 167 877 192 900 240 c 0
 925 292 931 329 931 442 c 0
 930 522 920 619 907 672 c 0
 894 722 872 776 859 790 c 0
 847 803 823 811 806 810 c 0
 803.28567615 809.737323498 800.862681176 809.604978336 798.700807744 809.604978336 c 0
 783.853653981 809.604978336 781.322469136 815.847124787 781.322469136 828.983736626 c 0
 781.322469136 835.780246914 782 844.422222222 782 855 c 0
 782 881 771 894 724 917 c 0
471 1009 m 0
 496 1009 539 1013 568 1013 c 0
 616 1013 659 1007 704 995 c 0
 740 984 773 977 788 977 c 0
 807 977 792 998 778 1014 c 0
 752 1042 657 1071 598 1071 c 0
 595 1071 591 1071 588 1071 c 0
 555 1071 430 1047 430 1019 c 0
 430 1012 444 1009 471 1009 c 0
895 977 m 0
 895 958 888 920 888 901 c 0
 888 874 896 855 918 822 c 0
 940 792 966 731 979 688 c 0
 993 636 1003 550 1004 443 c 0
 1004 299 1000 272 971 213 c 0
 954 176 916 128 888 106 c 0
 795 32 602 -18 432 -18 c 0
 223 -18 138 84 80 268 c 0
 52 348 48 395 48 544 c 0
 48 711 51 728 88 804 c 0
 138 905 248 1000 340 1055 c 0
 406 1095 509 1139 600 1144 c 1
 691 1144 802 1099 852 1049 c 0
 885 1016 895 1004 895 977 c 0
496 1498 m 0
 516 1493 520 1474 521 1377 c 0
 521 1368 521 1360 521 1352 c 0
 521 1280 515 1258 500 1251 c 0
 488 1246 472 1251 460 1261 c 0
 449 1270 443 1284 443 1314 c 0
 443 1356 461 1483 466 1491 c 0
 471 1497 483 1500 496 1498 c 0
719 1524 m 0
 739 1524 739 1500 739 1464 c 0
 739 1388 722 1263 716 1257 c 0
 709 1250 691 1246 678 1252 c 0
 663.13961018 1257.40377812 657.404475963 1265.08887013 657.404475963 1283.06829024 c 0
 657.404475963 1291.70642506 658.728305852 1302.72077964 661 1317 c 0
 665 1354 677 1524 719 1524 c 0
EndSplineSet
EndChar

StartChar: Udieresis
Encoding: 220 220 38
Width: 1041
VWidth: -209
Flags: HW
LayerCount: 2
Fore
SplineSet
993 245 m 0
 993 217 969 182 938 182 c 0
 890 182 845 262 836 303 c 0
 828 337 817 365 811 365 c 0
 805 365 785 326 765 278 c 0
 742 221 700 160 649 109 c 0
 591 51 549 23 489 5 c 0
 442 -9 369 -20 325 -20 c 0
 257 -20 238 -10 198 26 c 0
 114 105 48 272 48 446 c 0
 48 480 50 516 56 550 c 0
 77 677 94 802 129 910 c 0
 141 953 181 1047 215 1117 c 0
 266 1220 285 1243 312 1243 c 0
 346 1243 359 1224 359 1198 c 0
 359 1145 307 1060 290 1046 c 0
 274 1032 243 965 221 897 c 0
 177 757 135 634 135 465 c 0
 135 292 178 150 278 84 c 0
 299 68 311 61 334 61 c 0
 351 61 375 65 412 73 c 0
 640 120 684 269 756 497 c 0
 785 591 817 707 827 758 c 0
 837 809 849 899 849 957 c 0
 850 1041 856 1066 878 1080 c 0
 901 1094 910 1091 928 1066 c 0
 941 1048 948 1023 948 961 c 0
 948 839 933 678 919 566 c 0
 911 507 908 466 908 433 c 0
 908 370 930 288 967 278 c 0
 986 272 993 259 993 245 c 0
766 1511 m 0
 770 1507 773 1478 773 1434 c 0
 773 1401 772 1359 769 1312 c 0
 760 1151 760 1123 725 1123 c 0
 691 1123 680 1167 680 1221 c 0
 680 1351 715 1418 741 1495 c 0
 747 1513 757 1520 766 1511 c 0
577 1535 m 0
 589 1535 597 1501 597 1417 c 0
 598 1347 606 1282 618 1260 c 0
 630 1238 637 1211 632 1201 c 0
 627 1191 614 1182 600 1182 c 0
 588 1182 564 1192 548 1208 c 0
 526 1228 519 1256 519 1343 c 0
 519 1403 530 1471 540 1494 c 0
 549 1517 567 1535 577 1535 c 0
EndSplineSet
EndChar

StartChar: uni1E9E
Encoding: 7838 7838 39
Width: 1036
VWidth: 0
Flags: HW
LayerCount: 2
Fore
SplineSet
783 1434 m 0
 810 1441 831 1446 849 1446 c 0
 870 1446 886 1439 904 1417 c 0
 924 1392 929 1368 929 1306 c 0
 929 1188 914 1158 864 1077 c 0
 841 1040 822 1003 822 996 c 0
 822 989 845 952 874 915 c 0
 903 877 939 823 953 793 c 0
 976 748 988 666 988 586 c 0
 988 542 981 520 957 468 c 0
 910 371 853 312 754 268 c 0
 712 249 665 233 646 233 c 0
 619 233 601 236 601 250 c 0
 601 280 635 295 673 302 c 0
 702 308 754 330 787 353 c 0
 838 386 855 406 885 471 c 0
 911 529 920 566 920 620 c 0
 920 671 912 711 889 760 c 0
 872 798 826 865 786 910 c 0
 747 954 715 995 715 999 c 0
 715 1004 735 1027 760 1052 c 0
 785 1077 815 1119 828 1144 c 0
 843 1177 851 1219 851 1281 c 2
 852 1370 l 1
 804 1368 l 2
 728 1365 489 1228 440 1187 c 0
 318 1080 214 882 173 697 c 0
 150 593 119 373 119 245 c 0
 119 165 124 135 143 104 c 0
 156 83 167 60 167 54 c 0
 167 47 160 42 153 42 c 0
 114 48 73 102 61 144 c 0
 54 170 48 221 48 257 c 0
 48 388 85 612 115 731 c 0
 147 871 193 974 253 1072 c 0
 311 1163 374 1226 470 1289 c 0
 550 1342 688 1412 783 1434 c 0
EndSplineSet
EndChar

StartChar: a
Encoding: 97 97 40
Width: 1322
VWidth: -284
Flags: HW
LayerCount: 2
Fore
SplineSet
541 514 m 0
 541 546 618 602 618 628 c 0
 618 639 596 668 574 692 c 0
 550 719 512 736 480 736 c 0
 450 736 388 710 342 680 c 0
 246 613 160 482 160 328 c 0
 160 232 166 213 224 149 c 0
 278 92 299 80 360 80 c 0
 364 80 368 80 373 80 c 0
 506 80 646 184 710 269 c 0
 756 333 770 373 770 445 c 0
 773 557 835 696 909 736 c 0
 932.150127824 748.501069025 945.867915487 754.999739766 956.307141436 754.999739766 c 0
 968.41471529 754.999739766 976.112061356 746.257913079 989 728 c 0
 1001.89012073 712.96152581 1007.60069525 690.230680668 1007.60069525 667.88680897 c 0
 1007.60069525 659.029290173 1006.70329309 650.232583261 1005 642 c 0
 999 615 970 528 938 448 c 0
 906 368 888 311 888 276 c 0
 888 231 925 189 965 160 c 0
 1013 126 1051 117 1141 117 c 0
 1212 117 1274 114 1274 85 c 0
 1274 75 1267 63 1251 47 c 0
 1232 26 1194 12 1152 12 c 0
 1019 12 944 52 853 119 c 1
 768 186 l 1
 690 116 l 2
 648 78 573 29 525 8 c 0
 476 -15 435 -24 381 -24 c 0
 367 -24 351 -23 334 -22 c 0
 235 -12 223 -5 149 77 c 0
 70 164 48 206 48 329 c 0
 48 510 133 615 240 717 c 0
 323 797 376 844 501 850 c 0
 552 850 584 834 648 767 c 0
 706 709 731 668 731 634 c 0
 731 570 653 488 589 488 c 0
 562 488 541 501 541 514 c 0
EndSplineSet
Substitution2: "ss02" a.ss02
Substitution2: "ss01" a.ss01
EndChar

StartChar: b
Encoding: 98 98 41
Width: 1068
VWidth: -260
Flags: HW
LayerCount: 2
Fore
SplineSet
623 663 m 0
 540 658 417 558 380 505 c 0
 357 472 319 300 319 223 c 0
 319 191 328 180 346 167 c 0
 397 127 590 80 702 80 c 0
 784 80 836 102 874 148 c 0
 905 184 916 205 916 249 c 0
 916 409 846 566 745 622 c 0
 711 644 655 663 623 663 c 0
340 1508 m 0
 373 1508 379 1488 379 1401 c 0
 379 1252 362 1039 339 925 c 0
 322 842 312 743 312 709 c 0
 312 673 315 643 322 643 c 0
 329 643 368 666 412 695 c 0
 456 726 534 755 587 765 c 0
 614 770 635 773 654 773 c 0
 689 773 716 764 757 743 c 0
 905 667 1020 497 1020 274 c 0
 1020 67 893 -26 686 -26 c 0
 433 -26 237 140 104 264 c 0
 72 293 48 336 48 360 c 0
 48 392 58 401 84 393 c 0
 124 384 149 364 165 364 c 0
 184 364 189 393 189 502 c 0
 189 664 245 1232 262 1370 c 0
 273 1441 282 1508 340 1508 c 0
EndSplineSet
EndChar

StartChar: c
Encoding: 99 99 42
Width: 1364
VWidth: -283
Flags: HW
LayerCount: 2
Fore
SplineSet
1287 179 m 0
 1305 179 1316 158 1316 147 c 0
 1316 137 1291 114 1260 99 c 0
 1144 38 961 8 781 -14 c 0
 719 -21 656 -26 595 -26 c 0
 442 -26 302 -1 211 54 c 1
 135 105 48 188 48 292 c 0
 48 328 82 387 145 463 c 0
 267 607 408 715 602 781 c 0
 680 810 757 830 772 830 c 0
 843 830 951 786 992 742 c 0
 1014.56485585 718.88478181 1025.01376359 706.371018222 1025.01376359 694.956579055 c 0
 1025.01376359 685.631155805 1018.0394922 677.039492202 1005 664 c 0
 987 648 882 559 828 559 c 0
 813 559 800 567 800 582 c 0
 800 614 866 660 866 691 c 0
 866 713 815 730 801 730 c 0
 789 730 731 717 670 698 c 0
 512 650 395 592 293 480 c 0
 247 429 199 367 187 341 c 0
 180 328 177 313 177 299 c 0
 177 229 251 155 293 127 c 1
 367 86 471 70 584 70 c 0
 772 70 984 112 1121 147 c 0
 1194 165 1260 179 1287 179 c 0
EndSplineSet
EndChar

StartChar: d
Encoding: 100 100 43
Width: 1446
VWidth: -242
Flags: HW
LayerCount: 2
Fore
SplineSet
402 675 m 0
 293 675 210 581 171 491 c 0
 147 435 135 371 135 316 c 0
 135 214 176 115 238 80 c 0
 257 70 271 65 285 65 c 0
 298 65 313 69 334 77 c 0
 362 88 419 140 462 188 c 1
 538 280 l 1
 471 267 l 1
 452.067684483 263.946400723 438.263826665 262.291471728 428.221713407 262.291471728 c 0
 405.37767381 262.291471728 402 270.855437903 402 291 c 0
 402 312 420 334 447 347 c 0
 498 371 529 415 529 484 c 0
 529 497 527 510 525 525 c 0
 514 610 493 675 402 675 c 0
861 1152 m 0
 861 1200.11183631 854.858829732 1249.16846805 840.953066236 1249.16846805 c 0
 834.626730537 1249.16846805 826.693329633 1239.01504422 817 1214 c 0
 779 1106 701 815 677 678 c 0
 664 600 651 525 651 515 c 0
 651 504 661 493 674 493 c 0
 685 493 717 538 742 594 c 0
 813 751 861 918 861 1152 c 0
860 1438 m 0
 873 1438 895 1419 910 1394 c 0
 927 1370 933 1346 933 1270 c 0
 933 1230 932 1177 929 1102 c 0
 922 921 909 819 885 745 c 0
 867 688 820 577 782 501 c 0
 741 418 724 383 724 360 c 0
 724 346 731 336 740 322 c 0
 753 301 791 270 826 253 c 0
 862 235 892 228 945 228 c 0
 1037 228 1188 249 1239 267 c 0
 1275 280 1326 293 1353 294 c 0
 1380 294 1398 286 1398 273 c 0
 1398 262 1370 238 1339 223 c 0
 1265 188 1068 146 957 146 c 0
 839 146 773 172 703 224 c 2
 646 266 l 1
 528 140 l 2
 464 70 394 5 374 -3 c 0
 354 -13 313 -21 282 -21 c 0
 194 -21 93 70 69 140 c 0
 56 175 48 259 48 328 c 0
 49 406 59 476 77 515 c 0
 109 592 233 717 317 742 c 0
 351 750 395 759 419 759 c 0
 443 759 489 741 523 717 c 0
 549.903786814 698.009091661 574.303027798 686.531820812 584.802277048 686.531820812 c 0
 587.571586494 686.531820812 589.373863542 687.33030278 590 689 c 0
 593 696 610 760 625 833 c 0
 660 988 717 1244 790 1359 c 0
 817 1402 849 1438 860 1438 c 0
EndSplineSet
Substitution2: "ss01" d.ss01
EndChar

StartChar: e
Encoding: 101 101 44
Width: 1260
VWidth: -416
Flags: HW
LayerCount: 2
Fore
SplineSet
690 629 m 0
 690 692 647 717 579 717 c 0
 545 717 477 692 426 661 c 0
 378 629 299 561 251 507 c 0
 205 454 166 394 166 374 c 0
 166 343 183 335 248 335 c 0
 391 335 516 427 603 507 c 0
 651 553 690 607 690 629 c 0
946 62 m 0
 1015 62 1118 73 1169 73 c 0
 1203 73 1212 67 1212 55 c 0
 1212 24 1186 2 1152 -8 c 0
 1123 -16 1026 -24 931 -26 c 0
 724 -26 491 2 329 34 c 0
 246 53 205 75 144 138 c 0
 100 184 61 241 54 267 c 0
 50 279 48 298 48 318 c 0
 48 341 50 366 54 388 c 0
 76 502 323 710 428 763 c 0
 489 794 571 818 613 818 c 0
 705 818 790 748 790 661 c 0
 790 629 781 576 771 542 c 0
 742 462 499 295 412 264 c 0
 370 250 314 237 283 235 c 0
 251 235 227 228 227 218 c 0
 227 208 241 189 256 177 c 0
 270 165 326 139 380 124 c 0
 498 93 752 62 946 62 c 0
EndSplineSet
Substitution2: "ss02" e.ss02
Substitution2: "ss01" e.ss01
EndChar

StartChar: f
Encoding: 102 102 45
Width: 857
VWidth: -126
Flags: HW
LayerCount: 2
Fore
SplineSet
195 92 m 0
 195 64 250 34 277 34 c 0
 287 34 296 60 296 92 c 0
 296 127 286 150 275 150 c 0
 247 150 195 121 195 92 c 0
676 1313 m 2
 670 1359 l 1
 628 1301 l 1
 555 1209 482 1013 453 867 c 0
 443 822 430 774 430 745 c 0
 430 729 434 718 445 718 c 0
 450 718 456 720 464 725 c 0
 474 732 512 798 547 874 c 0
 582 950 626 1067 646 1138 c 0
 664 1201 676 1273 676 1305 c 0
 676 1308 676 1311 676 1313 c 2
704 1491 m 0
 763 1476 779 1431 779 1343 c 0
 779 1186 716 1006 663 879 c 0
 627 791 581 721 512 645 c 0
 436 564 411 522 403 469 c 0
 400.366703205 451.554408733 398.925230974 438.009334222 398.925230974 427.401849754 c 0
 398.925230974 405.78361781 404.912404087 396.366703205 419 391 c 0
 423.5 389.2 429.26 388.3 435.686 388.3 c 0
 450.68 388.3 469.3 393.2 484 403 c 0
 509 420 707 514 765 514 c 0
 782.12918845 514 809.261767279 500.708925389 809.261767279 484.973156851 c 0
 809.261767279 473.567080165 786.780263392 454.123788181 751 440 c 0
 674 408 500 328 445 273 c 0
 422 249 413 234 413 179 c 0
 413 78 432 -126 453 -182 c 0
 468 -223 480 -272 480 -293 c 0
 480 -317 463 -343 436 -360 c 0
 416.032121571 -373.136762124 404.900058521 -379.922781945 395.349185549 -379.922781945 c 0
 386.72420803 -379.922781945 379.388708361 -374.388708361 368 -363 c 0
 354 -348 335 -299 327 -256 c 0
 319 -211 299 -157 282 -133 c 0
 265 -109 207 -62 152 -24 c 0
 96.4882551364 13.7060908508 47.6177490061 54.7364462878 47.6177490061 77.6898628385 c 0
 47.6177490061 95.4093795664 61.8015151902 123.80151519 81 143 c 0
 102 164 154 207 197 235 c 2
 275 286 l 1
 285 421 l 2
 291 497 293 585 293 617 c 0
 292 649 317 768 349 883 c 0
 381 998 431 1148 460 1217 c 0
 495 1295 544 1372 593 1421 c 0
 643 1472 668 1493 691 1493 c 0
 695 1493 700 1492 704 1491 c 0
EndSplineSet
EndChar

StartChar: g
Encoding: 103 103 46
Width: 802
VWidth: -10
Flags: HW
LayerCount: 2
Fore
SplineSet
510 683 m 0
 510 710 501 725 489 725 c 0
 481 725 471 719 460 706 c 0
 401 640 356 507 356 374 c 0
 356 342 362 334 374 334 c 0
 388 334 425 362 456 397 c 0
 489 432 503 449 503 459 c 0
 503 466 495 470 482 474 c 0
 464 482 448 496 448 508 c 0
 448 518 461 553 478 587 c 0
 495 621 510 663 510 683 c 0
506 856 m 0
 577 856 602 804 602 725 c 0
 602 708 601 688 599 664 c 2
 591 551 l 1
 633 559 l 2
 641 561 647 561 653 561 c 0
 673 561 683 549 698 514 c 0
 733 442 754 298 754 174 c 0
 754 9 688 -219 612 -308 c 0
 570 -355 526 -380 453 -380 c 0
 406 -380 327 -363 309 -351 c 0
 244 -311 150 -224 101 -149 c 0
 72 -105 48 -50 48 -30 c 0
 48 -4 63 20 85 20 c 0
 114 20 125 -15 140 -50 c 0
 174 -131 247 -201 316 -254 c 0
 356 -283 394 -298 433 -298 c 0
 475 -298 503 -287 530 -258 c 0
 592 -200 635 -52 651 61 c 0
 657 97 660 129 660 162 c 0
 660 226 634 388 616 412 c 0
 612.557112298 417.852909094 608.877155081 420.860984012 604.47040612 420.860984012 c 0
 596.077582912 420.860984012 585.048491974 409.949893042 568 387 c 0
 550 362 511 318 485 292 c 0
 446 252 424 241 376 241 c 0
 336 241 304 251 282 271 c 0
 255 297 248 321 248 395 c 0
 248 538 319 686 391 773 c 0
 444 841 466 855 506 856 c 0
EndSplineSet
EndChar

StartChar: h
Encoding: 104 104 47
Width: 1020
VWidth: -298
Flags: HW
LayerCount: 2
Fore
SplineSet
972 106 m 0
 972 73 949 52 927 52 c 0
 912 52 886 89 867 137 c 0
 848 183 827 283 815 358 c 0
 803 433 786 513 774 542 c 0
 758 583 745 606 718 606 c 0
 704 606 685 600 660 586 c 0
 510 496 425 388 306 191 c 0
 218 40 167 -21 136 -24 c 0
 132 -25 128 -25 124 -25 c 0
 50 -25 48 87 48 205 c 0
 48 210 48 214 48 219 c 0
 53 443 109 848 131 1057 c 0
 141 1152 150 1278 150 1341 c 0
 150 1347 150 1352 150 1358 c 0
 150 1433 152 1480 193 1480 c 0
 203 1480 225 1458 244 1429 c 0
 260 1403 267 1379 267 1336 c 0
 267 1179 150 429 150 259 c 0
 150 233 159 212 167 212 c 0
 177 212 206 251 232 299 c 0
 307 432 426 568 560 656 c 0
 626 700 703 735 735 735 c 0
 825 735 856 659 883 577 c 1
 913 504 972 222 972 106 c 0
EndSplineSet
EndChar

StartChar: i
Encoding: 105 105 48
Width: 522
VWidth: -295
Flags: HW
LayerCount: 2
Fore
SplineSet
206 488 m 0
 235 488 244 459 244 430 c 0
 244 402 236 370 226 350 c 0
 210 315 166 167 166 103 c 0
 166 82 172 70 190 70 c 0
 201 70 217 75 239 85 c 0
 269 98 320 133 356 164 c 0
 392 195 434 221 448 221 c 0
 465 221 474 211 474 194 c 0
 474 180 443 139 406 103 c 0
 330 36 295 3 194 -15 c 0
 181 -17 172 -18 163 -18 c 0
 138 -18 123 -8 94 19 c 0
 60 50 48 74 48 110 c 0
 48 135 56 183 64 214 c 0
 72 245 102 320 131 381 c 0
 170 467 184 488 206 488 c 0
322 708 m 0
 322 683 312 647 300 647 c 0
 269 647 192 721 187 752 c 0
 185.119571083 758.957586994 184.229225781 766.091974634 184.229225781 773.090649535 c 0
 184.229225781 803.310477482 200.829329644 831 226 831 c 0
 273 831 322 757 322 708 c 0
EndSplineSet
Substitution2: "ss01" i.ss01
EndChar

StartChar: j
Encoding: 106 106 49
Width: 626
VWidth: -187
Flags: HW
LayerCount: 2
Fore
SplineSet
478 427 m 0
 498 427 515 404 530 377 c 0
 563 314 578 212 578 108 c 0
 578 -62 550 -220 467 -300 c 0
 404 -360 381 -380 269 -380 c 0
 195 -380 187 -377 123 -315 c 0
 89 -281 57 -238 53 -218 c 0
 50 -207 48 -195 48 -185 c 0
 48 -161 57 -143 79 -143 c 0
 91 -143 110 -167 124 -201 c 0
 150 -263 204 -312 283 -312 c 0
 359 -312 417 -254 448 -199 c 0
 475 -151 501 -4 501 88 c 0
 501 163 475 291 461 341 c 0
 456 357 452 374 452 390 c 0
 452 411 459 427 478 427 c 0
428 749 m 0
 428 773 461 820 476 820 c 0
 497 820 541 742 541 720 c 0
 541 687 517 664 482 664 c 0
 460 664 449 675 437 709 c 0
 431 726 428 739 428 749 c 0
EndSplineSet
EndChar

StartChar: k
Encoding: 107 107 50
Width: 1104
VWidth: -300
Flags: HW
LayerCount: 2
Fore
SplineSet
637 802 m 0
 666 802 706 764 706 731 c 0
 706 706 694 667 669 588 c 0
 642 500 629 431 629 369 c 0
 629 293 656 206 685 165 c 0
 720 120 740 109 814 109 c 0
 877 109 958 119 997 129 c 0
 1012.61980023 133.144028633 1024.27660662 135.458983186 1032.90978809 135.458983186 c 0
 1051.3592764 135.458983186 1056 124.886685534 1056 99 c 0
 1056 25 919 -10 847 -24 c 0
 832 -26 817 -27 803 -27 c 0
 699 -27 632 34 575 97 c 0
 544 135 514 187 507 218 c 0
 500 245 487 268 478 268 c 0
 469 268 417 221 359 162 c 0
 291 94 228 50 183 41 c 0
 170.428554213 38.3687671608 158.113530139 37.1905906959 146.479742183 37.1905906959 c 0
 118.320741739 37.1905906959 94.1528159129 44.093028861 80 54 c 0
 57 74 48 129 48 277 c 0
 48 502 129 1079 156 1272 c 0
 165 1344 184 1418 197 1436 c 0
 211 1454 231 1469 242 1469 c 0
 253 1469 271 1448 284 1425 c 0
 294 1408 299 1376 299 1338 c 0
 299 1319 298 1300 295 1280 c 0
 273 1134 176 543 176 367 c 0
 176 279 185 203 194 196 c 0
 195.384686142 195.118836092 197.070444668 194.697203717 199.021371112 194.697203717 c 0
 212.568679416 194.697203717 238.902297309 215.028177867 266 243 c 0
 336 319 507 583 545 687 c 0
 565 737 595 802 637 802 c 0
EndSplineSet
EndChar

StartChar: l
Encoding: 108 108 51
Width: 1120
VWidth: -148
Flags: HW
LayerCount: 2
Fore
SplineSet
623 1251 m 0
 619.452299936 1284.70315061 617.652679837 1299.1774216 611.399476301 1299.1774216 c 0
 607.077033491 1299.1774216 600.626633057 1292.26149968 590 1280 c 0
 575 1260 545 1221 524 1191 c 0
 498 1155 305 803 305 746 c 0
 305 731 314 718 324 718 c 0
 334 718 366 744 393 772 c 0
 467 852 546 973 590 1090 c 0
 609 1141 623 1204 623 1241 c 0
 623 1244 623 1248 623 1251 c 0
660 1504 m 0
 730 1504 732 1445 732 1335 c 0
 732 1163 689 1036 626 924 c 0
 572 830 406 622 302 592 c 1
 198 558 183 506 150 386 c 0
 137 338 131 305 131 275 c 0
 131 253 134 231 141 204 c 0
 169 105 217 81 335 69 c 0
 356 67 374 65 391 65 c 0
 435 65 473 75 539 102 c 0
 602 128 741 205 852 274 c 0
 959 339 1051 390 1067 390 c 0
 1078 390 1069 361 1061 348 c 0
 1051 332 978 273 902 216 c 0
 826 160 701 84 627 45 c 0
 505 -15 478 -22 356 -22 c 0
 242 -22 212 -16 156 22 c 0
 75 78 48 134 48 260 c 0
 48 365 62 439 105 558 c 0
 173 747 427 1258 539 1394 c 0
 589 1454 644 1504 660 1504 c 0
EndSplineSet
EndChar

StartChar: m
Encoding: 109 109 52
Width: 1708
VWidth: -306
Flags: HW
LayerCount: 2
Fore
SplineSet
477 16 m 0
 424 16 410 53 410 115 c 0
 410 246 446 561 446 605 c 0
 446 632.702926316 446 645.647157892 439.195763136 645.647157892 c 0
 433.228052629 645.647157892 422.026313765 635.69005668 401 617 c 0
 376 595 300 502 230 414 c 0
 162 322 97 248 84 248 c 0
 73 248 59 263 50 283 c 0
 48.56538455 287.098901286 47.8868137287 292.289867035 47.8868137287 298.323259424 c 0
 47.8868137287 321.728938476 58.0989012858 357.812637764 74 392 c 0
 128 502 307 721 399 797 c 0
 440 833 480 856 513 856 c 0
 568 856 609 779 609 707 c 0
 609 677 604 640 597 587 c 0
 584 506 574 407 574 367 c 0
 574 324 579 292 590 292 c 0
 599 292 622 326 644 371 c 0
 666 414 736 504 799 572 c 0
 875 653 903 681 927 681 c 0
 938 681 948 675 961 666 c 0
 999 643 1011 610 1015 515 c 0
 1019 450 1026 396 1035 396 c 0
 1044 396 1091 444 1141 502 c 0
 1191 561 1284 646 1343 693 c 0
 1404 738 1479 779 1508 788 c 0
 1518.6875 790.53125 1528.50488281 791.796875 1537.65237427 791.796875 c 0
 1561.02929688 791.796875 1580.03125 783.53125 1598 767 c 0
 1625 738 1632 684 1632 454 c 0
 1632 299 1641 144 1652 108 c 0
 1657.27043409 89.7930458811 1660.01564313 71.3565258492 1660.01564313 54.6702959253 c 0
 1660.01564313 36.5304515391 1656.77130517 20.4591318259 1650 9 c 0
 1639 -13 1625 -27 1616 -27 c 0
 1567 -27 1538 29 1524 92 c 0
 1511 137 1497 279 1488 407 c 1
 1474 641 l 1
 1326 491 l 2
 1243 408 1132 293 1080 232 c 0
 1010 151 970 121 927 121 c 0
 860 121 838 161 838 228 c 0
 838 263 850 342 850 371 c 0
 850 385 848 392 843 392 c 0
 838 392 831 386 821 378 c 0
 799 364 752 293 709 225 c 0
 669 157 608 81 579 58 c 0
 550 35 504 16 477 16 c 0
EndSplineSet
Substitution2: "ss01" m.ss01
EndChar

StartChar: n
Encoding: 110 110 53
Width: 1296
VWidth: -331
Flags: HW
LayerCount: 2
Fore
SplineSet
1225 522 m 0
 1225 469 1218 416 1218 358 c 0
 1218 286 1223 206 1233 150 c 0
 1243 92 1248 56 1248 33 c 0
 1248 7 1243 -3 1230 -10 c 0
 1213 -22 1190 -27 1178 -25 c 0
 1168 -22 1141 30 1119 84 c 0
 1061 238 1068 600 1051 600 c 0
 1048 600 1004 573 956 541 c 0
 828 451 759 367 679 216 c 0
 642 148 601 90 584 82 c 0
 575.44685427 78.8488410469 564.056622041 77.3188743791 552.109943752 77.3188743791 c 0
 537.51821212 77.3188743791 522.096357576 79.6013245178 510 84 c 0
 486.984845005 91.192235936 478.453602182 99.9363196047 478.453602182 127.718217221 c 0
 478.453602182 138.563942313 479.753788749 152.311086397 482 170 c 0
 494 255 556 505 556 597 c 0
 556 638 548 662 529 662 c 0
 515 662 461 624 410 582 c 0
 361 538 281 451 233 390 c 0
 170 308 131 276 97 276 c 0
 60 276 48 286 48 315 c 0
 48 339 94 417 148 490 c 0
 202 563 290 655 339 696 c 0
 390 737 471 787 519 806 c 0
 568 826 616 844 626 844 c 0
 626.568106761 844.113621352 627.194307675 844.169148552 627.873835544 844.169148552 c 0
 639.15557824 844.169148552 665.136213523 828.863786477 684 810 c 0
 711 786 720 750 720 668 c 0
 720 608 724 560 731 560 c 0
 738 560 779 587 820 619 c 0
 861 651 942 702 1003 733 c 0
 1061 763 1097 778 1121 778 c 0
 1131 778 1139 775 1146 770 c 0
 1165 760 1190 712 1204 670 c 0
 1217 632 1225 583 1225 522 c 0
EndSplineSet
Substitution2: "ss01" n.ss01
EndChar

StartChar: o
Encoding: 111 111 54
Width: 1181
VWidth: -547
Flags: HW
LayerCount: 2
Fore
SplineSet
410 664 m 0
 409.710928294 664.072267926 409.385298016 664.107977281 409.02452453 664.107977281 c 0
 399.400965976 664.107977281 364.771445251 638.699177325 332 604 c 0
 248 526 240 424 234 268 c 2
 230 146 l 1
 322 150 l 2
 506 158 558 320 590 478 c 0
 593 490 594 501 594 510 c 0
 594 543 575 562 514 598 c 0
 466 630 418 660 410 664 c 0
448 838 m 0
 562 838 702 792 762 726 c 0
 794 692 868 658 948 642 c 0
 1019 626 1133 598 1133 545 c 0
 1133 539 1132 531 1128 524 c 0
 1118 510 1054 498 986 498 c 0
 816 498 758 454 724 322 c 0
 690 192 524 28 394 -10 c 0
 351 -24 315 -30 282 -30 c 0
 216 -30 166 -4 114 40 c 1
 58 82 48 108 48 214 c 0
 48 462 128 706 290 792 c 0
 336 818 406 838 448 838 c 0
EndSplineSet
Substitution2: "ss01" o.ss01
EndChar

StartChar: p
Encoding: 112 112 55
Width: 847
VWidth: -143
Flags: HW
LayerCount: 2
Fore
SplineSet
637 564 m 0
 637 615 602 632 558 632 c 0
 504 632 437 605 410 583 c 0
 388 563 358 521 340 490 c 0
 328 465 322 447 322 435 c 0
 322 405 356 405 430 405 c 0
 498 405 538 419 581 459 c 0
 612 488 637 535 637 564 c 0
188 886 m 0
 235 886 266 832 266 776 c 0
 266 721 274 700 295 700 c 0
 313 700 339 715 377 736 c 0
 426 763 462 775 518 775 c 0
 603 775 698 748 741 717 c 0
 786 682 799 659 799 596 c 0
 799 591 799 587 799 582 c 0
 799 454 721 380 635 330 c 0
 581 298 521 285 415 285 c 0
 289 285 266 279 255 241 c 0
 239 180 223 -241 210 -308 c 0
 201 -369 190 -380 138 -380 c 0
 100 -380 70 -365 61 -345 c 0
 54 -325 48 -257 48 -189 c 0
 48 -121 59 5 70 88 c 0
 81 173 100 380 113 547 c 0
 126 714 145 859 149 868 c 0
 156 879 174 886 188 886 c 0
EndSplineSet
EndChar

StartChar: q
Encoding: 113 113 56
Width: 737
VWidth: -75
Flags: HW
LayerCount: 2
Fore
SplineSet
483 574 m 0
 483 618 466 733 446 733 c 0
 436 733 404 720 377 703 c 0
 313 665 223 562 191 495 c 0
 178.354890472 472.583669472 172.317169166 457.105096579 172.317169166 444.766501874 c 0
 172.317169166 435.638372001 175.621665588 428.228779001 182 421 c 0
 202 398 227 389 253 389 c 0
 325 389 407 458 441 494 c 0
 473 527 483 540 483 574 c 0
686 -271 m 0
 686 -315 641 -380 605 -380 c 0
 588 -380 568 -370 558 -359 c 0
 550 -349 537 -266 531 -178 c 0
 528 -130 505 396 492 396 c 0
 486 396 461 378 433 354 c 0
 388 318 330 285 258 285 c 0
 236 285 212 288 187 295 c 0
 110 315 48 348 48 435 c 0
 48 470 68 521 100 570 c 0
 150 648 312 818 404 847 c 0
 443 859 455 866 467 866 c 0
 479 866 491 859 532 843 c 0
 564 829 613 817 640 817 c 0
 682 817 689 812 689 773 c 0
 689 746 679 663 665 589 c 0
 644 476 624 336 624 201 c 0
 624 64 656 -74 675 -188 c 0
 682 -226 686 -252 686 -271 c 0
EndSplineSet
EndChar

StartChar: r
Encoding: 114 114 57
Width: 1130
VWidth: -369
Flags: HW
LayerCount: 2
Fore
SplineSet
242 64 m 0
 242 158 285 431 285 523 c 0
 285 549 283 567 279 578 c 0
 269 605 237 663 200 663 c 0
 191 663 182 660 172 651 c 0
 158 641 138 636 118 636 c 0
 86 636 54 649 48 677 c 0
 47.7585556275 678.690110608 47.64017929 680.483857455 47.64017929 682.36768675 c 0
 47.64017929 703.890855205 63.092517895 737.172999353 87 762 c 0
 115 792 134 803 168 803 c 0
 228 803 293 777 322 750 c 0
 344 728 375 709 388 709 c 0
 399 709 416 723 426 741 c 0
 436 759 451 766 467 766 c 0
 508 766 559 721 575 690 c 0
 597 645 620 632 660 632 c 0
 689 632 753 659 799 694 c 0
 845 726 913 780 948 810 c 0
 983 839 1022 864 1040 864 c 0
 1056 864 1073 851 1079 835 c 0
 1081 831 1081.9375 825.9375 1081.9375 820.1875 c 0
 1081.9375 802.9375 1073.5 779.5 1060 760 c 0
 1026 702 783 519 706 506 c 0
 685 503 663 501 640 501 c 0
 584 501 526 509 490 518 c 0
 489 518 487 519 486 519 c 0
 419 519 398 90 381 21 c 0
 375 -14 361 -24 316 -24 c 0
 258 -24 242 2 242 64 c 0
EndSplineSet
Substitution2: "ss01" r.ss01
EndChar

StartChar: s
Encoding: 115 115 58
Width: 733
VWidth: -353
Flags: HW
LayerCount: 2
Fore
SplineSet
581 689 m 0
 565 689 539 690 520 690 c 0
 468 690 419 681 383 661 c 0
 348 644 310 614 310 594 c 0
 310 572 347 543 448 494 c 0
 526 456 613 400 637 370 c 0
 669 332 685 290 685 245 c 0
 685 63 520 -24 330 -24 c 0
 205 -24 102 0 59 69 c 0
 52 85 48 99 48 111 c 0
 48 132 60 146 88 146 c 0
 102 146 150 128 192 106 c 0
 232 85 275 76 318 76 c 0
 380 76 441 95 491 126 c 0
 541 156 552 176 552 229 c 0
 552 279 539 302 501 331 c 0
 443 368 239 458 189 501 c 0
 170 519 155 549 155 570 c 0
 161 644 226 689 285 731 c 1
 347 781 447 821 538 827 c 0
 591 827 644 790 644 738 c 0
 644 699 633 689 581 689 c 0
EndSplineSet
Substitution2: "ss01" s.ss01
EndChar

StartChar: t
Encoding: 116 116 59
Width: 680
VWidth: -587
Flags: HW
LayerCount: 2
Fore
SplineSet
334 828 m 0
 334 772 366 750 422 750 c 0
 484 750 514 741 514 728 c 0
 514 715 482 698 420 682 c 0
 268 645 237 565 237 378 c 0
 237 151 294 48 521 48 c 0
 600 47 632 45 632 35 c 0
 632 29 622 22 605 9 c 0
 576 -13 497 -33 433 -33 c 0
 308 -33 174 13 143 99 c 0
 134 125 125 242 123 356 c 0
 121 488 107 574 83 594 c 0
 63 609 48 634 48 649 c 0
 48 664 72 706 105 739 c 0
 140 776 178 887 213 1063 c 0
 242 1210 281 1371 294 1419 c 0
 314.396347163 1476.48061473 334.792694325 1500.43968375 360.767152894 1500.43968375 c 0
 362.809382017 1500.43968375 364.886093987 1500.29157324 367 1500 c 0
 399 1492 409 1468 409 1395 c 0
 409 1387 409 1380 409 1371 c 0
 409 1303 389 1160 367 1052 c 0
 347 965 334 874 334 828 c 0
EndSplineSet
Substitution2: "ss01" t.ss01
EndChar

StartChar: u
Encoding: 117 117 60
Width: 882
VWidth: -454
Flags: HW
LayerCount: 2
Fore
SplineSet
834 122 m 0
 834 105 805 68 772 68 c 0
 747 68 710 81 658 110 c 2
 551 169 l 1
 472 70 l 1
 400 -16 375 -28 299 -28 c 0
 95 -28 48 70 48 264 c 0
 48 417 76 589 116 705 c 0
 144 789 177 851 196 851 c 0
 233 851 246 835 246 808 c 0
 246 775 226 727 207 673 c 0
 176 589 140 418 140 280 c 0
 140 214 148 156 169 118 c 0
 192 67 233 23 287 23 c 0
 305 23 325 28 346 40 c 0
 374 53 424 131 462 207 c 0
 500 283 552 437 580 543 c 0
 608 651 646 744 663 752 c 0
 670.737801573 755.174482697 678.121321648 756.656287124 684.986547237 756.656287124 c 0
 712.723371785 756.656287124 732 732.468577753 732 698 c 0
 732 666 723 616 705 540 c 0
 687 457 675 370 675 314 c 0
 675 301 676 288 677 279 c 0
 694 192 703 156 783 148 c 0
 811 148 834 135 834 122 c 0
EndSplineSet
EndChar

StartChar: v
Encoding: 118 118 61
Width: 1108
VWidth: -530
Flags: HW
LayerCount: 2
Fore
SplineSet
1023 692 m 0
 1045 692 1060 689 1060 673 c 0
 1060 634 910 590 852 576 c 0
 708 548 655 526 630 399 c 1
 611 274 513 74 426 19 c 0
 384 -6 316 -28 276 -28 c 0
 162 -28 107 78 79 182 c 0
 62 241 48 387 48 509 c 0
 48 519 48 529 48 539 c 0
 48 665 59 751 77 783 c 0
 92.4865922826 810.329280499 117.931712199 828.529910666 132.167406801 828.529910666 c 0
 133.558572118 828.529910666 134.842688216 828.356095934 136 828 c 0
 155 824 162 734 164 542 c 0
 164 335 178 237 208 165 c 0
 239 94 263 56 297 56 c 0
 322 56 352 76 394 118 c 0
 453 177 481 240 519 382 c 0
 547 485 571 593 571 618 c 0
 571 669 584 741 632 741 c 0
 651 741 675 720 692 695 c 0
 709 670 746 648 774 648 c 0
 804 648 873 659 932 676 c 0
 966 686 999 692 1023 692 c 0
EndSplineSet
EndChar

StartChar: w
Encoding: 119 119 62
Width: 1207
VWidth: -259
Flags: HW
LayerCount: 2
Fore
SplineSet
987 746 m 0
 1032 746 1159 711 1159 681 c 0
 1159 667 1138 651 1111 643 c 0
 1084 637 1053 614 1043 595 c 0
 1033 576 1014 495 1003 417 c 0
 992 339 967 227 951 168 c 0
 921 69 892 -13 790 -13 c 0
 739 -13 630 46 630 96 c 0
 630 113 604 153 578 153 c 0
 562 153 543 138 507 99 c 0
 451 38 374 -24 274 -24 c 0
 262 -24 249 -23 236 -21 c 0
 126 -3 91 28 62 145 c 0
 52 186 48 238 48 294 c 0
 48 418 68 560 83 644 c 0
 94 698 109 761 119 787 c 0
 129 811 148 830 159 830 c 0
 175 830 195 809 195 781 c 0
 195 743 185 662 169 579 c 0
 148 467 132 339 132 268 c 0
 132 158 156 37 245 37 c 0
 270 37 299 47 335 65 c 0
 434 115 455 171 500 280 c 0
 519 330 545 416 556 475 c 0
 570 560 581 635 643 635 c 0
 664 635 670 593 670 443 c 0
 670 281 678 235 715 163 c 0
 742 108 763 71 785 71 c 0
 801 71 818 91 838 139 c 0
 872 219 943 544 943 654 c 0
 943 724 952 746 987 746 c 0
EndSplineSet
EndChar

StartChar: x
Encoding: 120 120 63
Width: 1048
VWidth: -251
Flags: HW
LayerCount: 2
Fore
SplineSet
219 802 m 0
 219 826 237 838 264 838 c 0
 283 838 303 821 309 795 c 0
 327 720 344 559 363 482 c 0
 374 436 395 408 413 408 c 0
 431 408 522 459 618 526 c 0
 714 590 830 680 880 723 c 0
 925 764 974 794 990 794 c 0
 997.217620188 794 1000.59465889 791.144182998 1000.59465889 786.08150889 c 0
 1000.59465889 775.011233156 984.447617064 753.389045784 957 728 c 0
 922 694 805 601 701 523 c 0
 595 445 496 368 485 350 c 0
 471 334 461 302 461 278 c 0
 461 251 488 217 539 182 c 0
 594 143 614 132 690 132 c 0
 742 132 856 140 913 140 c 0
 960 140 990 137 990 131 c 0
 990 123 957 106 917 96 c 0
 875 85 805 74 760 74 c 0
 634 74 496 130 424 194 c 0
 387 226 366 240 347 240 c 0
 340 240 333 238 325 234 c 0
 306 223 240 160 179 93 c 0
 118 29 65 -24 59 -24 c 0
 51 -24 48 -7 48 14 c 0
 48 38 106 115 176 192 c 0
 271 293 294 323 294 363 c 0
 294 372 293 381 291 392 c 0
 278 448 219 720 219 802 c 0
EndSplineSet
EndChar

StartChar: y
Encoding: 121 121 64
Width: 611
VWidth: 24
Flags: HW
LayerCount: 2
Fore
SplineSet
135 692 m 0
 135 633 172 523 226 523 c 0
 234 523 244 524 257 526 c 0
 352 543 437 654 476 741 c 0
 499 793 524 823 541 823 c 0
 557 823 563 816 563 776 c 0
 563 669 544 533 524 434 c 0
 510 364 468 202 433 72 c 0
 389 -87 349 -189 318 -238 c 0
 272 -306 190 -380 96 -380 c 2
 48 -380 l 1
 87 -363 l 2
 160 -332 197 -318 248 -248 c 0
 318 -148 385 99 420 243 c 0
 426 272 466 465 466 540 c 0
 466 558 464 569 458 569 c 0
 450 569 419 551 389 529 c 0
 359 507 313 490 287 490 c 0
 217 490 135 539 108 586 c 0
 95 606 89 626 89 653 c 0
 89 686.313451092 102.589216617 767.64213423 118.557843867 767.64213423 c 0
 119.366282199 767.64213423 120.180819102 767.433684005 121 767 c 0
 129 761 135 728 135 692 c 0
EndSplineSet
EndChar

StartChar: z
Encoding: 122 122 65
Width: 792
VWidth: -379
Flags: HW
LayerCount: 2
Fore
SplineSet
168 300 m 0
 142 300 95 293 75 293 c 0
 55 293 48 298 48 309 c 0
 48 355 72 358 181 366 c 0
 279 374 313 385 335 412 c 0
 359 446 452 622 452 678 c 0
 452 728 440 771 388 771 c 0
 364 771 308 738 260 694 c 0
 214 650 152 572 122 516 c 0
 92 460 78 438 69 438 c 0
 60 438 53 463 53 478 c 0
 53 504 63 540 83 579 c 0
 125 667 256 798 349 825 c 0
 381 834 413 843 422 843 c 0
 422.486326779 843.097265356 423.015226031 843.144862827 423.58416725 843.144862827 c 0
 434.713969414 843.144862827 461.16718427 824.930081086 484 804 c 0
 511 778 526 744 526 705 c 0
 526 672 509 599 487 543 c 0
 471 495 458 451 458 432 c 0
 458 419 468 419 489 419 c 0
 539 419 628 440 687 440 c 0
 719 440 744 435 744 422 c 0
 744 415 737 406 721 394 c 0
 701 379 656 366 623 366 c 0
 494 366 401 330 332 250 c 0
 298 210 263 146 257 112 c 0
 253.608269402 94.2586399489 251.646009605 80.3292020348 251.646009605 69.4302623983 c 0
 251.646009605 38.5551839693 267.393238868 32 311 32 c 0
 410 32 512 62 587 92 c 0
 627 111 663 122 678 122 c 0
 692 122 692 102 685 86 c 0
 667 40 409 -19 341 -22 c 0
 251 -22 180 -19 164 44 c 0
 163 48 163 53 163 58 c 0
 163 86 177 129 202 177 c 0
 224 221 235 251 235 270 c 0
 235 298 207 300 168 300 c 0
EndSplineSet
EndChar

StartChar: adieresis
Encoding: 228 228 66
Width: 676
VWidth: -286
Flags: HW
LayerCount: 2
Fore
SplineSet
280 443 m 0
 266 443 225 419 193 389 c 0
 134 336 105 283 105 191 c 0
 105 120 113 80 150 53 c 0
 170 38 183 30 202 30 c 0
 315 30 411 135 411 249 c 0
 411 304 354 388 330 417 c 0
 318 430 297 443 280 443 c 0
586 43 m 0
 542 43 457 81 428 81 c 0
 402 81 377 71 334 42 c 0
 290 13 234 -18 180 -18 c 0
 159 -18 140 -14 120 -3 c 0
 67 27 48 65 48 144 c 0
 48 327 121 416 246 473 c 0
 278 490 311 501 317 501 c 0
 360 501 389 460 408 413 c 0
 421 381 439 353 446 353 c 0
 464 353 533 437 561 437 c 0
 573.567972673 437 578.260125767 422.123451907 578.260125767 401.053082497 c 0
 578.260125767 390.269705148 577.031166524 377.864054655 575 365 c 0
 569 334 547 279 527 247 c 0
 508 217 494 179 494 159 c 0
 494 130 517 116 570 98 c 0
 612 84 628 77 628 69 c 0
 628 55 600 43 586 43 c 0
502 638 m 0
 466 638 437 695 437 740 c 0
 437 763.638345901 450.410513526 795.322999917 463.706106661 795.322999917 c 0
 464.471980846 795.322999917 465.237473704 795.217864656 466 795 c 0
 479 791 511 685 511 651 c 0
 511 642 508 638 502 638 c 0
295 830 m 0
 299 830 288 794 288 779 c 0
 288 759 294 733 304 714 c 0
 313.772373998 693.478014604 319.008531552 681.789713862 319.008531552 674.268823708 c 0
 319.008531552 666.397568299 313.273151202 663.091050401 301 659 c 0
 297 658 294 657 290 657 c 0
 258 657 229 704 229 740 c 0
 229 768 250 798 265 810 c 0
 278 821 293 830 295 830 c 0
EndSplineSet
EndChar

StartChar: odieresis
Encoding: 246 246 67
Width: 745
VWidth: -340
Flags: HW
LayerCount: 2
Fore
SplineSet
320 281 m 0
 320 294 327 331 327 347 c 0
 327 368 321 380 306 390 c 0
 289 402 275 410 270 409 c 0
 265 409 247 402 229 394 c 0
 181 370 125 214 114 150 c 0
 112 136 111 125 111 115 c 0
 111 83 141 29 171 29 c 0
 181 29 192 33 211 40 c 0
 285 64 312 100 362 156 c 0
 385 184 402 218 402 235 c 0
 402 255 391 263 359 263 c 0
 329 263 320 263 320 281 c 0
438 402 m 0
 447 402 457 405 465 405 c 0
 482 405 494 395 510 365 c 0
 527 334 536 323 558 323 c 0
 592 323 641 338 667 346 c 0
 693 353 701 352 695 335 c 0
 683 304 555 263 517 256 c 0
 487 250 468 231 445 185 c 0
 409 115 318 16 239 -4 c 0
 211 -11 175 -18 162 -18 c 0
 118 -18 63 13 52 53 c 0
 50 63 48 79 48 99 c 0
 48 119 50 142 52 163 c 0
 69 282 152 463 276 463 c 0
 307 463 340 452 376 426 c 0
 397 410 419 402 438 402 c 0
320 683 m 1
 316.458333333 683 313.026041667 682.998263889 309.700159144 682.998263889 c 0
 233.204861111 682.998263889 213 683.916666667 213 728 c 0
 213 771 242 826 272 826 c 0
 280 826 289 813 294 796 c 0
 297.729240081 782.148536842 300.323195951 775.676421054 307.98128342 775.676421054 c 0
 314.697870448 775.676421054 325.30994332 780.65497166 344 790 c 0
 364 800 379 805 390 805 c 0
 411 805 418 785 418 739 c 2
 418 685 l 1
 320 683 l 1
EndSplineSet
EndChar

StartChar: udieresis
Encoding: 252 252 68
Width: 637
VWidth: -294
Flags: HW
LayerCount: 2
Fore
SplineSet
589 84 m 0
 589 64 544 45 516 45 c 0
 475 45 431 65 408 83 c 0
 389 98 366 109 355 109 c 0
 344 109 319 91 296 68 c 0
 263 31 195 -16 136 -16 c 0
 106 -16 77 -4 58 29 c 0
 52 42 48 66 48 91 c 0
 48 99 49 108 50 116 c 0
 65 200 121 381 163 440 c 0
 182 469 192 482 199 482 c 0
 213.137096449 482 218.969864809 452.658040751 218.969864809 427.752105221 c 0
 218.969864809 419.184917273 218.279711461 411.142615011 217 405 c 0
 208 355 113 165 113 107 c 0
 113 62 121 40 146 40 c 0
 158 40 174 45 195 55 c 0
 257 87 336 179 366 238 c 0
 378 269 436 444 464 456 c 0
 469.940611236 458.253335296 475.251777849 459.289744322 479.942095899 459.289744322 c 0
 498.148280925 459.289744322 507 443.673934754 507 423 c 0
 507 410 492 355 473 307 c 0
 454 256 440 196 440 171 c 0
 440 121 474 86 522 86 c 0
 533.489361702 86 557.608872793 92.1113626075 573.553894609 92.1113626075 c 0
 582.589406971 92.1113626075 589 90.1489361702 589 84 c 0
452 654 m 0
 431.339327859 654 423.907892494 687.514066502 423.907892494 713.957589618 c 0
 423.907892494 715.671790731 423.939121461 717.356279446 424 719 c 0
 424 751 442 816 466 816 c 0
 474 816 481 787 481 752 c 0
 481 717 474 654 452 654 c 0
328 827 m 0
 344 825 354 802 360 754 c 0
 363 729 366 709 366 695 c 0
 366 675 358 666 331 666 c 0
 306 666 280 697 280 725 c 0
 280 745 290 764 297 792 c 0
 303 820 312 829 328 827 c 0
EndSplineSet
EndChar

StartChar: germandbls
Encoding: 223 223 69
Width: 1204
VWidth: -349
Flags: HW
LayerCount: 2
Fore
SplineSet
296 461 m 0
 296 539 291 562 260 562 c 0
 237 562 196 541 151 508 c 0
 107 472 64 443 56 443 c 0
 49 443 46 464 49 491 c 0
 52 520 97 566 175 617 c 0
 285 690 296 703 308 795 c 0
 325 939 420 1218 490 1317 c 1
 556 1419 642 1487 758 1528 c 0
 791 1540 854 1547 916 1547 c 0
 1053 1547 1115 1533 1115 1400 c 0
 1115 1349 1099 1288 1073 1251 c 0
 1049 1217 1030 1168 1030 1142 c 0
 1030 1116 1059 1048 1093 994 c 0
 1129 940 1156 867 1156 831 c 0
 1156 710 1029 578 947 515 c 0
 896 476 845 443 830 443 c 0
 813 443 801 452 801 462 c 0
 801 472 848 528 908 584 c 0
 968 638 1029 712 1046 746 c 0
 1062 777 1069 806 1069 834 c 0
 1069 897 1032 953 989 1011 c 0
 955 1059 927 1115 927 1132 c 0
 927 1149 952 1213 981 1274 c 0
 1008 1330 1022 1379 1022 1409 c 0
 1022 1463 994 1470 916 1470 c 0
 766 1470 726 1439 636 1349 c 0
 522 1235 472 1111 435 912 c 0
 418 820 398 550 391 307 c 0
 383 66 371 -186 364 -249 c 0
 352 -349 343 -364 299 -371 c 2
 248 -380 l 1
 262 -182 l 1
 274 -28 296 281 296 461 c 0
EndSplineSet
EndChar

StartChar: one
Encoding: 49 49 70
Width: 1391
VWidth: -883
Flags: HW
LayerCount: 2
Fore
SplineSet
1285 1466 m 0
 1313 1466 1343 1422 1343 1377 c 0
 1343 1322 1304 1126 1252 923 c 0
 1197 710 1147 452 1138 355 c 0
 1135 323 1134 291 1134 260 c 0
 1134 189 1140 125 1151 93 c 0
 1159 69 1163 48 1163 29 c 0
 1163 -8 1147 -33 1116 -33 c 0
 1103 -33 1087 -29 1069 -19 c 0
 1027 3 1021 40 1021 190 c 0
 1021 399 1127 828 1149 1004 c 0
 1151.80431115 1023.31858789 1153.05520777 1041.66629171 1153.05520777 1057.77253631 c 0
 1153.05520777 1093.35677605 1146.94932834 1118 1138 1118 c 0
 1125 1118 1040 1035 948 934 c 0
 856 831 691 676 577 590 c 0
 436 484 334 425 255 412 c 0
 227 407 201 404 176 404 c 0
 140 404 108 410 90 419 c 0
 66.3337296891 430.833135155 48.4672322377 452.60873807 48.4672322377 467.73506243 c 0
 48.4672322377 469.226668491 48.6409646632 470.653617487 49 472 c 0
 53 485 115 503 185 505 c 0
 271 507 346 535 427 590 c 0
 574 689 1078 1185 1168 1343 c 0
 1216 1423 1255 1466 1285 1466 c 0
EndSplineSet
EndChar

StartChar: two
Encoding: 50 50 71
Width: 1400
VWidth: -546
Flags: HW
LayerCount: 2
Fore
SplineSet
216 1346 m 1
 293 1397 440 1457 571 1457 c 0
 641 1457 706 1440 754 1396 c 0
 812 1343 834 1264 834 1176 c 0
 834 1017 763 831 710 720 c 0
 612 530 520 414 388 264 c 0
 336 204 294 140 294 120 c 0
 294 100 317 91 427 91 c 0
 598 91 1201 122 1266 132 c 0
 1291.54538311 136.142494559 1310.65566829 138.378293432 1324.31816509 138.378293432 c 0
 1344.02636297 138.378293432 1352.39871554 133.726007327 1352.39871554 123.433604204 c 0
 1352.39871554 120.192115823 1351.56828585 116.391200371 1350 112 c 0
 1342 88 1258 70 1058 50 c 0
 902 36 630 8 450 -12 c 0
 321 -24 240 -30 187 -30 c 0
 129 -30 104 -23 86 -8 c 0
 77 0 71 6 71 16 c 0
 71 43 111 89 228 210 c 0
 426 416 548 552 654 796 c 0
 705 919 737 1039 737 1182 c 0
 737 1313 701 1391 581 1391 c 0
 551 1391 515 1386 474 1376 c 0
 308 1332 222 1256 144 1116 c 0
 112 1054 78 1002 68 1002 c 0
 56 1002 48 1032 48 1066 c 0
 48 1172 152 1294 216 1346 c 1
EndSplineSet
EndChar

StartChar: three
Encoding: 51 51 72
Width: 849
VWidth: -512
Flags: HW
LayerCount: 2
Fore
SplineSet
405 1479 m 0
 412 1479 418 1479 425 1479 c 0
 543 1479 635 1419 700 1351 c 0
 743 1306 756 1286 756 1238 c 0
 756 1045 659 860 571 753 c 0
 537 717 513 674 513 661 c 0
 513 648 522 638 535 638 c 0
 546 638 598 600 648 555 c 0
 697 510 753 447 771 413 c 0
 789 377 801 318 801 278 c 0
 801 168 722 64 643 24 c 0
 591 -5 432 -27 309 -27 c 0
 230 -27 177 -18 177 -7 c 0
 177 3 216 13 312 22 c 0
 398 29 511 56 567 78 c 0
 673 127 713 163 713 296 c 0
 713 426 621 525 524 568 c 0
 475 593 410 620 376 627 c 0
 340 634 313 649 313 660 c 0
 313 671 351 702 400 724 c 0
 503 778 605 908 655 1009 c 0
 675 1049 691 1130 691 1189 c 0
 691 1275 681 1306 634 1351 c 0
 589 1392 552 1403 457 1403 c 0
 371 1403 323 1390 276 1356 c 0
 213 1309 146 1196 124 1117 c 0
 119.001901106 1098.11829307 114.312209528 1089.10562023 106.162935736 1089.10562023 c 0
 99.6379372314 1089.10562023 90.8950146759 1094.88360804 78 1106 c 0
 57 1123 48 1145 48 1169 c 0
 48 1234 112 1313 153 1354 c 0
 198 1403 256 1450 281 1459 c 0
 306 1470 360 1479 405 1479 c 0
EndSplineSet
EndChar

StartChar: four
Encoding: 52 52 73
Width: 1159
VWidth: -559
Flags: HW
LayerCount: 2
Fore
SplineSet
578 543 m 0
 578 549.324324324 578.078889701 554.780861943 578.078889701 559.484749176 c 0
 578.078889701 583.788166545 575.972972973 588 550 588 c 0
 524 588 481 581 434 568 c 0
 366 551 271 537 225 537 c 0
 142 537 48 573 48 648 c 0
 48 674 92 768 148 862 c 0
 284 1093 327 1144 502 1345 c 0
 577 1427 650 1496 665 1496 c 0
 682 1496 694 1476 694 1450 c 0
 694 1419 623 1329 490 1190 c 0
 362 1057 261 930 215 842 c 0
 174 764 157 724 157 697 c 0
 157 686 159 677 165 668 c 0
 186 633 218 621 259 621 c 0
 340 621 561 681 592 716 c 0
 628 757 655 896 663 969 c 0
 667 1008 675 1070 705 1070 c 0
 733 1070 734 1032 734 970 c 0
 734 950 733 927 731 903 c 1
 726 755 l 1
 913 755 l 2
 1014 755 1111 747 1111 732 c 0
 1111 721 1059 710 976 702 c 0
 896 695 805 678 774 666 c 0
 745 654 715 634 708 624 c 0
 686 578 631 270 631 197 c 0
 631 153 646 91 663 60 c 0
 675 35 683 16 683 3 c 0
 683 -18 665 -26 621 -26 c 0
 594 -26 563 -12 548 5 c 0
 540 15 535 32 535 66 c 0
 535 110 543 181 558 299 c 0
 571 404 578 494 578 543 c 0
EndSplineSet
EndChar

StartChar: five
Encoding: 53 53 74
Width: 1501
VWidth: -431
Flags: HW
LayerCount: 2
Fore
SplineSet
48 446 m 0
 48 503 66 541 107 541 c 0
 133 541 136 506 136 463 c 0
 136 453 135 442 135 431 c 0
 135 292 204 209 295 135 c 0
 359 83 426 43 508 43 c 0
 540 43 574 49 612 63 c 0
 656 76 726 127 766 171 c 0
 819 234 835 272 835 348 c 0
 835 401 819 470 800 500 c 0
 779 528 715 578 654 610 c 0
 492 703 303 772 303 1011 c 0
 303 1150 445 1345 521 1425 c 0
 559 1465 601 1499 618 1499 c 0
 631 1499 658 1480 675 1452 c 0
 694 1425 706 1413 759 1413 c 0
 794 1413 847 1418 933 1427 c 0
 1058 1440 1220 1454 1296 1454 c 0
 1376 1454 1453 1446 1453 1421 c 0
 1453 1376 1275 1358 1182 1351 c 0
 1020 1336 578 1286 494 1214 c 0
 444 1173 403 1104 403 1018 c 0
 403 996 405 973 411 950 c 0
 430 872 458 844 669 705 c 0
 882 561 907 537 930 450 c 0
 937 421 940 392 940 364 c 0
 940 262 898 167 852 112 c 0
 797 53 637 -28 531 -28 c 0
 493 -28 426 -13 384 8 c 0
 285 52 126 186 82 289 c 0
 63 335 48 404 48 446 c 0
EndSplineSet
EndChar

StartChar: six
Encoding: 54 54 75
Width: 959
VWidth: -497
Flags: HW
LayerCount: 2
Fore
SplineSet
373 -25 m 0
 165 -25 48 82 48 289 c 0
 48 444 104 638 146 727 c 0
 260 975 420 1189 597 1373 c 0
 641 1421 692 1458 711 1458 c 0
 733 1458 745 1442 745 1415 c 0
 745 1340 549 1080 503 1048 c 0
 319 929 189 678 158 389 c 0
 151 322 148 275 148 242 c 0
 148 192 156 170 173 142 c 0
 217 79 275 52 373 52 c 0
 550 52 660 114 753 207 c 0
 811 263 828 295 828 351 c 0
 828 439 741 521 668 538 c 0
 655 542 635 544 612 544 c 0
 586 544 557 542 532 538 c 0
 483 530 410 497 362 458 c 0
 316 422 275 385 272 377 c 0
 269 369 246 360 224 360 c 0
 204 360 185 368 185 380 c 0
 185 390 233 438 291 484 c 0
 347 530 432 579 476 591 c 0
 512 602 547 607 582 607 c 0
 676 607 764 571 826 525 c 0
 904 469 911 455 911 368 c 0
 911 305 896 253 867 214 c 0
 786 96 583 -25 373 -25 c 0
EndSplineSet
EndChar

StartChar: seven
Encoding: 55 55 76
Width: 1253
VWidth: -233
Flags: HW
LayerCount: 2
Fore
SplineSet
403 642 m 0
 364 642 311 638 286 638 c 0
 278 638 272 638 269 638 c 0
 255 638 243 653 243 669 c 0
 243 718 311 720 383 720 c 0
 391 720 400 720 408 720 c 0
 485 720 519 730 545 757 c 0
 563 776 613 894 656 1016 c 0
 698 1139 733 1277 733 1320 c 0
 733 1365 721 1411 707 1422 c 0
 700 1428 686 1431 664 1431 c 0
 633 1431 586 1425 517 1414 c 0
 412 1394 283 1381 195 1381 c 0
 125 1381 77 1387 64 1400 c 0
 53 1411 48 1420 48 1427 c 0
 48 1447 88 1451 136 1451 c 0
 159 1451 182 1449 206 1449 c 0
 275 1449 385 1459 459 1474 c 0
 539 1490 643 1502 686 1502 c 0
 691 1502 696 1503 701 1503 c 0
 803 1503 821 1452 821 1339 c 0
 821 1275 795 1155 745 1008 c 0
 706 895 679 794 679 770 c 0
 679 761 689 762 706 762 c 0
 741 762 806 768 875 778 c 0
 976 792 1089 805 1131 811 c 0
 1145.48214212 812.930952283 1158.30713904 813.929760386 1169.04167524 813.929760386 c 0
 1191.66229638 813.929760386 1205 809.494444673 1205 800 c 0
 1205 790 1185 769 1166 758 c 0
 1145 748 1074 732 1005 722 c 0
 936 711 827 692 763 682 c 0
 701 671 634 645 616 627 c 0
 573 579 462 266 446 189 c 0
 436 123 392 -11 334 -22 c 0
 310 -28 301 -16 301 18 c 0
 301 44 323 119 349 189 c 0
 375 259 419 376 448 448 c 0
 473 508 491 572 491 600 c 0
 491 635 462 642 403 642 c 0
EndSplineSet
EndChar

StartChar: eight
Encoding: 56 56 77
Width: 1300
VWidth: -400
Flags: HW
LayerCount: 2
Fore
SplineSet
412 675 m 0
 398 675 345 655 294 633 c 0
 243 609 182 567 160 537 c 0
 135 506 125 483 125 451 c 0
 125 440 127 428 129 414 c 0
 161 243 264 132 406 68 c 0
 446 50 505 33 532 33 c 0
 559 33 608 47 640 63 c 2
 698 92 l 1
 687 226 l 2
 673 412 625 498 520 600 c 0
 473 641 428 675 413 675 c 0
 412 675 l 0
852 1124 m 0
 852 1142 834 1147 821 1147 c 0
 808 1147 794 1144 781 1144 c 0
 760.953669253 1144 753.373056305 1154.16940136 753.373056305 1168.683656 c 0
 753.373056305 1179.51064304 757.591284606 1192.75532152 764 1206 c 0
 770.527530217 1218.40230741 773.406694715 1229.55298571 773.406694715 1239.53025874 c 0
 773.406694715 1290.69263702 697.698269441 1311 650 1311 c 0
 617 1311 577 1308 526 1304 c 0
 376 1289 330 1272 256 1204 c 0
 229 1180 213 1146 213 1106 c 0
 213 989 264 922 340 856 c 0
 380 817 427 788 441 788 c 0
 456 788 492 797 518 806 c 0
 606 842 758 950 812 1028 c 0
 834 1063 852 1104 852 1124 c 0
1036 1438 m 0
 1036 1402 994 1259 994 1221 c 0
 994 1215 995 1211 996 1209 c 0
 1004 1200 1062 1192 1130 1192 c 1
 1252 1190 l 1
 1209 1155 l 1
 1177 1128 1139 1119 1059 1119 c 2
 952 1119 l 1
 894 1026 l 2
 826 918 745 844 634 788 c 0
 579 757 551 737 551 711 c 0
 551 688 572 661 615 616 c 0
 695 524 751 388 772 250 c 0
 775 228 778 206 778 184 c 0
 778 100 752 21 700 0 c 0
 674 -14 608 -22 552 -22 c 0
 417 -22 290 51 216 117 c 0
 152 171 48 343 48 454 c 0
 48 568 137 633 224 675 c 0
 270 697 306 726 306 742 c 0
 306 757 275 804 236 844 c 0
 162 913 122 1004 122 1122 c 0
 122 1233 197 1281 291 1323 c 0
 375 1362 419 1366 615 1366 c 1
 842 1368 l 1
 909 1437 l 2
 947 1475 982 1504 988 1504 c 0
 1006 1504 1036 1467 1036 1438 c 0
EndSplineSet
EndChar

StartChar: nine
Encoding: 57 57 78
Width: 1111
VWidth: -511
Flags: HW
LayerCount: 2
Fore
SplineSet
816 1247 m 0
 816 1323 779 1400 718 1400 c 0
 702 1400 657 1376 616 1347 c 0
 535 1293 441 1189 441 1065 c 0
 441 1004 452 975 483 957 c 0
 498.71476893 949.484240946 521.898844856 944.769472016 542.026444338 944.769472016 c 0
 551.357425516 944.769472016 560.031518107 945.782755761 567 948 c 0
 589 957 654 1007 713 1065 c 0
 799 1150 816 1179 816 1247 c 0
48 350 m 0
 48 400 61 478 76 478 c 0
 88 478 103 426 110 361 c 0
 124 208 155 165 256 102 c 0
 315 62 360 53 495 53 c 0
 693 53 787 82 868 190 c 0
 956 303 969 433 969 649 c 0
 969 768 952 876 929 944 c 0
 909 1005 880 1056 864 1063 c 0
 862.79002732 1063.37229929 861.415459115 1063.55401428 859.895646583 1063.55401428 c 0
 845.086526035 1063.55401428 816.486979819 1046.30083018 792 1020 c 0
 733 961 641 869 529 869 c 0
 408 869 353 935 353 1063 c 0
 353 1223 427 1315 528 1394 c 0
 607 1453 639 1464 738 1464 c 0
 832 1464 861 1457 870 1428 c 0
 877 1406 886 1349 895 1302 c 0
 904 1253 932 1180 961 1139 c 0
 990 1098 1015 1056 1015 1049 c 0
 1015 1042 1030 959 1046 865 c 0
 1058 801 1063 728 1063 654 c 0
 1063 512 1043 365 1015 269 c 0
 1002 222 967 156 936 118 c 0
 871 47 670 -27 518 -27 c 0
 501 -27 484 -26 468 -24 c 0
 272 3 146 62 76 210 c 0
 57 244 48 298 48 350 c 0
EndSplineSet
EndChar

StartChar: zero
Encoding: 48 48 79
Width: 1751
VWidth: -1122
Flags: HW
LayerCount: 2
Fore
SplineSet
153 497 m 0
 153 246 252 78 500 78 c 0
 716 78 933 234 1062 363 c 0
 1193 494 1249 601 1249 801 c 0
 1249 908 1228 1099 1195 1136 c 0
 1174 1159 1145 1178 1124 1178 c 0
 1101 1178 1069 1148 1055 1109 c 0
 1041 1070 1016 1037 1002 1037 c 0
 986 1037 965 1080 953 1138 c 0
 939 1209 907 1256 845 1295 c 0
 798.808046597 1321.94530615 749.837842466 1346.11236158 731.954995042 1346.11236158 c 0
 731.25502418 1346.11236158 730.602682199 1346.07533527 730 1346 c 0
 716 1346 666 1332 620 1320 c 0
 496 1281 374 1148 307 1035 c 1
 229 913 153 688 153 497 c 0
618 1440 m 0
 638 1444 659 1445 680 1445 c 0
 766 1445 857 1418 907 1385 c 0
 936.285714286 1367.14285714 973.224489796 1356.93877551 1006.88338192 1356.93877551 c 0
 1020.34693878 1356.93877551 1033.28571429 1358.57142857 1045 1362 c 0
 1056 1364 1068 1365 1079 1365 c 0
 1121 1365 1165 1347 1227 1302 c 0
 1294 1257 1332 1240 1385 1240 c 0
 1405 1240 1428 1243 1455 1247 c 0
 1522 1256 1604 1270 1641 1279 c 0
 1654.66666667 1283 1666.11111111 1285.11111111 1675.2962963 1285.11111111 c 0
 1693.66666667 1285.11111111 1703 1276.66666667 1703 1258 c 0
 1703 1180 1549 1145 1464 1127 c 1
 1351 1104 l 1
 1338 826 l 2
 1326 598 1310 524 1257 439 c 0
 1158 276 983 138 790 48 c 0
 698 2 574 -34 516 -34 c 0
 371 -34 225 35 158 120 c 0
 104 190 48 424 48 578 c 0
 48 788 119 948 220 1104 c 1
 284 1196 385 1311 447 1352 c 0
 509 1393 588 1435 618 1440 c 0
EndSplineSet
EndChar

StartChar: exclam
Encoding: 33 33 80
Width: 294
VWidth: -157
Flags: HW
LayerCount: 2
Fore
SplineSet
232 84 m 0
 232 42 172 -22 138 -22 c 0
 122 -22 90 -12 72 3 c 0
 55.4846922835 15.1112256588 48.061230866 23.2826512546 48.061230866 36.523555148 c 0
 48.061230866 47.3347079052 53.0102051443 61.5255128608 62 84 c 0
 82 132 98 149 145 149 c 0
 195 149 232 122 232 84 c 0
246 1482 m 0
 246 1428 196 1023 196 934 c 0
 196 855 221 761 237 714 c 0
 240 705 241 697 241 691 c 0
 241 669 227 659 209 659 c 0
 190 659 166 670 149 688 c 0
 117 720 111 739 111 860 c 0
 111 991 124 1168 146 1296 c 0
 162 1400 186 1495 195 1509 c 0
 205 1519 221 1532 230 1532 c 0
 239 1532 246 1509 246 1482 c 0
EndSplineSet
EndChar

StartChar: question
Encoding: 63 63 81
Width: 693
VWidth: -46
Flags: HW
LayerCount: 2
Fore
SplineSet
373 135 m 0
 428 135 502 84 502 29 c 0
 502 -7 489 -20 468 -20 c 0
 419 -20 332 40 320 71 c 0
 317 81 316 90 316 97 c 0
 316 125 335 135 373 135 c 0
509 1458 m 0
 509 1501 499 1510 456 1510 c 0
 428 1510 377 1502 332 1489 c 0
 262 1468 221 1442 155 1376 c 0
 113 1334 69 1300 57 1300 c 0
 46 1300 46 1326 52 1344 c 0
 68 1409 134 1456 194 1494 c 0
 245 1527 355 1572 450 1572 c 0
 531 1572 597 1539 597 1451 c 0
 597 1420 583 1363 566 1325 c 0
 506 1200 386 1066 291 950 c 0
 239 890 184 813 167 778 c 0
 152 748 145 723 145 701 c 0
 145 587 359 567 500 567 c 0
 542 567 578 574 612 574 c 0
 633 574 645 571 645 564 c 0
 645 555 631 539 615 530 c 0
 598 522 516 514 434 514 c 0
 340 514 259 524 216 538 c 0
 144 565 82 608 57 670 c 0
 52.9125288906 680.445759502 50.681437789 691.304047894 50.681437789 702.10647631 c 0
 50.681437789 715.089379494 53.9041249358 727.991596045 61 740 c 0
 70 760 133 846 199 933 c 0
 265 1019 350 1127 386 1175 c 0
 422 1223 464 1288 480 1319 c 0
 496 1350 508 1406 508 1441 c 0
 508 1447 509 1453 509 1458 c 0
EndSplineSet
EndChar

StartChar: section
Encoding: 167 167 82
Width: 750
VWidth: 28
Flags: HW
LayerCount: 2
Fore
SplineSet
257 -17 m 0
 148 -17 48 -11 48 7 c 0
 48 23 79 28 210 28 c 0
 341 29 381 34 422 54 c 0
 462 76 498 112 498 165 c 0
 498 174 497 183 495 192 c 0
 489 214 433 279 363 345 c 0
 297 409 227 485 209 516 c 0
 187 552 177 591 177 631 c 0
 177 678 186 706 220 750 c 0
 243 782 280 817 303 827 c 0
 317 834 360 841 396 841 c 0
 427 841 453 836 453 818 c 0
 453 805 434 795 393 789 c 0
 347 783 323 770 288 733 c 0
 257 698 244 671 244 640 c 0
 244 617 256 570 272 538 c 0
 288 504 345 440 412 380 c 0
 474 323 534 257 546 232 c 0
 558 208 564 183 564 160 c 0
 564 80 498 14 429 -4 c 0
 401 -12 333 -17 257 -17 c 0
618 750 m 0
 618 641 513 589 400 589 c 0
 394 589 388 589 382 589 c 0
 330 589 284 590 284 625 c 0
 284 637 290 642 310 642 c 0
 329 642 372 636 394 636 c 0
 455 636 487 655 524 686 c 0
 540 702 554 729 554 747 c 0
 554 766 539 803 520 827 c 0
 501 851 432 912 366 960 c 0
 292 1014 241 1064 231 1088 c 0
 223 1106 218 1138 218 1170 c 0
 218 1301 317 1434 401 1495 c 0
 438 1525 487 1553 509 1560 c 0
 529 1566 579 1572 616 1572 c 0
 620 1572 624 1573 628 1573 c 0
 672 1573 688 1567 694 1552 c 0
 698 1540 702 1524 702 1516 c 0
 702 1510 694 1508 679 1508 c 0
 658 1508 614 1515 591 1515 c 0
 562 1515 540 1508 507 1492 c 0
 427 1451 354 1371 316 1285 c 0
 298 1248 284 1196 284 1172 c 0
 284 1148 291 1115 298 1102 c 0
 306 1088 358 1039 416 995 c 0
 473 952 541 895 565 870 c 0
 596 837 618 795 618 750 c 0
EndSplineSet
EndChar

StartChar: dollar
Encoding: 36 36 83
Width: 977
VWidth: 160
Flags: HW
LayerCount: 2
Fore
SplineSet
475 256 m 0
 475 234 488 232 510 232 c 0
 554 232 626 255 642 262 c 0
 662 270 694 293 712 312 c 0
 741 343 746 361 746 433 c 0
 746 533 707 627 663 679 c 0
 647 695 626 708 616 708 c 0
 606 708 586 674 570 632 c 0
 547 572 475 342 475 256 c 0
553 769 m 0
 553 787 532 813 519 813 c 0
 511 813 488 767 469 701 c 0
 449 636 421 512 407 426 c 0
 394 340 381 266 381 260 c 0
 381 253 386 250 393 250 c 0
 400 250 412 282 422 322 c 0
 432 359 466 476 500 578 c 0
 537 688 553 743 553 769 c 0
532 1315 m 0
 525 1315 500 1294 476 1265 c 0
 445 1230 436 1219 436 1178 c 0
 436 1128 446 1030 460 1016 c 0
 468 1008 478 1004 482 1008 c 0
 498 1024 544 1244 544 1276 c 0
 544 1298 539 1315 532 1315 c 0
695 1383 m 0
 681 1383 659 1372 647 1360 c 0
 615 1319 556 1033 541 974 c 0
 535 949 532 933 532 921 c 0
 532 902.221650805 553.85700817 873.243364465 572.074085415 873.243364465 c 0
 575.199443293 873.243364465 578.217665214 874.096297251 581 876 c 0
 588 880 606 921 622 967 c 0
 636 1014 665 1119 684 1198 c 0
 703 1279 719 1353 719 1364 c 0
 719 1375 708 1383 695 1383 c 0
668 1521 m 0
 668 1506 666 1482 666 1469 c 0
 666 1442 672 1437 687 1437 c 0
 718 1437 759 1474 759 1506 c 0
 759 1533 778 1583 805 1583 c 0
 828 1583 836 1563 838 1514 c 0
 840 1464 847 1450 866 1450 c 0
 884 1450 929 1419 929 1394 c 0
 929 1374 906 1365 891 1380 c 0
 881 1390 862 1396 844 1396 c 0
 828 1396 809 1385 802 1373 c 0
 795 1360 770 1282 746 1200 c 0
 722 1119 688 1007 670 950 c 0
 652 893 637 834 637 820 c 0
 637 806 658 771 682 746 c 0
 705 721 741 669 763 632 c 0
 796 571 812 490 812 391 c 0
 812 352 807 329 795 307 c 0
 769 251 647 197 570 188 c 0
 533 181 449 178 449 155 c 0
 449 147 463 141 482 141 c 0
 505 141 516 135 516 119 c 0
 516 79 501 61 459 61 c 0
 449 61 435 63 425 63 c 0
 398 63 384 53 356 20 c 0
 335 -6 323 -17 313 -17 c 0
 297 -17 284 1 284 17 c 0
 284 48 314 155 314 175 c 0
 314 197 297 213 247 236 c 0
 211 254 152 294 118 328 c 0
 86 362 56 401 50 415 c 0
 49 419 48 424 48 429 c 0
 48 447 57 463 72 463 c 0
 89 463 98 443 98 426 c 0
 98 382 214 299 246 284 c 0
 268 272 292 263 300 263 c 0
 307 263 318 283 326 307 c 0
 333 330 342 382 348 418 c 0
 352 455 379 576 409 688 c 2
 460 889 l 1
 421 957 l 1
 388 1017 359 1083 359 1159 c 0
 359 1216 380 1259 418 1296 c 0
 442 1321 486 1355 515 1369 c 0
 551 1387 575 1412 594 1452 c 0
 608 1484 625 1523 631 1541 c 0
 637 1559 647 1570 655 1568 c 0
 664 1566 668 1549 668 1521 c 0
EndSplineSet
EndChar

StartChar: percent
Encoding: 37 37 84
Width: 1267
VWidth: -69
Flags: HW
LayerCount: 2
Fore
SplineSet
1165 603 m 0
 1173 603 1188 591 1202 576 c 0
 1213 563 1219 534 1219 492 c 0
 1219 316 1128 132 1034 42 c 0
 983 -4 947 -22 901 -22 c 0
 814 -22 747 46 715 106 c 0
 700 136 688 203 688 254 c 0
 688 420 755 531 893 558 c 0
 909 561 922 563 933 563 c 0
 962 563 980 551 1009 522 c 0
 1041 490 1052 469 1052 432 c 0
 1052 424 1052 415 1051 405 c 0
 1048 351 1039 335 1006 332 c 0
 999.22718195 330.930607676 993.566197177 330.274181998 988.85285238 330.274181998 c 0
 971.763248512 330.274181998 967.13166233 338.903791251 967.13166233 367.767718538 c 0
 967.13166233 375.608013167 967.473392775 384.941248279 968 396 c 0
 968 407 969 415 969 423 c 0
 969 463 960 465 919 465 c 0
 881 465 854 448 827 414 c 0
 797 374 788 334 788 244 c 0
 788 156 797 120 823 90 c 0
 843 68 877 52 901 52 c 0
 923 52 964 77 994 104 c 0
 1074 188 1138 306 1144 471 c 0
 1147 543 1157 603 1165 603 c 0
221 972 m 0
 129 972 48 1024 48 1120 c 0
 48 1257 104 1366 178 1454 c 0
 222 1508 276 1564 302 1574 c 0
 326 1588 355 1598 364 1598 c 0
 400 1598 466 1515 466 1476 c 0
 466 1431 384 1358 344 1358 c 0
 329 1358 319 1368 319 1377 c 0
 319 1387 327 1411 341 1431 c 0
 355 1449 358 1471 350 1479 c 0
 348.4 1480.6 346.16 1481.36 343.392 1481.36 c 0
 332.32 1481.36 312.8 1469.2 292 1450 c 0
 247 1408 136 1218 136 1137 c 0
 136 1087 161 1049 208 1049 c 0
 218 1049 229 1050 241 1054 c 0
 304 1066 498 1269 512 1329 c 0
 524 1384 527 1487 592 1487 c 0
 616 1487 638 1479 638 1451 c 0
 638 1383 544 1226 527 1200 c 0
 494 1146 422 1076 368 1038 c 0
 314 1000 251 972 221 972 c 0
209 154 m 0
 209 103 137 15 89 15 c 0
 74 15 49 28 49 46 c 0
 49 71 98 171 164 285 c 0
 390 683 632 1008 880 1390 c 0
 948 1494 1018 1588 1034 1598 c 0
 1047 1605 1081 1609 1081 1595 c 0
 1081 1573 1011 1453 902 1290 c 0
 700 986 452 646 292 356 c 0
 246 274 209 181 209 154 c 0
EndSplineSet
EndChar

StartChar: ampersand
Encoding: 38 38 85
Width: 1337
VWidth: -157
Flags: HW
LayerCount: 2
Fore
SplineSet
142 224 m 0
 142 126 149 56 207 56 c 0
 289 56 478 144 510 164 c 0
 537 184 560 209 560 219 c 0
 560 229 524 269 480 308 c 0
 436 348 377 417 351 462 c 0
 324 507 293 544 279 544 c 0
 265 544 241 529 226 513 c 0
 178 453 142 342 142 224 c 0
780 1358 m 0
 780 1474 760 1530 646 1530 c 0
 643 1530 641 1530 638 1530 c 0
 510 1530 442 1504 372 1434 c 0
 294 1352 270 1261 256 1114 c 0
 252 1082 251 1047 251 1009 c 0
 251 914 263 813 292 771 c 0
 301 760 308 754 318 754 c 0
 337 754 366 775 438 832 c 0
 564 934 679 1048 742 1186 c 0
 762 1231 780 1307 780 1358 c 0
1102 37 m 0
 1102 8 1069 -22 1044 -22 c 0
 1034 -22 1008 -6 990 14 c 0
 972 34 940 51 922 51 c 0
 904 51 840 73 782 105 c 1
 674 158 l 1
 480 69 l 1
 328 -5 269 -22 195 -22 c 0
 105 -22 100 -20 74 40 c 0
 60 74 48 146 48 202 c 0
 48 330 91 470 148 540 c 0
 187 585 215 621 215 674 c 0
 215 697 210 722 198 754 c 0
 180 804 168 897 168 1047 c 0
 168 1067 168 1084 168 1101 c 0
 168 1258 175 1281 220 1372 c 0
 277 1486 338 1546 450 1582 c 0
 511 1601 548 1616 617 1616 c 0
 690 1616 785 1604 813 1582 c 0
 857 1544 890 1452 890 1364 c 0
 890 1223 780 1060 700 972 c 0
 652 921 560 830 488 772 c 0
 419 715 358 655 358 639 c 0
 358 624 384 572 416 522 c 0
 448 474 514 397 564 352 c 0
 615 307 668 270 684 270 c 0
 700 270 766 304 832 344 c 0
 980 436 1067 502 1190 606 c 0
 1232 640 1270 664 1284 664 c 0
 1287 664 1289 663 1289 661 c 0
 1289 648 1235 589 1164 524 c 0
 1089 455 974 364 910 320 c 0
 844 276 801 232 801 215 c 0
 801 174 977 106 1022 106 c 0
 1058 104 1102 74 1102 37 c 0
EndSplineSet
EndChar

StartChar: slash
Encoding: 47 47 86
Width: 1156
VWidth: 224
Flags: HW
LayerCount: 2
Fore
SplineSet
1042 1631 m 0
 1071 1631 1108 1618 1108 1588 c 0
 1108 1574 1090 1545 1070 1526 c 0
 991 1453 976 1433 887 1314 c 0
 839 1249 751 1137 697 1064 c 0
 596 933 356 540 283 395 c 0
 261 351 219 251 188 174 c 0
 157 97 123 23 110 10 c 0
 98 -4 79 -18 67 -18 c 0
 56 -18 48 -5 48 13 c 0
 48 29 89 126 137 228 c 0
 238 433 450 795 568 968 c 0
 672 1128 709 1166 830 1324 c 0
 883 1395 941 1484 960 1522 c 0
 979 1562 1001 1602 1009 1613 c 0
 1016 1621 1031 1631 1042 1631 c 0
EndSplineSet
EndChar

StartChar: parenleft
Encoding: 40 40 87
Width: 591
VWidth: 256
Flags: HW
LayerCount: 2
Fore
SplineSet
500 1571 m 0
 518 1571 543 1549 543 1540 c 0
 543 1534 495 1481 436 1421 c 0
 377 1361 309 1284 285 1247 c 0
 223 1151 210 1097 164 980 c 0
 117 852 104 783 104 605 c 0
 104 377 154 178 264 63 c 0
 288 37 317 17 328 17 c 0
 340 17 348 10 348 4 c 0
 348 -3 339 -15 327 -15 c 0
 315 -15 293 -10 269 0 c 0
 207 24 177 72 146 128 c 0
 82 237 48 411 48 600 c 0
 48 711 59 827 80 903 c 0
 110 1016 167 1168 225 1256 c 0
 278 1337 394 1464 454 1534 c 0
 477 1561 488 1571 500 1571 c 0
EndSplineSet
EndChar

StartChar: parenright
Encoding: 41 41 88
Width: 392
VWidth: 273
Flags: HW
LayerCount: 2
Fore
SplineSet
115 -15 m 0
 102 -15 77 4 77 23 c 0
 77 35 84 51 100 81 c 0
 138 150 201 421 225 503 c 0
 250 603 255 671 275 788 c 0
 285 844 292 956 292 1035 c 0
 292 1197 273 1317 226 1419 c 0
 197 1482 145 1533 82 1550 c 0
 59 1555 48 1566 48 1582 c 0
 48 1602 56 1606 89 1606 c 0
 117 1606 148 1592 188 1562 c 0
 231 1529 256 1498 280 1443 c 0
 327 1337 344 1263 344 1110 c 0
 344 1097 344 1084 344 1070 c 0
 344 975 333 853 317 747 c 0
 301 653 265 478 235 357 c 0
 205 236 176 112 172 82 c 0
 170 52 159 18 148 7 c 0
 138 -5 122 -15 115 -15 c 0
EndSplineSet
EndChar

StartChar: braceleft
Encoding: 123 123 89
Width: 587
VWidth: 224
Flags: HW
LayerCount: 2
Fore
SplineSet
367 1379 m 0
 367 1290 333 1111 333 1029 c 0
 333 957 367 916 415 886 c 0
 436 873 448 868 460 868 c 0
 478.352941176 868 494.712802768 879.958477509 509.783024629 879.958477509 c 0
 516.062283737 879.958477509 522.117647059 877.882352941 528 872 c 0
 536 865 539 858 539 851 c 0
 539 831 513 812 494 801 c 0
 449 773 407 720 390 667 c 0
 380 633 361 516 361 454 c 0
 361 377 377 325 377 234 c 0
 377 122 365 91 303 34 c 0
 270 3 242 -14 223 -14 c 0
 169 -14 114 20 82 52 c 0
 63 72 48 91 48 95 c 0
 48 106 52 111 58 111 c 0
 69 111 88 95 107 79 c 0
 135 55 164 33 189 33 c 0
 229 33 280 80 294 102 c 0
 306 121 313 156 314 214 c 0
 314 288 304 404 304 501 c 0
 304 614 320 684 363 757 c 2
 402 823 l 1
 343 874 l 2
 284 927 276 944 276 1026 c 0
 276 1058 279 1095 286 1133 c 0
 294 1182 304 1271 308 1332 c 2
 314 1442 l 1
 284 1466 l 2
 268 1479 254 1485 241 1485 c 0
 218 1485 194 1465 172 1443 c 0
 152 1424 132 1413 128 1417 c 0
 124 1421 127 1439 132 1454 c 0
 143 1486 202 1534 242 1534 c 0
 285 1534 323 1513 345 1487 c 0
 360 1468 366 1444 367 1379 c 0
EndSplineSet
EndChar

StartChar: braceright
Encoding: 125 125 90
Width: 841
VWidth: 208
Flags: HW
LayerCount: 2
Fore
SplineSet
75 709 m 0
 60 709 48 719 48 731 c 0
 48 756 113 773 151 782 c 0
 191 792 238 808 256 814 c 0
 286 826 296 846 296 876 c 0
 296 900 290 930 282 966 c 0
 272 1015 264 1093 264 1141 c 0
 264 1199 272 1253 287 1303 c 0
 314 1389 337 1424 385 1478 c 0
 411 1508 502 1561 552 1561 c 0
 586 1561 606 1544 606 1511 c 0
 606 1495 590 1465 572 1465 c 0
 559 1465 551 1478 551 1491 c 0
 551 1501 540 1507 521 1507 c 0
 500 1507 476 1490 434 1448 c 0
 360 1370 321 1282 321 1138 c 0
 321 1047 352 945 352 859 c 0
 352 809 360 779 376 751 c 0
 390 727 395 698 395 667 c 0
 395 621 384 571 375 524 c 0
 365 474 358 343 358 256 c 0
 358 165 362 159 391 116 c 0
 438 50 483 35 595 35 c 0
 658 35 691 40 731 60 c 0
 755 71 777 79 787 79 c 0
 798 79 793 61 787 51 c 0
 781 41 751 24 721 13 c 0
 676 -4 616 -14 557 -14 c 0
 484 -14 413 1 372 36 c 0
 326 74 286 159 286 243 c 0
 286 315 319 579 327 640 c 0
 327 646 328 652 328 659 c 0
 328 679 326 701 321 715 c 0
 311 741 302 745 262 745 c 0
 236 745 181 735 141 724 c 0
 108 714 88 709 75 709 c 0
EndSplineSet
EndChar

StartChar: bracketleft
Encoding: 91 91 91
Width: 695
VWidth: 192
Flags: HW
LayerCount: 2
Fore
SplineSet
141 -13 m 0
 129 -13 118.197278912 -13.2176870748 108.571104632 -13.2176870748 c 0
 67.6598639456 -13.2176870748 48 -9.28571428571 48 32 c 0
 48 41 49 54 50 70 c 0
 54 106 58 262 60 416 c 0
 64 619 71 740 89 855 c 0
 103 949 114 1097 118 1217 c 0
 120 1329 124 1452 125 1492 c 0
 127 1539 126 1588 154 1588 c 0
 174 1588 203 1572 242 1558 c 0
 290 1542 408 1519 490 1519 c 0
 519 1519 535 1524 564 1524 c 0
 601 1524 647 1517 647 1497 c 0
 647 1488 638 1474 624 1468 c 0
 613 1462 591 1460 555 1460 c 0
 419 1460 356 1474 263 1486 c 0
 244 1488 232 1490 222 1490 c 0
 204 1490 198 1485 193 1473 c 0
 189 1462 180 1366 175 1261 c 0
 161 984 123 868 110 575 c 0
 107 498 105 429 105 367 c 0
 105 305 107 251 111 204 c 0
 116 125 128 54 134 46 c 0
 142 36 175 33 235 33 c 0
 285 33 341 38 361 44 c 0
 369 46 379 47 388 47 c 0
 407 47 423 42 423 30 c 0
 423 26 421 20 415 14 c 0
 405 4 349 -5 247 -10 c 0
 205 -13 169 -13 141 -13 c 0
EndSplineSet
EndChar

StartChar: bracketright
Encoding: 93 93 92
Width: 928
VWidth: 217
Flags: HW
LayerCount: 2
Fore
SplineSet
354 1454 m 0
 365 1454 386 1452 401 1452 c 0
 497 1452 729 1496 792 1510 c 0
 815 1515 837 1521 853 1521 c 0
 869 1521 880 1515 880 1496 c 0
 880 1486 867 1439 852 1390 c 0
 810 1260 796 1109 787 935 c 0
 782 800 759 314 738 199 c 0
 732 167 727 112 727 75 c 0
 727 39 722 2 718 -6 c 0
 715 -12 699 -14 664 -14 c 0
 555 -14 350 5 282 23 c 0
 233 34 159 48 119 52 c 0
 62 58 48 63 48 75 c 0
 48 95 102 109 133 109 c 0
 150 109 163 104 181 93 c 0
 246 54 412 35 524 35 c 0
 614 35 640 39 659 54 c 0
 678 70 685 98 699 194 c 0
 729 421 737 673 748 951 c 0
 754 1096 766 1252 774 1297 c 0
 783 1342 796 1395 804 1415 c 0
 812 1435 816 1453 812 1457 c 0
 811 1457 809 1458 806 1458 c 0
 785 1458 713 1448 631 1434 c 0
 541 1420 441 1408 399 1408 c 0
 344 1408 326 1416 326 1434 c 0
 326 1449 330 1454 354 1454 c 0
EndSplineSet
EndChar

StartChar: equal
Encoding: 61 61 93
Width: 923
VWidth: 0
Flags: HW
LayerCount: 2
Fore
SplineSet
95 458 m 0
 68 458 48 469 48 487 c 0
 48 499 62 505 103 510 c 0
 169 518 440 566 503 577 c 0
 536 583 657 588 727 588 c 0
 802 588 806 584 817 559 c 0
 823 546 825 536 825 529 c 0
 825 515 816 510 802 510 c 0
 788 510 769 515 748 523 c 0
 718 535 695 539 658 539 c 0
 545 539 440 519 303 491 c 0
 211 471 122 458 95 458 c 0
829 759 m 0
 830 759 830 759 831 759 c 0
 854 759 875 722 875 701 c 0
 875 694 857 687 836 687 c 0
 814 687 719 674 625 658 c 0
 476 633 257 595 102 595 c 0
 72 595 58 605 61 630 c 0
 65 656 73 656 229 665 c 0
 319 671 475 690 575 707 c 0
 676 724 769 743 782 748 c 0
 797 754 818 759 829 759 c 0
EndSplineSet
EndChar

StartChar: less
Encoding: 60 60 94
Width: 895
VWidth: 0
Flags: HW
LayerCount: 2
Fore
SplineSet
101 590 m 0
 110 590 123 586 134 586 c 0
 158 586 194 599 249 626 c 0
 381 693 539 812 671 887 c 0
 732 921 789 950 796 950 c 0
 797 950 797 950 798 950 c 0
 818 950 847 901 847 875 c 0
 847 857 838 851 812 851 c 0
 802 851 783 852 770 852 c 0
 730 852 705 843 643 810 c 0
 599 784 493 717 411 659 c 0
 328 601 260 547 260 538 c 0
 260 529 301 496 350 463 c 0
 456 390 574 327 687 269 c 0
 730 246 778 228 794 228 c 0
 817 228 843 205 843 181 c 0
 843 155 816 142 787 142 c 0
 769 142 747 150 738 160 c 0
 720 180 527 300 498 310 c 0
 486 315 411 355 333 402 c 0
 202 479 185 485 119 485 c 2
 48 485 l 1
 55 531 l 1
 62 569 69 590 101 590 c 0
EndSplineSet
EndChar

StartChar: greater
Encoding: 62 62 95
Width: 850
VWidth: 0
Flags: HW
LayerCount: 2
Fore
SplineSet
71 786 m 0
 71 804 80 821 95 821 c 0
 100 821 130 809 163 794 c 0
 261 754 295 721 395 665 c 0
 441 637 487 614 496 614 c 0
 505 614 527 604 544 591 c 0
 574 571 594 558 617 558 c 0
 636 558 656 567 686 588 c 0
 715 609 747 626 756 626 c 0
 781 626 802 601 802 575 c 0
 802 562 787 547 769 538 c 0
 749 529 720 508 702 490 c 0
 684 472 657 456 642 456 c 0
 627 456 589 434 559 410 c 0
 485 348 234 130 151 75 c 0
 111 49 72 29 62 29 c 0
 51 29 47 39 49 56 c 0
 51 73 77 100 112 126 c 0
 144 149 252 234 351 312 c 0
 451 390 539 465 546 480 c 0
 553 495 557 509 553 514 c 0
 549 518 470 560 379 610 c 0
 286 660 179 715 141 733 c 0
 98 753 71 774 71 786 c 0
EndSplineSet
EndChar

StartChar: bar
Encoding: 124 124 96
Width: 260
VWidth: 269
Flags: HW
LayerCount: 2
Fore
SplineSet
122 303 m 0
 122 254 123 191 123 152 c 0
 123 33 119 6 105 -5 c 0
 87 -19 78 -20 64 -7 c 0
 53 1 48 22 48 84 c 0
 48 113 49 150 51 198 c 0
 58 453 80 860 99 1106 c 0
 107 1214 116 1361 118 1435 c 0
 119 1509 121 1573 122 1580 c 0
 122 1586 135 1589 149 1589 c 0
 193 1589 212 1545 212 1499 c 0
 212 1478 208 1455 200 1437 c 0
 188 1414 173 1344 165 1281 c 0
 140 1083 122 570 122 303 c 0
EndSplineSet
EndChar

StartChar: backslash
Encoding: 92 92 97
Width: 907
VWidth: 297
Flags: HW
LayerCount: 2
Fore
SplineSet
859 23 m 0
 859 1 832 -15 814 -15 c 0
 772 -15 769 24 761 75 c 0
 749 180 666 393 622 478 c 0
 558 605 501 688 428 820 c 0
 331 993 280 1096 167 1277 c 0
 113 1361 63 1438 56 1449 c 0
 50 1457 48 1466 48 1474 c 0
 48 1492 60 1508 80 1508 c 0
 93 1508 119 1484 146 1445 c 0
 255 1278 337 1117 436 929 c 0
 523 764 529 764 623 606 c 0
 693 489 758 347 789 216 c 0
 798 179 818 121 835 86 c 0
 851 54 859 36 859 23 c 0
EndSplineSet
EndChar

StartChar: comma
Encoding: 44 44 98
Width: 385
VWidth: 0
Flags: HW
LayerCount: 2
Fore
SplineSet
227 101 m 0
 312 101 337 75 337 -3 c 0
 337 -129 306 -200 237 -255 c 0
 200 -285 168 -298 113 -298 c 0
 82 -298 48 -293 48 -276 c 0
 48 -252 87 -240 117 -234 c 0
 200 -223 261 -154 261 -60 c 0
 261 -34 249 -20 211 -20 c 0
 172 -20 153 -12 153 9 c 0
 153 20 159 36 170 56 c 0
 191 92 198 101 227 101 c 0
EndSplineSet
EndChar

StartChar: semicolon
Encoding: 59 59 99
Width: 390
VWidth: 0
Flags: HW
LayerCount: 2
Fore
SplineSet
192 -10 m 0
 192 19 219 63 251 63 c 0
 258 63 266 63 275 61 c 0
 331 52 343 42 343 -16 c 0
 343 -159 291 -276 151 -276 c 0
 116 -276 87 -267 70 -254 c 0
 55 -241 48 -231 48 -224 c 0
 48 -213 63 -208 91 -208 c 0
 112 -208 155 -213 173 -213 c 0
 228 -213 252 -156 264 -106 c 0
 269 -83 273 -67 273 -56 c 0
 273 -38 262 -32 227 -32 c 0
 201 -32 192 -26 192 -10 c 0
320 328 m 0
 320 292 292 267 253 267 c 0
 225 267 204 286 204 317 c 0
 204 353 240 367 278 367 c 0
 310 367 320 362 320 328 c 0
EndSplineSet
EndChar

StartChar: asterisk
Encoding: 42 42 100
Width: 744
VWidth: 0
Flags: HW
LayerCount: 2
Fore
SplineSet
351 881 m 0
 351 903 343 987 343 1009 c 0
 343 1033 347 1037 358 1037 c 0
 390 1037 401 979 407 949 c 0
 412 929 421 914 427 914 c 0
 433 914 461 943 489 976 c 0
 517 1010 548 1037 555 1037 c 0
 564 1037 590 1024 590 1008 c 0
 590 993 570 969 511 908 c 0
 450 846 431 821 431 805 c 0
 431 777 470 768 493 768 c 0
 541 768 622 801 669 801 c 0
 686 801 696 795 696 780 c 0
 696 765 585 739 579 729 c 0
 575 723 597 707 628 694 c 0
 673 676 684 665 684 640 c 0
 684 624 680 602 670 602 c 0
 658 602 608 622 555 651 c 0
 493 685 465 699 448 699 c 0
 423 699 418 672 418 632 c 0
 418 609 420 580 420 556 c 0
 420 524 416 499 397 499 c 0
 368 499 368 521 368 588 c 0
 368 631 364 673 360 680 c 0
 355 687 341 694 326 694 c 0
 313 694 266 659 218 614 c 0
 167 564 145 546 132 546 c 0
 127 546 124 549 120 553 c 0
 108 568 109 577 125 602 c 0
 136 618 145 637 145 643 c 0
 145 651.066666667 123.488888889 652.142222222 102.945777778 652.142222222 c 0
 95.4755555556 652.142222222 88.1333333333 652 82 652 c 0
 57 652 52 658 49 679 c 0
 47 694 49 706 55 706 c 0
 60 706 106 712 156 718 c 0
 209 725 257 739 270 750 c 0
 282 762 292 778 292 787 c 0
 292 797 248 834 194 868 c 0
 141 903 100 938 100 945 c 0
 100 951 115 961 128 961 c 0
 141 961 190 938 234 908 c 0
 279 877 326 853 336 853 c 0
 347 853 351 857 351 881 c 0
EndSplineSet
EndChar

StartChar: period
Encoding: 46 46 101
Width: 304
VWidth: 0
Flags: HW
LayerCount: 2
Fore
SplineSet
48 73 m 0
 48 111 114 166 152 166 c 0
 181 166 256 114 256 87 c 0
 256 77 242 58 225 45 c 0
 204 29 175 19 144 19 c 0
 94 19 48 28 48 73 c 0
EndSplineSet
EndChar

StartChar: colon
Encoding: 58 58 102
Width: 341
VWidth: 0
Flags: HW
LayerCount: 2
Fore
SplineSet
166 -1 m 0
 112 -1 73 27 73 87 c 0
 73 116 82 135 100 147 c 0
 115 158 133 166 140 166 c 0
 161 162 264 134 279 126 c 0
 286 120 293 104 293 88 c 0
 293 36 226 -1 166 -1 c 0
140 370 m 0
 99 370 48 399 48 441 c 0
 48 456 59 484 71 506 c 0
 88 534 112 550 155 562 c 0
 189 573 219 582 228 582 c 0
 248 582 281 541 281 520 c 0
 281 508 270 474 255 447 c 0
 233 403 196 370 140 370 c 0
EndSplineSet
EndChar

StartChar: hyphen
Encoding: 45 45 103
Width: 469
VWidth: 0
Flags: HW
LayerCount: 2
Fore
SplineSet
421 363 m 0
 421 332 413 329 347 329 c 0
 324 329 292 330 251 331 c 0
 162 333 79 342 67 348 c 0
 55 354 46 369 48 380 c 0
 52 397 74 402 198 407 c 0
 280 412 355 417 373 417 c 0
 398 417 421 390 421 363 c 0
EndSplineSet
EndChar

StartChar: endash
Encoding: 8211 8211 104
Width: 722
VWidth: 0
Flags: HW
LayerCount: 2
Fore
SplineSet
357 456 m 0
 605 454 660 449 669 436 c 0
 673 430 674 424 674 418 c 0
 674 392 641 371 615 371 c 0
 592 371 467 377 325 381 c 0
 144 386 70 392 58 404 c 0
 49 413 45 428 49 439 c 0
 54 453 86 456 264 456 c 0
 291 456 322 456 357 456 c 0
EndSplineSet
EndChar

StartChar: numbersign
Encoding: 35 35 105
Width: 1446
VWidth: 220
Flags: HW
LayerCount: 2
Fore
SplineSet
688 950 m 0
 610 950 573 943 557 927 c 0
 545 914 530 883 524 853 c 0
 519 825 517 797 522 795 c 0
 523 794 532 794 548 794 c 0
 573 794 612 795 655 799 c 2
 784 807 l 1
 798 865 l 2
 803.785437427 887.418570028 808.001908312 910.883117751 808.001908312 924.803625792 c 0
 808.001908312 930.132148744 807.384101608 934.062257748 806 936 c 0
 801 944 748 950 688 950 c 0
468 889 m 0
 468 916 461 929 431 929 c 0
 411 929 379 924 325 914 c 0
 258 901 183 891 161 891 c 0
 133 891 110 901 110 918 c 0
 110 925 115 934 124 943 c 0
 155 971 371 1009 432 1009 c 0
 470 1009 494 1016 502 1035 c 0
 509 1048 527 1115 540 1185 c 0
 554 1255 579 1351 595 1399 c 0
 611 1447 627 1510 632 1536 c 0
 637 1561 643 1582 644 1582 c 0
 646 1582 659 1579 672 1574 c 0
 686 1568 696 1547 696 1516 c 0
 696 1490 686 1445 674 1419 c 0
 659 1380 581 1102 581 1036 c 0
 581 1032 581 1030 582 1029 c 0
 586 1024 625 1022 675 1022 c 0
 740 1022 827 1030 839 1042 c 0
 861 1067 930 1357 944 1392 c 0
 958 1427 1017 1542 1054 1550 c 0
 1068 1552 1078 1548 1078 1536 c 0
 1078 1525 1060 1473 1040 1420 c 0
 1020 1367 994 1302 982 1276 c 0
 970 1250 960 1214 960 1198 c 0
 960 1182 952 1148 941 1122 c 0
 931.884898469 1102.25061335 926.231675102 1080.77028762 926.231675102 1066.76267266 c 0
 926.231675102 1062.32931042 926.797958971 1058.64449026 928 1056 c 0
 931 1047 947 1043 990 1043 c 0
 1039 1043 1170 1051 1223 1051 c 0
 1275 1051 1307 1048 1327 1040 c 0
 1351 1029 1377 1002 1388 978 c 0
 1401 944 1402 930 1390 918 c 0
 1385.76995851 913.769958514 1381.32816258 911.551584297 1376.15784482 911.551584297 c 0
 1365.43845298 911.551584297 1351.58759019 921.087022005 1330 942 c 1
 1285 982 l 1
 1103 976 l 1
 988 974 912 964 898 952 c 0
 886 941 873 910 868 880 c 0
 865.417244252 865.794843387 863.772545462 853.882714892 863.772545462 844.263614515 c 0
 863.772545462 824.087871505 871.008178523 814 892 814 c 0
 950 814 1143 844 1190 844 c 0
 1222 844 1232 831 1232 802 c 0
 1232 765 1232 767 1050 756 c 0
 901 749 863 740 841 718 c 0
 828 704 803 642 785 582 c 0
 769 522 745 423 732 363 c 0
 723 317 718 287 718 266 c 0
 718 232 737 226 737 193 c 0
 737 144 709 79 694 51 c 0
 680 20 658 -10 650 -16 c 0
 646.350620089 -18.1564517657 642.646207228 -19.1296951209 639.005437319 -19.1296951209 c 0
 620.698111949 -19.1296951209 604 5.47878443638 604 28 c 0
 604 49 610 82 622 140 c 0
 636 210 671 363 701 482 c 0
 731 601 755 705 755 716 c 0
 755 724 744 727 717 727 c 0
 665 727 507 708 496 698 c 0
 481 685 449 561 449 513 c 0
 449 480 470 431 470 401 c 0
 470 365 430 295 398 295 c 0
 371 295 361 323 361 358 c 0
 361 372 362 390 365 409 c 0
 371 452 383 528 394 578 c 0
 401 610 404 641 404 662 c 0
 404 695.108108108 395.051862673 696.002921841 352.60867076 696.002921841 c 0
 350.183345508 696.002921841 347.648648649 696 345 696 c 0
 296 696 195 687 142 687 c 0
 111 687 88 689 79 692 c 0
 63 697 48 714 48 728 c 0
 48 750 65 756 138 764 c 0
 188 769 275 774 329 774 c 0
 409 774 432 778 443 800 c 0
 452 815 468 856 468 889 c 0
EndSplineSet
EndChar

StartChar: plus
Encoding: 43 43 106
Width: 730
VWidth: 0
Flags: HW
LayerCount: 2
Fore
SplineSet
654 576 m 0
 625 576 602 586 565 586 c 0
 496 586 396 570 369 559 c 0
 343 548 341 538 341 462 c 0
 341 401 336 373 321 361 c 0
 308 350 297 349 282 359 c 0
 266 369 261 391 261 456 c 2
 261 540 l 1
 164 540 l 2
 87 540 65 544 55 561 c 0
 48 572 45 587 51 592 c 0
 56 597 109 604 167 608 c 2
 273 614 l 1
 277 722 l 1
 279 818 283 829 304 829 c 0
 316 829 331 821 337 814 c 0
 342 805 349 762 353 718 c 2
 359 639 l 1
 427 639 l 2
 464 639 531 644 576 650 c 0
 604 653 623 656 636 656 c 0
 661 656 664 648 673 627 c 0
 679 614 682 604 682 596 c 0
 682 581 672 576 654 576 c 0
EndSplineSet
EndChar

StartChar: asciitilde
Encoding: 126 126 107
Width: 818
VWidth: 0
Flags: HW
LayerCount: 2
Fore
SplineSet
71 365 m 0
 52 365 48 389 48 419 c 0
 48 452 59 473 107 521 c 0
 156 571 176 584 236 596 c 0
 262 601 281 604 297 604 c 0
 315 604 329 600 344 594 c 0
 365 587 401 554 426 523 c 0
 451 492 477 463 483 458 c 0
 490 453 511 448 528 448 c 0
 545 448 582 464 610 485 c 0
 638 505 684 546 713 578 c 0
 737 605 760 622 767 622 c 0
 774 622 770 589 767 577 c 0
 752 525 680 457 635 430 c 0
 607 412 550 381 500 381 c 0
 487 381 474 383 463 388 c 0
 425 406 359 505 325 529 c 0
 309 539 292 543 275 543 c 0
 231 543 187 514 157 485 c 0
 131 460 109 428 109 415 c 0
 109 398 91 365 71 365 c 0
EndSplineSet
EndChar

StartChar: quotedbl
Encoding: 34 34 108
Width: 621
VWidth: 0
Flags: HW
LayerCount: 2
Fore
SplineSet
83 884 m 0
 67 884 48 893 48 905 c 0
 48 918 69 944 108 983 c 0
 155 1028 178 1059 184 1087 c 0
 186 1097 187 1105 187 1111 c 0
 187 1127 180 1136 162 1150 c 0
 143 1164 136 1172 136 1191 c 0
 136 1216 150 1286 153 1293 c 0
 155 1298 167 1300 179 1300 c 0
 191 1300 214 1278 235 1244 c 0
 260 1205 268 1189 268 1160 c 0
 268 1046 231 1000 166 938 c 0
 130 902 101 884 83 884 c 0
421 854 m 0
 366 854 280 926 280 980 c 0
 280 1005 290 1015 302 1015 c 0
 317 1015 337 1000 346 980 c 0
 353 965 371 944 387 934 c 0
 414 917 418 917 437 934 c 0
 471 964 483 1034 489 1099 c 0
 491 1117 493 1130 493 1141 c 0
 493 1165 485 1175 462 1201 c 0
 443 1224 427 1251 427 1263 c 0
 427 1291 444 1308 473 1308 c 0
 504 1308 529 1292 548 1271 c 0
 568 1247 573 1230 573 1168 c 0
 573 1084 549 979 521 930 c 0
 507 907 456 854 421 854 c 0
EndSplineSet
EndChar

StartChar: quotesingle
Encoding: 39 39 109
Width: 213
VWidth: 0
Flags: HW
LayerCount: 2
Fore
SplineSet
58 998 m 0
 58 1030 61 1070 61 1104 c 0
 61 1140 59 1171 55 1183 c 0
 51 1196 47 1209 47 1220 c 0
 47 1234 53 1244 68 1244 c 0
 76 1244 92 1234 103 1222 c 0
 119 1205 125 1170 132 1084 c 0
 137 1022 146 965 152 959 c 0
 159 952 165 940 165 932 c 0
 165 923 149 918 120 918 c 0
 59 918 58 933 58 998 c 0
EndSplineSet
EndChar

StartChar: at
Encoding: 64 64 110
Width: 1102
VWidth: -233
Flags: HW
LayerCount: 2
Fore
SplineSet
509 444 m 0
 509 489 500 498 454 498 c 0
 429 498 412 492 391 474 c 0
 363 450 354 412 354 346 c 0
 354 297 372 251 413 251 c 0
 428 251 447 258 456 266 c 0
 480 282 509 392 509 444 c 0
534 190 m 0
 534 160 579 115 608 115 c 0
 619 115 651 125 678 139 c 0
 744 169 801 239 824 312 c 0
 836 347 844 405 844 460 c 0
 844 529 837 564 818 607 c 0
 779 698 726 760 600 760 c 0
 519 760 441 712 393 674 c 0
 319 617 216 465 165 371 c 0
 133 312 112 254 107 220 c 0
 106 209 105 199 105 190 c 0
 105 166 110 148 120 129 c 0
 130 110 161 79 192 62 c 0
 242 33 255 30 370 30 c 0
 439 30 505 33 516 39 c 0
 537 47 538 48 515 73 c 0
 503 87 481 117 467 141 c 0
 448 173 435 183 412 183 c 0
 318 183 285 263 285 365 c 0
 285 424 291 447 311 478 c 0
 335 517 413 568 471 568 c 0
 515 568 579 519 608 503 c 0
 623 495 628 484 628 458 c 0
 628 417 611 370 580 307 c 0
 554 256 534 204 534 190 c 0
811 136 m 0
 832 136 1038 240 1045 240 c 0
 1050 240 1054 233 1054 225 c 0
 1054 217 1013 186 962 158 c 0
 831 87 816 72 658 23 c 0
 546 -13 531 -15 376 -15 c 0
 218 -15 210 -14 158 17 c 0
 129 34 92 66 75 87 c 0
 55 114 48 127 48 160 c 0
 48 233 60 279 92 345 c 0
 141 446 243 602 321 677 c 0
 380 734 464 789 545 806 c 0
 565 810 585 812 606 812 c 0
 663 812 721 797 755 774 c 0
 849 710 907 607 907 449 c 0
 907 339 883 271 839 201 c 0
 821 174 808 146 808 138 c 0
 808 136 808 136 811 136 c 0
EndSplineSet
EndChar

StartChar: asciicircum
Encoding: 94 94 111
Width: 655
VWidth: 0
Flags: HW
LayerCount: 2
Fore
SplineSet
426 1389 m 0
 458 1389 483 1364 494 1336 c 0
 521 1267 555 1121 583 1042 c 0
 597 1001 607 956 607 938 c 0
 607 915 598 908 570 908 c 0
 544 908 535 915 528 936 c 0
 520 965 449 1210 437 1234 c 0
 431 1244 422 1253 414 1253 c 0
 406 1253 383 1228 363 1199 c 0
 322 1140 190 946 142 895 c 0
 122 874 96 857 81 857 c 0
 58 857 48 867 48 879 c 0
 48 890 56 903 70 914 c 0
 86 928 137 992 185 1059 c 0
 233 1126 304 1227 341 1284 c 0
 379 1342 418 1389 426 1389 c 0
EndSplineSet
EndChar

StartChar: underscore
Encoding: 95 95 112
Width: 718
VWidth: 0
Flags: HW
LayerCount: 2
Fore
SplineSet
140 32 m 0
 85 32 48 40 48 81 c 0
 48 96 53 111 59 113 c 0
 66 115 201 116 359 116 c 0
 603 116 650 114 659 99 c 0
 665 90 670 74 670 64 c 0
 670 39 648 22 620 22 c 0
 593 22 560 32 529 41 c 0
 513 45 489 48 454 48 c 0
 395 48 197 32 140 32 c 0
EndSplineSet
EndChar

StartChar: grave
Encoding: 96 96 113
Width: 380
VWidth: 0
Flags: HW
LayerCount: 2
Fore
SplineSet
324 1546 m 0
 329 1547 332 1537 332 1524 c 0
 332 1513 304 1459 270 1406 c 0
 235 1353 199 1291 189 1268 c 0
 173 1228 174 1226 194 1220 c 0
 217 1216 233 1189 233 1158 c 0
 233 1150 232 1143 230 1135 c 0
 221 1110 160 1035 130 1035 c 0
 121 1035 99 1050 81 1068 c 0
 58 1091 48 1113 48 1137 c 0
 48 1156 63 1203 81 1239 c 0
 99 1275 152 1355 199 1418 c 0
 247 1482 292 1536 301 1539 c 0
 309 1542 318 1546 324 1546 c 0
EndSplineSet
EndChar

StartChar: periodcentered
Encoding: 183 183 114
Width: 226
VWidth: 0
Flags: HW
LayerCount: 2
Fore
SplineSet
157 754 m 0
 175 752 179 743 177 711 c 0
 175 663 130 620 81 620 c 0
 54 620 48 624 48 648 c 0
 48 687 82 734 110 747 c 0
 124 752 144 755 157 754 c 0
EndSplineSet
EndChar

StartChar: guillemotleft
Encoding: 171 171 115
Width: 1098
VWidth: 0
Flags: HW
LayerCount: 2
Fore
SplineSet
889 471 m 0
 889 452 876 430 855 430 c 0
 840 430 815 439 769 458 c 0
 722 478 651 515 614 539 c 0
 572 565 535 588 535 614 c 0
 535 637 556 654 576 654 c 0
 586 654 625 673 662 696 c 0
 742 744 820 786 907 818 c 0
 939 830 978 838 994 838 c 0
 995 838 996 838 997 838 c 0
 1021 838 1050 821 1050 800 c 0
 1050 771 946 747 916 747 c 0
 878 747 707 650 687 630 c 2
 664 607 l 1
 691 584 l 2
 706 572 726 562 734 562 c 0
 743 562 782 546 820 527 c 0
 867 503 889 486 889 471 c 0
556 394 m 0
 556 387 550 359 535 359 c 0
 523 359 500 367 475 380 c 0
 395 421 309 491 223 530 c 0
 186 547 132 567 107 574 c 0
 70 583 48 593 48 621 c 0
 48 642 68 644 100 650 c 0
 123 655 183 675 230 696 c 0
 277 717 391 773 484 820 c 0
 602 880 660 904 690 904 c 0
 691 904 691 904 692 904 c 0
 724 903 737 893 737 881 c 0
 737 850 661 815 635 810 c 0
 606 804 302 657 288 636 c 0
 284 632 282 627 282 623 c 0
 282 614 293 602 318 579 c 0
 369 535 468 477 522 439 c 0
 545 425 556 410 556 394 c 0
EndSplineSet
EndChar

StartChar: guillemotright
Encoding: 187 187 116
Width: 819
VWidth: 0
Flags: HW
LayerCount: 2
Fore
SplineSet
292 581 m 0
 292 597 256 620 248 620 c 0
 219 620 79 696 64 711 c 0
 57 720 53 733 53 744 c 0
 53 758 59 770 76 770 c 0
 84 770 125 753 164 731 c 0
 244 690 326 654 412 631 c 0
 444 623 471 614 471 588 c 0
 471 568 458 550 437 550 c 0
 424 550 378 532 334 509 c 0
 290 486 226 438 190 403 c 0
 140 356 122 344 97 344 c 0
 64 344 51 351 49 379 c 0
 47 402 50 411 69 417 c 0
 83 422 111 437 132 451 c 0
 152 464 198 498 235 526 c 0
 277 558 292 571 292 581 c 0
338 793 m 0
 306 793 255 842 255 873 c 0
 255 894 268 901 285 901 c 0
 317 901 364 877 379 871 c 0
 449 834 553 806 649 777 c 0
 705 761 756 739 764 730 c 0
 769 725 771 720 771 714 c 0
 771 704 763 691 745 668 c 0
 726 645 702 611 692 595 c 0
 682 579 605 497 521 414 c 0
 438 330 365 261 363 261 c 0
 346 261 312 286 312 305 c 0
 312 317 328 335 348 347 c 0
 414 387 551 536 600 601 c 0
 632 641 644 661 644 675 c 0
 644 680 642 683 640 687 c 0
 629 710 371 793 338 793 c 0
EndSplineSet
EndChar

StartChar: onequarter
Encoding: 188 188 117
Width: 1626
VWidth: -151
Flags: HW
LayerCount: 2
Fore
SplineSet
904 512 m 0
 904 476 957 474 1013 474 c 0
 1020 474 1028 474 1035 474 c 0
 1082 474 1129 480 1138 486 c 0
 1161 502 1179 679 1193 704 c 0
 1202 721 1219 729 1239 726 c 0
 1264 723 1272 712 1271 685 c 0
 1270 664 1264 611 1258 569 c 2
 1245 490 l 1
 1404 500 l 2
 1451 503 1485 504 1509 504 c 0
 1558 504 1569 498 1575 483 c 0
 1581 467 1579 452 1571 444 c 0
 1562 435 1487 424 1403 420 c 0
 1277 411 1245 404 1233 382 c 0
 1225 366 1215 275 1209 174 c 0
 1205 75 1193 -12 1187 -15 c 0
 1182.40032511 -18.3117659236 1177.56369171 -19.7278638292 1172.70185804 -19.7278638292 c 0
 1151.13881507 -19.7278638292 1129.08006502 8.12777892787 1125 22 c 0
 1124 25 1124 31 1124 41 c 0
 1124 91 1131 222 1131 306 c 0
 1131 346 1129 375 1125 381 c 0
 1116 391 1071 399 1005 399 c 0
 948 399 880 410 851 420 c 0
 819 436 799 452 799 469 c 0
 799 485 809 521 825 550 c 0
 861 620 972 825 1024 880 c 0
 1046 905 1073 925 1082 925 c 0
 1091 925 1108 916 1108 903 c 0
 1108 887 1086 843 1057 797 c 0
 1025 749 978 668 951 620 c 0
 925 572 904 524 904 512 c 0
1161 1406 m 0
 1184 1406 1202 1374 1202 1342 c 0
 1202 1324 1191 1313 1165 1294 c 0
 1140 1277 1014 1158 881 1028 c 0
 748 898 580 739 505 678 c 0
 431 617 362 565 353 564 c 0
 345 564 326 575 326 587 c 0
 326 605 437 718 640 910 c 0
 818 1075 1001 1255 1048 1310 c 0
 1095 1362 1145 1406 1161 1406 c 0
576 990 m 0
 576 945 565 942 530 942 c 0
 488 942 467 973 467 1018 c 0
 467 1062 527 1266 527 1305 c 0
 527 1321 522 1331 513 1331 c 0
 505 1331 441 1285 368 1228 c 0
 298 1170 208 1111 172 1099 c 0
 149 1091 119 1084 95 1084 c 0
 68 1084 48 1093 48 1118 c 0
 48 1145 67 1159 99 1166 c 0
 125 1172 165 1188 192 1201 c 0
 218 1214 315 1287 407 1362 c 0
 501 1436 586 1497 602 1497 c 0
 634 1497 646 1466 646 1425 c 0
 646 1353 613 1249 601 1213 c 0
 584 1156 575 1100 575 1050 c 0
 575 1031 576 1004 576 990 c 0
EndSplineSet
EndChar

StartChar: onehalf
Encoding: 189 189 118
Width: 1783
VWidth: -253
Flags: HW
LayerCount: 2
Fore
SplineSet
1552 106 m 0
 1650 106 1735 103 1735 82 c 0
 1735 44 1481 17 1334 4 c 0
 1182 -11 1033 -22 1006 -22 c 0
 956 -22 910 -3 910 39 c 0
 910 49 978 140 1059 236 c 0
 1141 335 1228 454 1250 502 c 0
 1272 550 1290 598 1290 610 c 0
 1290 634 1278 643 1260 643 c 0
 1201 643 1102 578 1077 549 c 0
 1057 529 1031 512 1011 512 c 0
 993 512 980 524 980 538 c 0
 980 552 1004 590 1034 624 c 0
 1084 681 1184 732 1283 732 c 0
 1329 732 1355 719 1376 682 c 0
 1386 665 1390 652 1390 635 c 0
 1390 615 1384 589 1370 544 c 0
 1320 396 1258 342 1158 220 c 0
 1108 162 1066 106 1066 96 c 0
 1066 90 1081 87 1108 87 c 0
 1208 87 1337 106 1552 106 c 0
1380 1457 m 0
 1399 1457 1410 1399 1410 1362 c 0
 1410 1329 1401 1321 1370 1312 c 0
 1348 1308 1286 1260 1236 1206 c 0
 1184 1150 1108 1061 1066 1004 c 0
 1024 947 886 796 758 668 c 0
 622 533 481 410 423 376 c 0
 367 343 340 329 323 329 c 0
 312 329 306 335 297 344 c 0
 275 366 271 372 292 390 c 0
 304 402 364 444 424 488 c 0
 482 532 593 620 663 688 c 0
 733 756 889 926 1006 1072 c 0
 1123 1214 1251 1364 1290 1400 c 0
 1327 1433 1367 1457 1380 1457 c 0
679 1316 m 0
 679 1321 679 1324 675 1324 c 0
 660 1324 589 1280 508 1218 c 0
 420 1150 311 1076 261 1054 c 0
 213 1032 156 1012 136 1012 c 0
 97 1012 48 1023 48 1062 c 0
 48 1082 74 1098 136 1112 c 0
 184 1124 252 1150 286 1172 c 0
 361 1220 589 1405 675 1444 c 0
 705 1458 727 1465 744 1465 c 0
 782 1465 790 1430 790 1358 c 0
 790 1313 775 1216 754 1140 c 0
 735 1067 725 1008 725 957 c 0
 725 927 732 883 732 860 c 0
 732 824 718 812 688 812 c 0
 644 812 606 859 606 903 c 0
 606 943 621 1028 642 1118 c 0
 664 1209 679 1291 679 1316 c 0
EndSplineSet
EndChar

StartChar: threequarters
Encoding: 190 190 119
Width: 1476
VWidth: -47
Flags: HW
LayerCount: 2
Fore
SplineSet
740 365 m 0
 679 365 595 387 595 432 c 0
 595 448 610 491 628 527 c 0
 668 607 791 816 852 874 c 0
 878 898 912 918 928 918 c 0
 946 918 955 909 955 893 c 0
 955 879 930 839 896 804 c 0
 862 770 802 686 764 618 c 0
 724 551 695 485 695 468 c 0
 695 448 705 442 736 442 c 0
 785 442 853 449 896 454 c 0
 952 461 954 463 962 527 c 0
 973 594 970 659 1014 683 c 0
 1023.93337033 688.551001066 1032.4156841 691.114532744 1039.44694131 691.114532744 c 0
 1056.48231377 691.114532744 1065 676.066629671 1065 652 c 0
 1065 621 1048 534 1048 503 c 0
 1048 489 1048 485 1059 485 c 0
 1111 485 1330 546 1354 558 c 0
 1371 568 1394 571 1405 567 c 0
 1417 561 1428 553 1428 546 c 0
 1428 539 1417 523 1403 511 c 0
 1375 486 1068 411 1042 385 c 0
 1023 367 1017 327 1013 185 c 0
 1012 88 1002 0 995 -8 c 0
 984 -20 975 -22 952 -11 c 0
 935 -1 928 7 928 61 c 0
 928 89 929 130 932 191 c 2
 941 377 l 1
 820 369 l 2
 788 367 761 365 740 365 c 0
110 518 m 0
 92 518 71 530 71 539 c 0
 71 550 112 588 163 625 c 0
 217 663 344 776 445 874 c 0
 546 971 713 1127 814 1221 c 0
 915 1315 1005 1390 1012 1390 c 0
 1019 1390 1031 1378 1039 1361 c 0
 1051 1341 1050 1328 1036 1311 c 0
 1026 1299 987 1264 949 1235 c 0
 866 1168 306 638 218 574 c 0
 169 539 130 518 110 518 c 0
48 1350 m 0
 48 1449 199 1471 307 1474 c 0
 381 1474 405 1469 428 1446 c 0
 444 1430 456 1407 456 1395 c 0
 456 1349 403 1279 380 1245 c 1
 353 1207 l 1
 412 1158 l 2
 459 1120 469 1100 469 1063 c 0
 469 985 442 957 390 916 c 0
 353 887 324 876 280 876 c 0
 246 876 198 885 172 895 c 0
 146 906 122 926 122 937 c 0
 122 948 133 969 145 981 c 0
 165 1000 170 1000 200 981 c 0
 218 970 253 960 277 960 c 0
 336 960 372 991 372 1051 c 0
 372 1087 362 1101 325 1126 c 0
 295 1144 267 1169 267 1195 c 0
 267 1214 280 1242 308 1283 c 0
 336 1324 359 1367 359 1379 c 0
 359 1394 355 1411 341 1411 c 0
 325 1411 287 1406 244 1398 c 0
 185 1387 138 1369 119 1351 c 0
 101 1334 79 1320 71 1320 c 0
 55 1320 48 1334 48 1350 c 0
EndSplineSet
EndChar

StartChar: quotesinglbase
Encoding: 8218 8218 120
Width: 345
VWidth: 0
Flags: HW
LayerCount: 2
Fore
SplineSet
75 321 m 0
 75 380 125 420 183 420 c 0
 229 420 297 404 297 371 c 0
 297 358 290 338 275 301 c 0
 244 224 192 109 163 39 c 0
 147 -4 131 -30 80 -30 c 0
 56 -30 48 -24 48 -8 c 0
 48 4 56 19 66 28 c 0
 102 59 117 107 139 170 c 0
 150 201 157 231 157 243 c 0
 157 254 143 257 130 257 c 0
 100 257 75 288 75 321 c 0
EndSplineSet
EndChar

StartChar: quoteleft
Encoding: 8216 8216 121
Width: 474
VWidth: 0
Flags: HW
LayerCount: 2
Fore
SplineSet
145 986 m 0
 125 986 48 1043 48 1064 c 0
 48 1073 79 1131 117 1195 c 0
 155 1259 208 1341 237 1375 c 0
 266 1409 302 1457 318 1481 c 0
 335 1504 359 1524 370 1524 c 0
 393 1524 426 1494 426 1471 c 0
 426 1463 405 1442 380 1426 c 0
 311 1382 261 1300 218 1223 c 1
 183 1155 l 1
 220 1105 l 2
 239 1078 250 1060 250 1045 c 0
 250 1028 235 1016 202 1003 c 0
 180 994 155 986 145 986 c 0
EndSplineSet
EndChar

StartChar: quotedblbase
Encoding: 8222 8222 122
Width: 532
VWidth: 0
Flags: HW
LayerCount: 2
Fore
SplineSet
389 331 m 0
 389 357 353 391 353 416 c 0
 353 441 374 501 377 513 c 0
 379 520 393 527 409 527 c 0
 446 527 485 475 485 430 c 0
 485 361 467 280 444 225 c 0
 429 185 416 137 416 118 c 0
 416 98 406 69 393 53 c 0
 380 37 370 17 370 10 c 0
 370 2 357 -5 341 -5 c 0
 311 -5 302 8 302 30 c 0
 302 45 306 64 312 85 c 0
 332 160 364 201 380 281 c 0
 386 304 389 319 389 331 c 0
81 437 m 0
 81 482 121 520 167 520 c 0
 221 520 254 464 254 405 c 0
 254 377 246 329 236 299 c 0
 226 269 193 191 164 125 c 0
 118 26 110 9 88 9 c 0
 68 9 48 19 48 35 c 0
 48 67 162 292 162 314 c 0
 162 327 143 353 121 373 c 0
 97 395 81 420 81 437 c 0
EndSplineSet
EndChar

StartChar: quotedblleft
Encoding: 8220 8220 123
Width: 706
VWidth: 0
Flags: HW
LayerCount: 2
Fore
SplineSet
309 1569 m 0
 333 1569 345 1550 345 1522 c 0
 345 1491 326 1474 301 1462 c 0
 286 1454 259 1423 239 1391 c 0
 214 1347 204 1317 203 1266 c 0
 201 1191 200 1184 145 1171 c 0
 138 1170 132 1169 127 1169 c 0
 109 1169 98 1177 79 1201 c 0
 62 1221 48 1246 48 1259 c 0
 48 1285 94 1334 112 1340 c 0
 118 1342 146 1383 175 1430 c 0
 203 1477 239 1527 254 1541 c 0
 270 1556 295 1569 309 1569 c 0
417 1182 m 0
 395 1182 374 1203 374 1225 c 0
 374 1246 390 1288 423 1355 c 0
 458 1424 501 1489 534 1524 c 0
 564 1555 596 1580 605 1580 c 0
 624 1580 658 1572 658 1553 c 0
 658 1545 627 1508 589 1469 c 0
 552 1430 518 1383 513 1366 c 0
 511 1360 511 1354 511 1346 c 0
 511 1331 514 1313 519 1300 c 0
 528 1280 535 1267 535 1256 c 0
 535 1247 529 1239 514 1231 c 0
 495 1220 449 1182 417 1182 c 0
EndSplineSet
EndChar

StartChar: ellipsis
Encoding: 8230 8230 124
Width: 817
VWidth: 0
Flags: HW
LayerCount: 2
Fore
SplineSet
696 311 m 0
 652 311 634 349 634 395 c 0
 634 432 662 460 698 460 c 0
 732 460 769 432 769 399 c 0
 769 369 728 311 696 311 c 0
48 389 m 0
 48 424 106 460 142 460 c 0
 176 460 249 437 249 399 c 0
 249 394 248 388 245 383 c 0
 235 368 146 322 120 322 c 0
 92 325 48 360 48 389 c 0
410 326 m 0
 366 326 334 345 334 391 c 0
 334 431 386 471 427 471 c 0
 471 471 483 448 483 400 c 0
 483 353 457 326 410 326 c 0
EndSplineSet
EndChar

StartChar: Euro
Encoding: 8364 8364 125
Width: 1642
VWidth: -401
Flags: HW
LayerCount: 2
Fore
SplineSet
603 800 m 0
 603 795 605 796 613 796 c 0
 644 796 742 807 856 826 c 0
 990 847 1163 872 1240 883 c 0
 1286 888 1334 896 1371 896 c 0
 1411 896 1439 887 1439 858 c 0
 1439 808 1387 792 1323 792 c 0
 1187 792 818 716 693 690 c 0
 619 674 554 650 543 637 c 0
 533 626 522 592 519 563 c 0
 518 553.4 517.4 545.4 517.4 538.76 c 0
 517.4 515.131682442 524.997674607 508.724760661 549.205085484 508.724760661 c 0
 552.208618904 508.724760661 555.467852479 508.823392624 559 509 c 0
 613 512 1141 572 1187 582 c 0
 1217 590 1247 611 1258 637 c 0
 1269 661 1295 682 1311 682 c 0
 1348 682 1383 600 1383 565 c 0
 1383 551 1369 530 1355 517 c 0
 1323 493 614 402 571 392 c 0
 523 379 515 373 515 315 c 0
 515 308 515 300 515 291 c 0
 515 235 528 187 554 157 c 0
 615 75 669 83 834 80 c 0
 920 80 1120 93 1280 114 c 0
 1416 130 1496 138 1540 138 c 0
 1582 138 1594 132 1594 105 c 0
 1594 77 1547 72 1487 62 c 0
 1337 30 987 -24 797 -24 c 0
 655 -22 610 -15 559 14 c 0
 471 65 419 143 403 269 c 0
 394 347 391 367 367 367 c 0
 360 367 353 365 343 363 c 0
 316 357 234 348 165 348 c 0
 117 348 75 352 61 366 c 0
 52 375 48 384 48 391 c 0
 48 456 373 458 399 504 c 0
 407 515 413 552 413 586 c 2
 413 645 l 1
 315 645 l 2
 247 645 158 658 158 707 c 0
 158 713 160 719 162 725 c 0
 172 749 200 755 312 755 c 0
 450 755 452 757 482 811 c 0
 535 912 653 1110 730 1200 c 0
 831 1318 1008 1443 1160 1517 c 0
 1240 1557 1307 1579 1357 1579 c 0
 1417 1579 1469 1565 1469 1520 c 0
 1469 1491 1436 1467 1408 1453 c 0
 1382 1442 1324 1432 1274 1432 c 0
 1196 1432 1165 1419 1016 1320 c 0
 893 1238 827 1178 768 1096 c 0
 722 1035 664 944 640 896 c 0
 617 852 603 812 603 800 c 0
EndSplineSet
EndChar

StartChar: uniFB00
Encoding: 64256 64256 126
Width: 1187
VWidth: -365
Flags: HW
LayerCount: 2
Fore
SplineSet
544 269 m 0
 523 269 414 198 414 178 c 0
 414 161 505 43 513 35 c 0
 516 31 523 34 531 42 c 0
 540 51 557 180 557 229 c 0
 557 258 553 269 545 269 c 0
 544 269 l 0
302 858 m 0
 302 852 302 849 306 849 c 0
 316 849 348 878 384 917 c 0
 424 960 488 1055 524 1129 c 0
 560 1203 592 1276 592 1290 c 0
 592 1317 585 1327 572 1327 c 0
 560 1327 543 1318 523 1306 c 0
 409 1234 357 1116 319 960 c 0
 308 916 302 875 302 858 c 0
241 473 m 0
 241 444 244 423 257 423 c 0
 272 423 309 441 346 466 c 0
 467 549 587 699 675 828 c 0
 780 981 765 1002 852 1172 c 0
 924 1311 952 1341 1025 1442 c 0
 1048 1472 1070 1497 1073 1497 c 0
 1095 1497 1139 1466 1139 1441 c 0
 1139 1427 1117 1376 1092 1327 c 0
 1067 1278 1012 1185 969 1120 c 0
 878 982 736 737 693 564 c 0
 678 510 670 460 670 443 c 0
 670 426 694 434 717 444 c 0
 738 454 765 462 777 462 c 0
 798 462 1080 595 1100 595 c 0
 1109 595 1132 590 1132 579 c 0
 1132 557 1040 492 1029 492 c 0
 1023 492 962 465 890 431 c 0
 818 399 739 360 710 347 c 0
 681 334 649 303 637 278 c 0
 624 249 613 168 609 59 c 0
 607 15 606 -18 606 -44 c 0
 606 -111 613 -128 635 -157 c 0
 652 -182 665 -214 665 -232 c 0
 665 -257 642 -283 614 -283 c 0
 606 -283 597 -281 588 -276 c 0
 574 -267 529 -196 489 -118 c 0
 449 -40 389 62 357 106 c 0
 323 150 296 192 296 196 c 0
 296 202 309 219 329 236 c 0
 347 254 401 289 450 315 c 0
 499 340 552 373 565 386 c 0
 589 407 619 514 619 569 c 0
 619 575 619 582 615 582 c 0
 605 582 566 549 518 499 c 0
 454 434 388 382 324 350 c 2
 227 301 l 1
 216 7 l 2
 208 -187 198 -301 184 -333 c 0
 171.769725975 -367.070049069 158.776290712 -379.771583463 139.019477094 -379.771583463 c 0
 136.160657564 -379.771583463 133.160224956 -379.505635993 130 -379 c 0
 100 -375 95 -364 95 -307 c 0
 95 -251 127 54 127 176 c 0
 127 231 111 265 84 296 c 0
 69 312 63 326 63 338 c 0
 63 363 88 381 120 388 c 0
 152 396 156 406 168 509 c 0
 173 549 175 588 175 615 c 0
 175 657 162 669 121 669 c 0
 90 669 48 687 48 711 c 0
 48 730 79 748 96 748 c 0
 106 748 114 745 128 745 c 0
 174 745 191 763 199 815 c 0
 217 907 269 1102 305 1181 c 0
 340 1258 422 1353 488 1387 c 0
 512 1399 564 1416 606 1416 c 0
 657 1416 680 1383 680 1333 c 0
 680 1310 655 1232 624 1159 c 0
 558 1011 471 873 363 782 c 0
 276 712 259 670 245 532 c 0
 243 508 241 489 241 473 c 0
EndSplineSet
Ligature2: "liga" f f
EndChar

StartChar: uniFB01
Encoding: 64257 64257 127
Width: 1228
VWidth: -451
Flags: HW
LayerCount: 2
Fore
SplineSet
1130 971 m 0
 1078 971 1059 1020 1059 1072 c 0
 1059 1106 1066 1114 1098 1114 c 0
 1126 1114 1141 1098 1161 1059 c 0
 1172 1035 1180 1016 1180 1001 c 0
 1180 981 1166 971 1130 971 c 0
513 992 m 0
 513 989 513 986 515 986 c 0
 521 986 552 1013 583 1050 c 0
 618 1089 667 1167 695 1223 c 0
 723 1279 748 1345 748 1378 c 0
 748 1414 733 1428 715 1428 c 0
 693 1428 666 1409 649 1384 c 0
 593 1310 566 1209 535 1097 c 0
 522 1049 513 1007 513 992 c 0
120 820 m 0
 144 820 167 799 196 799 c 0
 254 799 326 840 357 859 c 0
 391 880 409 903 409 928 c 0
 409 950 421 1026 441 1099 c 0
 458 1172 490 1275 507 1327 c 0
 543 1428 573 1484 654 1519 c 0
 681 1530 703 1540 706 1541 c 0
 735 1541 822 1489 835 1465 c 0
 845 1445 852 1418 852 1398 c 0
 852 1378 821 1299 783 1218 c 0
 731 1110 684 1040 601 952 c 0
 539 888 482 811 472 786 c 0
 462 760 412 552 412 468 c 0
 412 440 415 428 443 428 c 0
 519 428 721 525 751 541 c 0
 815 576 894 624 922 646 c 0
 950 668 992 719 1013 757 c 0
 1034 796 1062 828 1076 828 c 0
 1090 828 1111 818 1122 805 c 0
 1131 795 1135 776 1135 745 c 0
 1135 712 1125 637 1125 606 c 0
 1125 573 1131 557 1147 541 c 0
 1161 526 1167 513 1167 501 c 0
 1167 470 1125 451 1083 451 c 0
 1039 451 994 472 994 519 c 0
 994 543 985 558 971 558 c 0
 958 558 912 534 866 506 c 0
 778 449 615 385 523 344 c 0
 495 331 461 322 450 322 c 0
 439 322 416 306 401 289 c 0
 382 268 376 243 376 144 c 0
 376 -8 382 -208 382 -325 c 0
 382 -371 378 -380 361 -380 c 0
 335 -380 305 -372 296 -359 c 0
 292 -349 282 -284 278 -213 c 0
 264 -48 222 100 159 215 c 0
 134 260 99 320 84 347 c 0
 72.1786110232 368.278500158 62.8415818213 393.283539979 62.8415818213 409.778209771 c 0
 62.8415818213 414.213402567 63.5166481892 418.033296378 65 421 c 0
 69 435 90 448 107 448 c 0
 122 448 157 437 181 424 c 0
 206 411 250 400 278 400 c 2
 327 400 l 1
 338 508 l 1
 342 567 351 640 355 672 c 0
 357 686 358 697 358 707 c 0
 358 732 351 742 335 742 c 0
 322 742 302 735 276 725 c 0
 247 712 183 701 140 701 c 0
 81 701 48 702 48 738 c 0
 48 779 80 820 120 820 c 0
EndSplineSet
Ligature2: "liga" f i
EndChar

StartChar: uniFB02
Encoding: 64258 64258 128
Width: 1569
VWidth: -166
Flags: HW
LayerCount: 2
Fore
SplineSet
230 423 m 0
 205 423 197 409 197 388 c 0
 197 356 216 310 224 279 c 2
 244 207 l 1
 257 255 l 2
 261 268 263 291 263 317 c 0
 263 366 254 423 230 423 c 0
669 1453 m 0
 652 1453 630 1437 601 1418 c 0
 520 1361 472 1247 440 1135 c 0
 426 1086 415 1041 415 1037 c 0
 415 1033 424 1028 437 1028 c 0
 448 1028 495 1068 541 1116 c 0
 587 1164 641 1243 663 1292 c 0
 684 1337 698 1387 698 1409 c 0
 698 1439 681 1453 669 1453 c 0
1026 735 m 0
 1026 663 1070 583 1154 583 c 0
 1224 583 1303 599 1353 626 c 0
 1389 646 1441 661 1466 661 c 0
 1501 661 1521 656 1521 641 c 0
 1521 634 1516 624 1508 612 c 0
 1461 551 1328 477 1201 477 c 0
 1122 477 1061 508 1015 550 c 2
 964 596 l 1
 966 778 l 2
 966 796 967 814 967 831 c 0
 967 908 964 963 961 963 c 0
 958 963 901 914 839 854 c 0
 698 720 618 641 460 539 c 0
 401 501 346 462 342 454 c 0
 338 446 330 258 327 38 c 0
 323 -264 315 -365 301 -375 c 0
 290 -382 267 -380 252 -372 c 0
 237 -364 214 -332 201 -304 c 0
 188 -273 174 -179 167 -94 c 0
 157 73 134 287 79 396 c 0
 64 431 48 472 48 487 c 0
 48 530 101 533 153 533 c 0
 248 533 268 552 278 657 c 0
 285 707 295 773 299 801 c 0
 301 814 302 824 302 831 c 0
 302 851 291 853 252 853 c 0
 197 853 160 869 160 917 c 0
 160 932 167 951 178 958 c 0
 188 965 202 961 205 951 c 0
 208 940 226 932 248 932 c 0
 310 932 330 1007 341 1070 c 0
 345 1106 364 1184 384 1243 c 0
 411 1331 435 1366 509 1443 c 0
 590 1527 605 1537 664 1537 c 0
 717 1537 738 1527 763 1495 c 0
 780 1472 789 1454 789 1432 c 0
 789 1424 788 1416 786 1406 c 0
 755 1220 631 1061 495 962 c 0
 442 924 398 892 398 892 c 1
 398 892 360 653 360 619 c 0
 360 615 360 614 363 614 c 0
 374 614 410 628 451 648 c 0
 497 670 606 752 691 829 c 0
 855 975 1000 1141 1104 1310 c 0
 1135 1359 1168 1428 1181 1460 c 0
 1195 1500 1210 1531 1236 1531 c 0
 1262 1531 1307 1486 1307 1466 c 0
 1307 1455 1275 1395 1239 1329 c 0
 1203 1263 1150 1164 1122 1105 c 0
 1094 1048 1058 940 1045 869 c 0
 1033 813 1026 771 1026 735 c 0
EndSplineSet
Ligature2: "liga" f l
EndChar

StartChar: uniFB03
Encoding: 64259 64259 129
Width: 1581
VWidth: -447
Flags: HW
LayerCount: 2
Fore
SplineSet
1396 1168 m 0
 1396 1216 1418 1276 1464 1276 c 0
 1490 1276 1498 1264 1498 1230 c 0
 1498 1203 1505 1165 1509 1144 c 0
 1518 1114 1512 1105 1485 1105 c 0
 1435 1105 1396 1116 1396 1168 c 0
908 -71 m 0
 914 -71 913 -67 913 -59 c 0
 913 14 865 234 858 291 c 0
 854 325 840 354 828 354 c 0
 816 352 781 342 753 328 c 0
 719 313 707 308 707 292 c 0
 707 284 710 273 716 258 c 0
 728 225 868 -71 908 -71 c 0
694 1395 m 0
 680 1395 659 1387 644 1378 c 0
 629 1369 584 1313 546 1255 c 0
 507 1195 463 1112 448 1072 c 0
 434 1032 423 993 423 984 c 0
 423 975 432 969 444 969 c 0
 454 969 501 1006 543 1051 c 0
 621 1135 680 1227 706 1341 c 0
 715 1381 710 1395 694 1395 c 0
1043 -290 m 0
 1043 -336 1022 -375 998 -375 c 0
 976 -375 949 -350 922 -315 c 0
 894 -279 800 -115 714 49 c 0
 614 240 571 333 571 364 c 0
 571 385 613 403 639 412 c 0
 666 420 724 440 766 460 c 0
 830 487 847 507 856 546 c 0
 860 574 867 646 867 706 c 0
 867 766 861 816 852 816 c 0
 844 816 818 785 792 747 c 0
 740 666 512 435 424 390 c 0
 388 370 347 342 332 328 c 0
 311 306 304 264 304 135 c 0
 304 25 315 -74 336 -158 c 0
 348 -203 363 -263 363 -310 c 0
 363 -350 353 -380 320 -380 c 0
 304 -380 276 -359 262 -332 c 0
 248 -306 226 -218 206 -138 c 0
 185 -58 150 60 124 126 c 0
 100 190 73 250 64 259 c 0
 54 269 48 288 48 304 c 0
 48 340 200 389 216 411 c 0
 226 423 240 511 249 610 c 0
 255 678 258 720 258 748 c 0
 258 793 249 801 225 820 c 0
 203 836 184 863 184 877 c 0
 184 891 202 900 224 900 c 0
 292 900 299 931 320 999 c 0
 359 1131 448 1319 540 1411 c 0
 588 1459 645 1499 669 1507 c 0
 676.502577388 1509.14359354 684.292341855 1510.13843876 692.196152423 1510.13843876 c 0
 713.789764467 1510.13843876 736.234628196 1502.71281292 756 1491 c 0
 794 1467 800 1450 800 1363 c 0
 800 1289 787 1243 754 1180 c 0
 697 1074 598 947 490 891 c 0
 380 839 381 820 357 679 c 0
 345 617 332 552 328 531 c 0
 327 524 327 518 327 513 c 0
 327 490 337 480 352 480 c 0
 366 480 385 488 404 501 c 0
 497 563 650 723 720 823 c 0
 759 880 820 972 854 1029 c 0
 926 1149 926 1215 962 1353 c 0
 974 1401 989 1459 993 1485 c 0
 1002 1523 1014 1529 1068 1537 c 0
 1100 1540 1128 1546 1150 1546 c 0
 1183 1546 1217 1523 1217 1479 c 0
 1217 1449 1196 1406 1134 1296 c 0
 1068 1180 1026 1083 1004 991 c 0
 979 882 956 759 956 644 c 0
 956 614 955 591 971 591 c 0
 1012 591 1160 713 1209 751 c 0
 1279 805 1349 871 1365 895 c 0
 1382 923 1411 963 1443 963 c 0
 1472 963 1495 932 1495 899 c 0
 1495 850 1474 772 1474 717 c 0
 1474 670 1483 628 1509 609 c 0
 1523 599 1533 571 1533 549 c 0
 1533 515 1524 508 1478 508 c 0
 1402 508 1384 523 1362 583 c 0
 1354.58342613 603.024749443 1350.46718634 625.799777283 1350.46718634 640.31035636 c 0
 1350.46718634 645.364847808 1350.96662955 649.416573868 1352 652 c 0
 1354 661 1357 697 1341 697 c 0
 1321 697 1259 659 1152 582 c 0
 1036 496 968 434 960 408 c 0
 958 402 957 391 957 376 c 0
 957 232 1009 -40 1029 -155 c 0
 1037 -204 1043 -255 1043 -290 c 0
EndSplineSet
Ligature2: "liga" f f i
EndChar

StartChar: c_k.liga
Encoding: 993082 993082 130
Width: 2220
VWidth: -575
Flags: HW
LayerCount: 2
Fore
SplineSet
962 701 m 0
 962 588 915 523 792 523 c 0
 754 523 726 535 726 554 c 0
 726 565 736 579 760 595 c 0
 787 614 808 651 808 678 c 0
 808 748 769 772 716 772 c 0
 621 772 478 695 418 656 c 0
 340 605 257 528 232 488 c 0
 205 442 192 378 192 304 c 0
 192 175 230 103 344 103 c 0
 384 103 467 121 532 148 c 0
 724 218 882 367 998 542 c 0
 1057 629 1137 754 1173 819 c 0
 1226 914 1310 1182 1310 1309 c 0
 1310 1328 1325 1377 1342 1419 c 0
 1365 1474 1379 1491 1414 1491 c 0
 1475 1491 1491 1489 1491 1409 c 0
 1491 1391 1491 1368 1490 1340 c 0
 1486 1142 1351 817 1319 635 c 0
 1308 579 1303 530 1303 499 c 0
 1303 477 1303 459 1316 459 c 0
 1366 459 1587 723 1612 752 c 0
 1652 801 1703 842 1724 842 c 0
 1761 842 1793 806 1793 765 c 0
 1793 751 1790 736 1781 722 c 0
 1760 676 1614 507 1614 441 c 0
 1614 317 1751 248 1887 248 c 0
 1956 248 2007 268 2089 268 c 0
 2147 265 2172 253 2172 236 c 0
 2172 216 2135 189 2079 165 c 0
 2015 136 1968 126 1897 126 c 0
 1707 126 1595 176 1520 287 c 0
 1493 329 1466 363 1456 363 c 0
 1446 363 1405 338 1361 308 c 0
 1317 278 1262 255 1241 255 c 0
 1171 255 1169 320 1158 407 c 0
 1150 462 1147 485 1140 485 c 0
 1135 485 1128 471 1116 446 c 0
 1082 374 788 139 722 99 c 0
 661 61 441 -28 346 -28 c 0
 234 -28 128 42 88 124 c 0
 63 168 48 250 48 315 c 0
 48 378 63 458 80 490 c 0
 128 585 373 794 472 842 c 0
 533 870 607 884 698 884 c 0
 820 884 840 878 897 821 c 0
 933 785 962 733 962 701 c 0
EndSplineSet
Ligature2: "dlig" c k
EndChar

StartChar: Q_u.liga
Encoding: 993083 993083 131
Width: 2264
VWidth: -349
Flags: HW
LayerCount: 2
Fore
SplineSet
951 906 m 0
 951 890 955 852 959 852 c 0
 963 852 971 878 985 939 c 0
 1014 1075 1032 1107 1056 1228 c 0
 1057.74234614 1241.59029991 1058.63467666 1254.5734458 1058.63467666 1265.72230562 c 0
 1058.63467666 1286.56726022 1055.51530772 1301 1049 1301 c 0
 1017 1301 986 1111 986 1075 c 0
 986 1009 951 973 951 906 c 0
737 898 m 0
 737 864 734 799 734 758 c 0
 734 684 740 625 752 596 c 0
 766 562 789 538 803 538 c 0
 825 538 830 582 830 742 c 0
 830 898 825 948 801 968 c 0
 786 982 772 1004 772 1019 c 0
 772 1033 790 1048 810 1056 c 0
 839 1063 862 1112 862 1160 c 0
 862 1255 798 1389 754 1430 c 0
 720 1466 688 1476 628 1476 c 0
 514 1476 437 1412 376 1347 c 0
 298 1264 203 1041 174 902 c 0
 160 837 149 702 147 602 c 0
 147 502 155 376 167 322 c 0
 187 217 217 186 322 186 c 0
 434 186 524 247 606 305 c 0
 655 341 694 380 694 392 c 0
 694 406 670 466 643 529 c 0
 610 603 598 641 598 707 c 0
 598 730 599 756 602 789 c 0
 607 901 617 941 646 963 c 0
 663.958315233 975.570820663 689.979157617 983.304125036 707.411745674 983.304125036 c 0
 709.393660404 983.304125036 711.264567948 983.204168477 713 983 c 0
 731 979 737 962 737 898 c 0
1779 808 m 0
 1832 808 1848 723 1848 657 c 0
 1848 533 1823 432 1763 364 c 0
 1721 322 1695 284 1695 220 c 0
 1695 201 1697 181 1702 157 c 0
 1714 94 1719 87 1779 87 c 0
 1815 87 1876 109 1918 138 c 0
 1959 167 2028 220 2069 256 c 0
 2108 293 2158 322 2182 322 c 0
 2209 322 2219 314 2216 290 c 0
 2213 270 2142 201 2062 133 c 0
 1948 38 1892 6 1814 -11 c 0
 1772 -20 1741 -26 1716 -26 c 0
 1696 -26 1680 -22 1666 -16 c 0
 1640 -4 1594 55 1563 118 c 1
 1505 227 l 1
 1347 213 l 2
 1315 211 1285 209 1256 209 c 0
 1105 209 984 240 864 276 c 1
 772 307 l 1
 670 230 l 1
 614 189 532 141 488 121 c 0
 446 101 366 86 306 86 c 0
 172 86 116 125 75 215 c 0
 55 263 48 366 48 563 c 0
 48 750 57 880 77 958 c 0
 118 1106 205 1294 283 1398 c 0
 366 1505 478 1573 634 1592 c 0
 635.709985955 1592.22799813 637.822841292 1592.33903418 640.277824204 1592.33903418 c 0
 659.357955993 1592.33903418 699.103966292 1585.63201124 731 1575 c 0
 768 1565 833 1524 874 1483 c 0
 907.797644884 1450.85102072 935.479568651 1428.89490997 944.162220294 1428.89490997 c 0
 946.012513138 1428.89490997 947 1429.89199362 947 1432 c 0
 947 1466 1067 1575 1104 1575 c 0
 1126 1575 1152 1559 1162 1539 c 0
 1169 1527 1172 1502 1172 1466 c 0
 1172 1432 1169 1389 1163 1338 c 0
 1141 1142 1079 827 1014 677 c 0
 988 621 968 545 968 511 c 0
 968 467 985 431 1027 390 c 0
 1083 337 1097 332 1252 332 c 0
 1342 332 1419 339 1427 344 c 0
 1429 348 1430 363 1430 386 c 0
 1430 452 1411 580 1411 648 c 0
 1411 688 1418 715 1440 715 c 0
 1448 715 1460 712 1473 703 c 0
 1515 676 1530 480 1544 424 c 0
 1549 398 1566 382 1578 385 c 0
 1590 388 1614 458 1636 538 c 0
 1658 618 1685 706 1697 732 c 0
 1714 763 1745 808 1779 808 c 0
EndSplineSet
Ligature2: "dlig" Q u
EndChar

StartChar: s_s.liga
Encoding: 993084 993084 132
Width: 1539
VWidth: -373
Flags: HW
LayerCount: 2
Fore
SplineSet
1249 842 m 0
 1275 842 1314 813 1314 783 c 0
 1314 767 1306 747 1288 710 c 0
 1267 668 1249 621 1249 603 c 0
 1251 588 1261 544 1273 510 c 0
 1285 476 1341 388 1395 316 c 0
 1461 229 1491 171 1491 138 c 0
 1491 68 1462 46 1387 46 c 0
 1334 46 1268 67 1268 112 c 0
 1268 141 1287 161 1315 165 c 0
 1336 168 1353 178 1353 182 c 0
 1353 190 1315 240 1267 297 c 0
 1221 354 1174 426 1162 458 c 0
 1152 488 1138 513 1129 513 c 0
 1121 513 1096 480 1072 441 c 0
 1027 360 795 98 720 48 c 0
 696 31 667 19 643 19 c 0
 615 19 594 35 594 74 c 0
 594 101 609 121 642 136 c 0
 681 155 696 181 696 211 c 0
 696 249 671 294 636 340 c 0
 600 388 563 426 559 426 c 0
 555 426 511 382 463 328 c 0
 417 272 325 172 259 104 c 0
 178 17 127 -22 100 -22 c 0
 81 -22 48 -13 48 3 c 0
 48 19 82 61 141 114 c 0
 198 168 294 269 351 338 c 0
 409 408 471 492 486 526 c 0
 508 586 564 732 616 756 c 0
 623 760 631 762 639 762 c 0
 673 762 706 725 706 691 c 0
 706 687 706 682 705 678 c 0
 689 630 657 618 657 569 c 0
 657 557 659 542 664 524 c 0
 674 488 715 424 753 382 c 2
 823 304 l 1
 864 342 l 2
 886 363 948 450 1002 537 c 0
 1058 624 1128 726 1161 768 c 0
 1194 807 1231 842 1249 842 c 0
EndSplineSet
Ligature2: "dlig" s s
EndChar

StartChar: e_i.liga
Encoding: 993085 993085 133
Width: 968
VWidth: -286
Flags: HW
LayerCount: 2
Fore
SplineSet
508 567 m 0
 508 585 488 599 464 599 c 0
 407 599 264 476 238 443 c 0
 221 423 206 400 206 394 c 0
 206 387 215 381 226 381 c 0
 237 381 281 395 325 412 c 0
 369 429 430 465 460 493 c 0
 491 522 508 551 508 567 c 0
920 150 m 0
 920 105 885 65 840 65 c 0
 816 65 807 77 785 126 c 2
 757 190 l 1
 696 126 l 1
 614 37 499 -18 342 -18 c 0
 213 -18 129 23 77 95 c 0
 55 125 48 155 48 220 c 0
 49 287 58 321 88 375 c 0
 110 413 164 477 216 520 c 0
 265 562 331 612 362 634 c 0
 393 654 437 671 462 671 c 0
 487 671 524 659 544 642 c 0
 572 620 580 603 580 561 c 0
 580 515 570 500 504 439 c 0
 425 366 320 321 200 310 c 0
 148 306 143 302 132 256 c 0
 130 246 129 236 129 226 c 0
 129 163 171 99 212 78 c 0
 240 65 316 53 371 53 c 0
 491 53 583 108 656 175 c 0
 698 212 737 243 744 243 c 0
 751 243 758 273 764 310 c 0
 768 346 781 389 791 408 c 0
 801 427 817 443 828 443 c 0
 845 443 848 419 848 325 c 0
 848 217 852 207 880 195 c 0
 907 185 920 171 920 150 c 0
828 808 m 0
 828 844 845 863 871 863 c 0
 872 863 872 863 873 863 c 0
 886 863 920 827 920 799 c 0
 920 782 908 768 870 768 c 0
 833 768 828 772 828 808 c 0
EndSplineSet
Ligature2: "dlig" e i
EndChar

StartChar: t_t.liga
Encoding: 993086 993086 134
Width: 1462
VWidth: -6
Flags: HW
LayerCount: 2
Fore
SplineSet
354 497 m 0
 350 539 347 556 325 556 c 0
 318 556 308 554 296 550 c 0
 283.740473581 545.096189432 277.492786683 541.63522035 277.492786683 533.956755695 c 0
 277.492786683 525.977061151 284.240288533 513.442471389 298 490 c 0
 315 465 335 442 343 442 c 0
 353 442 357 465 354 497 c 0
489 21 m 0
 489 -2 470 -20 450 -20 c 0
 433 -20 414 -10 404 0 c 0
 395 10 378 65 365 118 c 0
 335 257 297 320 235 434 c 0
 204 489 158 542 118 571 c 0
 76 598 48 628 48 657 c 0
 48 682 64 692 85 692 c 0
 102 692 122 686 141 676 c 0
 182 654 220 637 273 637 c 0
 287 637 302 638 319 641 c 2
 369 650 l 1
 376 959 l 2
 380 1128 394 1295 404 1327 c 0
 413 1359 431 1399 444 1413 c 0
 456 1426 476 1439 486 1439 c 0
 503 1439 516 1414 516 1387 c 0
 516 1369 514 1345 508 1325 c 0
 482 1217 462 969 454 833 c 0
 451 789 450 759 450 739 c 0
 450 699 457 696 473 696 c 0
 490 696 529 715 567 737 c 0
 674 807 747 913 816 1037 c 0
 877 1150 907 1248 930 1369 c 0
 936 1409 947 1424 967 1424 c 0
 1006 1424 1024 1395 1024 1353 c 0
 1024 1343 1023 1333 1021 1322 c 0
 1008 1232 955 882 947 781 c 0
 944 760 943 740 943 723 c 0
 943 718.058823529 942.972318339 713.588235294 942.972318339 709.545898636 c 0
 942.972318339 679.228373702 944.529411765 673 971 673 c 0
 989 673 1015 675 1043 680 c 0
 1086 689 1170 719 1230 748 c 0
 1291 777 1356 800 1376 800 c 0
 1397 800 1414 790 1414 781 c 0
 1414 771 1391 747 1364 729 c 0
 1298 686 1124 613 1030 593 c 1
 930 567 922 550 922 429 c 0
 922 365 933 315 960 255 c 0
 981 209 998 157 998 143 c 0
 998 118 974 96 948 96 c 0
 938 96 926 99 917 108 c 0
 904 121 886 160 876 194 c 0
 864 240 829 284 748 361 c 0
 688 419 640 474 640 482 c 0
 640 490 654 509 674 526 c 0
 692 544 740 574 782 594 c 0
 852 626 856 632 868 701 c 0
 873 732 876 786 876 835 c 0
 876 848 877 860 876 872 c 2
 870 970 l 1
 843 918 l 2
 796 831 665 691 570 644 c 0
 522 621 471 589 458 577 c 0
 436 559 432 531 432 421 c 0
 432 329 443 247 465 159 c 0
 479 103 489 48 489 21 c 0
EndSplineSet
Ligature2: "dlig" t t
EndChar

StartChar: a.ss01
Encoding: 993070 993070 135
Width: 1263
VWidth: -336
Flags: HW
LayerCount: 2
Fore
SplineSet
452 496 m 0
 452 541 545 630 545 656 c 0
 545 689 491 728 468 728 c 0
 463 728 425 713 385 690 c 0
 335 663 293 614 248 526 c 0
 203 440 182 368 182 310 c 0
 182 252 198 198 229 153 c 0
 266 98 313 75 366 75 c 0
 420 75 481 100 542 139 c 2
 643 206 l 1
 634 359 l 1
 630 444 623 517 621 519 c 0
 620 520 619 520 617 520 c 0
 595 520 502 485 467 485 c 0
 458 485 452 488 452 496 c 0
1184 216 m 0
 1193 216 1215 197 1215 177 c 0
 1215 156 1186 130 1129 94 c 0
 1055 47 1012 31 927 31 c 0
 851 31 807 43 767 74 c 2
 713 117 l 1
 608 51 l 1
 516 -6 454 -27 339 -27 c 0
 229 -27 177 4 124 81 c 0
 86 139 48 204 48 288 c 0
 48 311 51 336 58 362 c 0
 96 490 149 606 232 701 c 0
 273 750 337 798 371 809 c 0
 398 817 417 819 434 819 c 0
 465 819 487 810 531 810 c 0
 554 810 594 785 625 756 c 2
 677 706 l 1
 722 746 l 1
 747 771 775 789 788 789 c 0
 799 789 826 772 846 749 c 0
 867 726 875 684 875 635 c 0
 875 536 843 409 824 353 c 0
 809 309 802 284 802 264 c 0
 802 208 870 150 911 132 c 0
 924 127 936 125 949 125 c 0
 977 125 1010 136 1066 164 c 0
 1122 193 1173 216 1184 216 c 0
EndSplineSet
EndChar

StartChar: a.ss02
Encoding: 993071 993071 136
Width: 1299
VWidth: -538
Flags: HW
LayerCount: 2
Fore
SplineSet
174 231 m 0
 174 157 182 120 248 120 c 0
 281 120 317 135 356 171 c 0
 412 220 424 255 449 383 c 0
 464 473 477 566 477 609 c 0
 477 668 436 731 388 731 c 0
 334 731 268 623 246 578 c 0
 217 515 174 342 174 231 c 0
264 -3 m 0
 119 -3 48 77 48 225 c 0
 48 396 102 574 172 689 c 0
 230 783 283 844 386 853 c 0
 424 853 559 787 559 751 c 0
 559 740 572 731 586 731 c 0
 622 731 669 809 712 809 c 0
 745 809 762 775 762 726 c 0
 762 629 665 401 631 356 c 0
 615 331 601 281 601 245 c 0
 601 138 702 75 820 75 c 0
 844 75 869 77 894 83 c 0
 930 88 1016 120 1088 151 c 0
 1151 178 1192 190 1216 190 c 0
 1237.13436738 190 1252.00180067 171.199197713 1252.00180067 153.378741278 c 0
 1252.00180067 147.589653544 1250.43281631 141.904023299 1247 137 c 0
 1238 123 1166 83 1087 43 c 0
 968 -15 915 -27 809 -27 c 0
 656 -27 583 14 507 77 c 0
 489 94 479 104 466 104 c 0
 450 104 430 88 385 52 c 0
 332 10 305 -3 264 -3 c 0
EndSplineSet
EndChar

StartChar: d.ss01
Encoding: 993072 993072 137
Width: 1369
VWidth: -192
Flags: HW
LayerCount: 2
Fore
SplineSet
551 254 m 0
 551 297 568 368 568 408 c 0
 568 432 563 451 552 472 c 0
 524 524 500 542 428 542 c 1
 334 536 246 438 201 362 c 0
 174 314 150 252 150 222 c 0
 150 153 223 63 291 63 c 0
 377 63 471 99 519 147 c 0
 542.611712392 170.611712392 554.751964659 194.988188793 554.751964659 215.447884214 c 0
 554.751964659 218.383856467 554.501968534 221.239173061 554 224 c 0
 552 230 551 240 551 254 c 0
920 1344 m 0
 912 1344 886 1298 862 1246 c 0
 793 1090 754 922 728 708 c 0
 721 639 717 591 717 559 c 0
 717 521.817869624 725.991355484 496.863982708 738.150466904 496.863982708 c 0
 746.266280574 496.863982708 755.793370946 507.981265716 765 534 c 0
 799 628 891 964 912 1078 c 0
 924 1144 934 1232 934 1272 c 0
 934.232756351 1276.53874884 934.343617784 1280.99623441 934.343617784 1285.32989897 c 0
 934.343617784 1318.23401155 927.952596421 1344 920 1344 c 0
1065 255 m 0
 1119 255 1198 264 1250 264 c 0
 1295 264 1321 258 1321 245 c 0
 1321 236 1309 224 1282 206 c 0
 1248 184 1208 175 1095 175 c 0
 959 175 876 184 814 213 c 1
 734 248 l 1
 654 154 l 1
 567 55 467 -22 308 -22 c 0
 196 -22 132 12 84 74 c 0
 58 107 48 144 48 204 c 0
 48 252 61 312 81 350 c 0
 151 473 240 626 429 626 c 0
 433 626 437 626 441 626 c 0
 483 626 536 616 560 602 c 0
 584 588 607 578 616 576 c 0
 624 576 628 615 628 663 c 0
 628 822 698 1087 744 1216 c 0
 770 1290 819 1380 858 1428 c 0
 896 1474 938 1516 952 1520 c 0
 966 1523 988 1516 1002 1504 c 0
 1017 1490 1025 1453 1025 1379 c 0
 1025 1134 958 860 902 669 c 0
 894 642 866 558 840 483 c 1
 792 350 l 1
 831 318 l 2
 885 276 959 255 1065 255 c 0
EndSplineSet
EndChar

StartChar: e.ss01
Encoding: 993073 993073 138
Width: 1223
VWidth: -435
Flags: HW
LayerCount: 2
Fore
SplineSet
687 742 m 0
 676 742 634 722 587 702 c 0
 540 682 453 614 394 555 c 0
 336 494 290 432 290 418 c 0
 290 410 296 406 308 406 c 0
 354 406 469 459 495 472 c 0
 580 510 702 578 702 681 c 0
 702 715 696 742 687 742 c 0
1150 174 m 0
 1166 174 1175 156 1175 144 c 0
 1175 131 1132 103 1078 74 c 0
 939 7 711 -27 506 -27 c 0
 501 -27 495 -27 490 -27 c 0
 237 -27 94 58 52 261 c 0
 49 275 48 287 48 298 c 0
 48 331 62 352 99 389 c 0
 130 420 200 501 254 564 c 0
 353 681 478 787 617 837 c 0
 643 846 667 851 690 851 c 0
 783 851 846 779 846 679 c 0
 846 656 831 606 813 574 c 0
 797 540 727 475 657 432 c 0
 589 387 466 329 385 304 c 0
 304 279 230 254 221 245 c 0
 210 236 212 212 225 187 c 0
 277 107 400 69 536 69 c 0
 700 69 943 115 1029 146 c 0
 1081 163 1130 174 1150 174 c 0
EndSplineSet
EndChar

StartChar: e.ss02
Encoding: 993074 993074 139
Width: 1199
VWidth: -549
Flags: HW
LayerCount: 2
Fore
SplineSet
565 588 m 0
 565 635 556 691 538 691 c 0
 521 691 469 654 421 602 c 0
 365 544 305 468 281 428 c 0
 262.470129473 396.087445203 253.477928439 377.951524118 253.477928439 367.864817923 c 0
 253.477928439 358.354980122 261.470996024 356 277 356 c 0
 343 356 487 430 523 464 c 0
 549 488 565 532 565 588 c 0
565 836 m 0
 673 836 703 722 703 598 c 0
 703 412 645 368 493 290 c 0
 415 250 325 218 295 218 c 0
 263 218 243 204 243 184 c 0
 243 164 271 136 307 122 c 0
 341 108 473 94 599 94 c 0
 626 94 650 94 671 94 c 0
 824 94 851 103 963 168 c 0
 1030 208 1096 233 1122 233 c 0
 1146 233 1155 204 1149 188 c 0
 1143 170 1063 118 971 72 c 0
 818 -3 721 -30 524 -30 c 0
 355 -30 216 11 121 80 c 0
 68 121 48 172 48 225 c 0
 48 351 163 494 229 574 c 0
 279 636 353 716 389 748 c 0
 447 800 489 836 565 836 c 0
EndSplineSet
EndChar

StartChar: i.ss01
Encoding: 993075 993075 140
Width: 967
VWidth: -253
Flags: HW
LayerCount: 2
Fore
SplineSet
322 114 m 0
 322 130 332 161 320 161 c 0
 313 161 265 126 213 85 c 0
 161 44 105 10 88 10 c 0
 60 10 48 19 48 32 c 0
 48 43 58 58 76 71 c 0
 135 114 293 240 343 296 c 0
 368 324 411 396 440 457 c 0
 471 524 508 581 536 601 c 2
 580 636 l 1
 550 672 l 2
 533 694 524 728 524 758 c 0
 524 801 536 862 571 862 c 0
 582 862 603 848 621 835 c 0
 647 815 652 797 652 751 c 0
 651 715 639 679 621 654 c 0
 606.177234267 633.787137637 599.071709294 619.475694679 599.071709294 606.783660626 c 0
 599.071709294 600.638133984 600.737620788 594.872282582 604 589 c 0
 614 570 613 555 595 530 c 0
 559 477 499 366 469 301 c 0
 446 254 422 185 422 125 c 0
 422 74 449 62 503 62 c 0
 548 62 591 71 626 88 c 0
 648 100 711 141 765 178 c 0
 819 215 871 240 887 240 c 0
 901.347742489 240 919.175864669 224.359550564 919.175864669 211.170627336 c 0
 919.175864669 195.889806804 903.951752898 178.88809443 871 161 c 0
 812 130 660 13 592 -4 c 0
 566 -11 514 -18 478 -18 c 0
 392 -18 367 -3 337 53 c 0
 328 73 322 96 322 114 c 0
EndSplineSet
EndChar

StartChar: m.ss01
Encoding: 993076 993076 141
Width: 1736
VWidth: -266
Flags: HW
LayerCount: 2
Fore
SplineSet
620 589 m 0
 620 609 619 625 609 625 c 0
 585 625 501 561 373 448 c 0
 227 319 131 253 99 253 c 0
 71 253 48 264 48 279 c 0
 48 294 61 323 76 342 c 0
 91 363 599 813 641 813 c 0
 656 813 686 794 705 773 c 0
 741 734 757 668 757 596 c 0
 757 554 752 509 742 467 c 0
 733.477696338 429.037010958 727.356373162 388.673041431 727.356373162 372.415533079 c 0
 727.356373162 367.688974335 727.873774392 365 729 365 c 0
 734 365 781 408 836 466 c 0
 893 527 958 579 983 589 c 0
 993 592 1001 594 1009 594 c 0
 1074 594 1100 499 1108 418 c 1
 1118 306 l 1
 1260 439 l 1
 1338 513 1421 580 1446 593 c 0
 1461 602 1477 606 1492 606 c 0
 1552 606 1603 543 1623 502 c 0
 1663 422 1659 156 1680 53 c 0
 1685.09227722 26.5201584608 1688.22530162 8.68407934697 1688.22530162 -3.32528914868 c 0
 1688.22530162 -26.6911603906 1676.36522775 -28 1644 -28 c 0
 1614 -28 1575 -13 1560 4 c 0
 1530 38 1511 397 1479 429 c 0
 1474 434 1469 437 1462 437 c 0
 1441 437 1407 409 1336 340 c 0
 1271 277 1192 190 1160 144 c 0
 1126 96 1078 51 1051 40 c 0
 1037 33.5 1023 30.25 1009.375 30.25 c 0
 995.75 30.25 982.5 33.5 970 40 c 0
 948 52 938 67 938 115 c 0
 938 158 951 276 951 325 c 0
 951 361 947 382 941 382 c 0
 930 382 886 336 848 279 c 0
 806 222 745 144 711 106 c 0
 677 68 629 36 608 36 c 0
 578 36 552 50 552 78 c 0
 552 118 567 229 588 350 c 0
 609 462 620 545 620 589 c 0
EndSplineSet
EndChar

StartChar: n.ss01
Encoding: 993077 993077 142
Width: 1567
VWidth: -217
Flags: HW
LayerCount: 2
Fore
SplineSet
163 129 m 0
 102 129 48 210 48 282 c 0
 48 397 146 507 214 572 c 0
 290 639 473 786 570 822 c 0
 604 835 644 844 658 844 c 0
 658.57967926 844.072459908 659.18823593 844.108166748 659.824290893 844.108166748 c 0
 676.744288218 844.108166748 713.123128566 818.84064148 743 788 c 0
 777 754 802 702 811 646 c 0
 820 599 834 560 847 560 c 0
 858 560 873 568 878 579 c 0
 909 624 1104 723 1178 723 c 0
 1228 723 1272 708 1317 668 c 1
 1384 615 l 1
 1371 450 l 1
 1366 358 1353 250 1348 209 c 0
 1346 197 1344 185 1344 174 c 0
 1344 108 1385 68 1450 68 c 0
 1481.3874416 68 1519.5479372 55.0696241879 1519.5479372 30.1751854582 c 0
 1519.5479372 23.3442748667 1516.67473276 15.612558396 1510 7 c 1
 1495 -5 1415 -27 1371 -27 c 0
 1335 -27 1313 -11 1265 34 c 1
 1191 101 l 1
 1223 248 l 2
 1241 327 1256 423 1256 457 c 0
 1256 529 1235 601 1168 601 c 0
 1143 601 1099 587 1072 569 c 0
 1043 549 971 486 912 428 c 0
 847 365 775 266 730 180 c 0
 690 103 651 25 638 12 c 0
 625 -2 595 -15 566 -15 c 0
 540 -15 506 -2 506 19 c 0
 506 44 539 131 583 225 c 0
 667 394 681 450 681 612 c 0
 681 678 669 710 633 710 c 0
 612 710 582 699 541 678 c 0
 437 626 233 445 181 342 c 0
 164 304 157 277 157 252 c 0
 157 225 166 200 181 167 c 0
 192 140 186 129 163 129 c 0
EndSplineSet
EndChar

StartChar: o.ss01
Encoding: 993078 993078 143
Width: 862
VWidth: -160
Flags: HW
LayerCount: 2
Fore
SplineSet
557 687 m 0
 537 687 501 660 476 626 c 0
 451 594 421 563 407 563 c 0
 393 563 355 541 324 512 c 0
 293 485 252 453 229 440 c 0
 202 426 188 397 188 356 c 0
 188 277 235 161 287 132 c 0
 312 119 361 111 402 111 c 0
 523 111 592 210 639 305 c 0
 670 365 681 407 681 462 c 0
 681 535 656 614 630 645 c 0
 610 668 577 687 557 687 c 0
467 820 m 0
 573 809 651 794 683 771 c 0
 764 713 810 625 814 485 c 0
 814 314 732 180 638 86 c 0
 579 27 492 -27 391 -27 c 0
 365 -27 338 -23 310 -15 c 0
 270 -2 206 28 166 55 c 0
 84 108 48 234 48 364 c 0
 48 463 69 565 108 638 c 0
 137 694 191 759 229 786 c 0
 272 816 297 826 357 826 c 0
 385 826 419 823 467 820 c 0
EndSplineSet
EndChar

StartChar: r.ss01
Encoding: 993079 993079 144
Width: 1595
VWidth: -305
Flags: HW
LayerCount: 2
Fore
SplineSet
175 274 m 0
 175 261.076923077 175.319526627 249.857988166 175.319526627 240.244879381 c 0
 175.319526627 208.201183432 171.769230769 194 141 194 c 0
 113 194 90 222 69 283 c 0
 56 320 48 341 48 363 c 0
 48 391 60 418 88 473 c 0
 162 619 261 684 417 764 c 0
 487 798 556 828 569 828 c 0
 582 828 614 813 637 796 c 0
 664 779 694 735 709 699 c 0
 725.970665017 655.466554956 737.497030013 641.332330027 761.656062971 641.332330027 c 0
 770.239280094 641.332330027 780.417040036 643.116405008 793 646 c 0
 890 674 1190 720 1323 720 c 0
 1407 720 1470 707 1500 686 c 0
 1527 669 1547 638 1547 619 c 0
 1547 601 1539 593 1499 593 c 0
 1463 593 1377 604 1326 604 c 0
 1158 604 957 553 850 505 c 1
 732 457 718 435 690 294 c 0
 677 231 665 138 665 87 c 0
 665 9 661 -29 610 -29 c 0
 491 -29 480 108 460 217 c 0
 458 235 456 250 456 264 c 0
 456 304 468 334 500 380 c 0
 541 438 570 513 570 589 c 0
 570 629 555 652 516 652 c 0
 508 652 500 652 491 650 c 0
 396 622 259 511 215 418 c 0
 191 373 175 313 175 274 c 0
EndSplineSet
EndChar

StartChar: s.ss01
Encoding: 993080 993080 145
Width: 701
VWidth: -322
Flags: HW
LayerCount: 2
Fore
SplineSet
48 85 m 0
 48 105 77 128 102 128 c 0
 120 128 143 121 179 107 c 0
 223 90 295 77 337 77 c 0
 408 77 482 112 482 175 c 0
 482 194 459 224 432 243 c 0
 330 316 135 438 135 605 c 0
 135 687 244 774 307 808 c 0
 346 827 411 845 453 847 c 0
 497 847 556 828 592 808 c 0
 624 788 653 762 653 750 c 0
 653 732 589 681 561 681 c 0
 546 681 532 690 506 711 c 0
 477 732 459 741 438 741 c 0
 425 741 411 737 393 731 c 0
 333 709 269 672 269 599 c 0
 269 570 283 527 300 503 c 0
 315 479 382 426 443 384 c 0
 506 342 572 281 587 250 c 0
 602 219 616 175 616 155 c 0
 616 80 513 7 448 -15 c 0
 423 -22 394 -25 364 -25 c 0
 274 -25 171 2 120 27 c 0
 85 45 48 62 48 85 c 0
EndSplineSet
EndChar

StartChar: t.ss01
Encoding: 993081 993081 146
Width: 1138
VWidth: -198
Flags: HW
LayerCount: 2
Fore
SplineSet
48 637 m 0
 48 679 107 690 166 690 c 0
 210 690 255 697 260 707 c 0
 265 717 285 789 300 869 c 0
 315 947 350 1107 377 1229 c 0
 404 1351 435 1462 447 1477 c 0
 459 1491 479 1503 494 1503 c 0
 516 1503 581 1452 581 1433 c 0
 581 1428 566 1393 549 1352 c 0
 518 1275 448 962 448 828 c 0
 448 821 448 814 448 808 c 0
 452 738 455 723 485 723 c 0
 583 723 693 785 758 828 c 0
 785 850 823 864 838 864 c 0
 869 864 882 851 882 832 c 0
 882 818 875 801 861 785 c 0
 796 720 654 644 542 612 c 0
 452 585 433 575 423 524 c 0
 404 449 419 335 365 296 c 0
 340.969220567 279.037096871 331.425355013 265.571035023 331.425355013 241.125744358 c 0
 331.425355013 230.984562915 333.067876304 218.95383085 336 204 c 0
 348 134 367 90 443 90 c 0
 470 90 530 104 576 119 c 0
 715 172 832 230 929 342 c 0
 973 395 1028 439 1047 439 c 0
 1079 439 1090 423 1090 401 c 0
 1090 383 1083 361 1072 340 c 0
 1058 311 996 243 936 189 c 0
 824 92 623 -26 441 -26 c 0
 253 -26 214 67 214 242 c 0
 214 282 216 327 219 376 c 2
 231 575 l 1
 164 575 l 2
 123 575 48 598 48 637 c 0
EndSplineSet
EndChar

StartChar: copyright
Encoding: 169 169 147
Width: 842
VWidth: 0
Flags: HW
LayerCount: 2
Fore
SplineSet
346 383 m 0
 291 383 246 417 246 464 c 0
 246 482 257 514 271 533 c 0
 303 581 360 652 408 684 c 0
 429 699 462 709 489 709 c 0
 491 709 493 709 495 709 c 0
 537 709 585 689 585 655 c 0
 585 630 538 597 512 597 c 0
 503 597 495 605 495 614 c 0
 495 623 486 631 476 631 c 0
 466 631 429 603 396 569 c 0
 355 527 337 497 337 478 c 0
 337 455 342 450 365 450 c 0
 425 450 513 475 546 508 c 0
 565 526 591 540 605 540 c 0
 627 540 635 531 635 518 c 0
 635 507 629 494 621 479 c 0
 584 413 455 383 346 383 c 0
122 405 m 0
 122 279 174 214 299 214 c 0
 389 214 497 253 561 284 c 0
 651 325 675 357 710 447 c 0
 727 492 735 539 735 597 c 0
 735 601 735 606 735 610 c 0
 735 729 702 810 604 829 c 0
 568 835 551 841 532 841 c 0
 518 841 502 838 476 830 c 0
 394 801 274 713 218 648 c 0
 161 580 122 515 122 405 c 0
527 924 m 0
 551 930 583 935 612 935 c 0
 634 935 654 932 668 923 c 0
 704 895 745 803 770 755 c 0
 789 716 794 693 794 612 c 0
 794 604 794 595 794 586 c 0
 794 490 788 455 768 405 c 0
 715 272 582 202 433 161 c 0
 397 152 332 144 291 144 c 0
 186 144 126 181 82 246 c 0
 50 294 48 304 48 405 c 0
 48 500 52 519 80 572 c 0
 129 669 162 700 252 774 c 0
 329 833 434 902 527 924 c 0
EndSplineSet
EndChar

StartChar: registered
Encoding: 174 174 148
Width: 1027
VWidth: 0
Flags: HW
LayerCount: 2
Fore
SplineSet
575 848 m 0
 575 902 542 985 496 985 c 0
 483 985 468 979 451 967 c 0
 402 932 392 905 392 818 c 2
 392 744 l 1
 449 744 l 2
 481 744 521 752 538 761 c 0
 569 776 575 796 575 848 c 0
483 1059 m 0
 541 1059 559 1047 598 1005 c 0
 631 966 659 915 659 854 c 0
 659 796 636 742 605 716 c 0
 587 700 562 688 551 688 c 0
 531 688 523 683 523 675 c 0
 523 665 537 651 555 637 c 0
 584 614 613 605 664 600 c 0
 718 595 730 592 730 577 c 0
 730 553 715 542 678 531 c 0
 659 525 646 521 633 521 c 0
 618 521 603 526 578 536 c 0
 550 547 499 580 466 611 c 0
 433 640 403 665 400 665 c 0
 395 665 392 631 390 589 c 2
 386 512 l 1
 353 512 l 2
 324 512 315 520 290 569 c 0
 270 611 264 638 264 692 c 0
 264 696 264 701 264 705 c 0
 264 749 274 816 284 856 c 0
 294 894 302 946 302 970 c 0
 302 1004 306 1015 325 1021 c 0
 339 1026 354 1024 360 1018 c 0
 369 1009 386 1015 414 1034 c 0
 440 1053 456 1059 483 1059 c 0
522 1228 m 0
 510 1228 471 1219 437 1205 c 0
 389 1187 354 1161 290 1095 c 0
 233 1038 193 984 169 935 c 0
 135 865 111 785 111 692 c 0
 111 633 123 574 144 523 c 0
 169 462 177 452 234 424 c 0
 277 401 293 395 338 395 c 0
 495 395 631 436 726 492 c 0
 782 527 861 599 892 658 c 0
 905 683 910 712 910 743 c 0
 910 836 869 946 822 996 c 0
 780 1046 786 1071 742 1118 c 0
 723 1136 697 1151 686 1151 c 0
 675 1151 658 1161 649 1175 c 0
 634 1196 566 1228 527 1228 c 0
 525 1228 524 1228 522 1228 c 0
331 1216 m 0
 380 1251 447 1285 523 1285 c 0
 637 1285 750 1220 818 1173 c 0
 855 1149 889 1112 889 1064 c 0
 889 1058 888 1052 888 1045 c 0
 888 1028 903 987 921 948 c 0
 950 888 979 799 979 723 c 0
 979 701 974 685 964 658 c 0
 950 621 918 578 868 528 c 0
 778 438 650 370 506 341 c 0
 459 332 410 327 362 327 c 0
 301 327 244 336 203 358 c 0
 147 386 91 450 65 505 c 0
 52 533 48 573 48 659 c 0
 48 668 48 678 48 688 c 0
 48 809 51 838 74 897 c 0
 127 1030 220 1142 331 1216 c 0
EndSplineSet
EndChar

StartChar: logicalnot
Encoding: 172 172 149
Width: 941
VWidth: 0
Flags: HW
LayerCount: 2
Fore
SplineSet
174 638 m 0
 192 638 215 638 233 638 c 0
 334 638 369 643 484 674 c 0
 613 709 711 725 827 732 c 0
 856 732 893 713 893 680 c 0
 893 659 885 620 866 534 c 0
 846 439 832 336 831 275 c 2
 829 173 l 1
 793 169 l 2
 790 169 787 169 784 169 c 0
 752 169 738 188 738 219 c 0
 738 231 740 245 744 260 c 0
 754 305 797 563 797 635 c 0
 797 657 792 663 769 663 c 0
 760 663 747 662 729 660 c 0
 697 655 592 632 496 607 c 0
 353 571 303 563 216 563 c 0
 124 563 79 566 51 600 c 0
 48 607 47 618 49 625 c 0
 54 633 90 638 174 638 c 0
EndSplineSet
EndChar

StartChar: paragraph
Encoding: 182 182 150
Width: 654
VWidth: 0
Flags: HW
LayerCount: 2
Fore
SplineSet
127 883 m 0
 127 823 160 821 235 821 c 0
 246 821 255 821 264 821 c 0
 323 821 331 830 339 889 c 0
 340 899 341 913 341 928 c 0
 341 948 340 970 338 986 c 0
 330 1037 329 1038 288 1038 c 0
 220 1035 192 1010 158 962 c 0
 141 937 127 902 127 883 c 0
426 395 m 0
 426 349 410 268 410 226 c 0
 410 186 406 176 383 165 c 0
 367 158 346 155 335 160 c 0
 324 164 320 173 320 219 c 0
 320 326 334 546 338 632 c 2
 344 742 l 1
 226 746 l 2
 119 749 103 753 77 777 c 0
 51 801 48 814 48 875 c 0
 48 944 50 949 101 1007 c 0
 130 1040 168 1075 185 1086 c 0
 201 1096 244 1107 280 1112 c 0
 339 1120 345 1123 360 1157 c 0
 371 1184 381 1202 404 1202 c 0
 451 1202 450 1119 463 1081 c 0
 465 1070 471 1061 476 1061 c 0
 481 1062 501 1085 521 1112 c 0
 541 1140 568 1163 579 1163 c 0
 596 1163 606 1149 606 1129 c 0
 606 1108 602 1067 595 1026 c 0
 586 968 582 875 582 699 c 0
 582 622 583 503 583 433 c 0
 583 279 579 231 570 219 c 0
 562 209 543 201 529 201 c 0
 514 201 500 208 498 215 c 0
 497 221 496 323 496 465 c 0
 496 548 496 654 496 741 c 0
 496 912 494 1038 490 1038 c 0
 485 1038 473 1021 464 1000 c 0
 450 973 435 917 435 877 c 0
 435 860 440 854 454 847 c 0
 468 839 478 822 478 807 c 0
 478 792 468 774 454 766 c 0
 442 757 427 730 421 705 c 0
 415 680 410 608 410 545 c 0
 410 483 414 428 421 421 c 0
 425 417 426 408 426 395 c 0
EndSplineSet
EndChar

StartChar: divide
Encoding: 247 247 151
Width: 982
VWidth: 0
Flags: HW
LayerCount: 2
Fore
SplineSet
525 479 m 0
 525 452 505 439 477 439 c 0
 450 439 436 460 425 482 c 0
 416 497 412 519 417 529 c 0
 422 543 435 545 471 543 c 0
 525 540 525 531 525 479 c 0
889 804 m 0
 924 804 934 794 934 763 c 0
 934 722 897 718 841 713 c 0
 802 710 701 696 617 683 c 0
 507 665 411 658 279 658 c 0
 166 658 86 663 72 671 c 0
 58 678 48 692 48 705 c 0
 48 721 68 737 89 737 c 0
 94 737 100 736 105 733 c 0
 112 728 197 727 296 727 c 0
 430 728 516 735 640 755 c 0
 731 771 817 788 833 795 c 0
 847 801 871 804 889 804 c 0
412 946 m 0
 412 989 433 1012 468 1012 c 0
 491 1012 537 967 537 943 c 0
 537 917 483 876 459 876 c 0
 423 876 412 904 412 946 c 0
EndSplineSet
EndChar

StartChar: multiply
Encoding: 215 215 152
Width: 650
VWidth: 0
Flags: HW
LayerCount: 2
Fore
SplineSet
569 987 m 0
 594 987 601 970 601 938 c 0
 601 912 588 895 527 838 c 0
 485 797 436 753 419 739 c 0
 401 725 387 708 387 700 c 0
 387 693 424 657 468 621 c 0
 532 569 545 555 545 530 c 0
 545 502 537 480 517 480 c 0
 502 480 470 504 421 556 c 0
 379 600 337 637 328 637 c 0
 302 637 139 488 131 467 c 0
 126 449 114 438 100 438 c 0
 76 438 57 469 57 493 c 0
 57 507 71 531 89 547 c 0
 106 563 149 597 185 624 c 0
 219 649 254 679 254 688 c 0
 254 698 230 726 197 752 c 0
 163 779 114 826 90 857 c 0
 66 887 48 919 48 929 c 0
 48 939 66 962 80 962 c 0
 96 962 122 938 197 860 c 0
 274 780 297 757 315 757 c 0
 321 757 325 760 331 763 c 0
 380 786 484 896 515 942 c 0
 538 975 553 987 569 987 c 0
EndSplineSet
EndChar

StartChar: uni203D
Encoding: 8253 8253 153
Width: 654
VWidth: 0
Flags: HW
LayerCount: 2
Fore
SplineSet
354 553 m 0
 375 553 401 539 416 525 c 0
 435 506 446 456 446 407 c 0
 446 378 437 369 405 343 c 0
 373 317 342 298 305 298 c 0
 255 298 224 330 224 381 c 0
 224 434 251 475 285 510 c 0
 315 542 332 553 354 553 c 0
326 785 m 0
 347 785 355 945 355 970 c 0
 355 987 352 1001 346 1001 c 0
 341 1001 321 982 302 959 c 0
 275 927 265 904 264 873 c 0
 264 845 272 822 287 807 c 0
 300 794 317 785 326 785 c 0
131 1118 m 0
 108 1118 48 1167 48 1185 c 0
 48 1195 72 1225 103 1252 c 0
 161 1302 246 1363 345 1363 c 0
 358 1363 374 1363 392 1362 c 0
 494 1358 518 1359 533 1291 c 0
 535 1281 535 1272 535 1263 c 0
 535 1208 508 1169 475 1137 c 0
 452 1115 432 1084 430 1065 c 0
 427 1046 421 971 418 902 c 2
 412 773 l 1
 445 773 l 2
 462 773 500 781 526 790 c 0
 552 799 582 807 590 807 c 0
 599 807 606 798 606 785 c 0
 606 743 526 727 478 719 c 0
 401 708 419 695 405 640 c 0
 403 625 391 614 380 614 c 0
 349 614 330 631 330 666 c 0
 330 670 330 673 330 677 c 0
 330 704 323 710 280 728 c 0
 228 751 185 797 185 862 c 0
 185 929 232 991 277 1026 c 0
 303 1046 330 1077 338 1093 c 0
 346 1107 349 1127 349 1159 c 0
 349 1173 349 1190 347 1209 c 0
 341 1277 340 1293 327 1293 c 0
 324 1293 321 1292 317 1291 c 0
 285 1280 153 1216 133 1194 c 0
 125.469879518 1185.56626506 122.838873567 1178.22122224 122.838873567 1171.36368613 c 0
 122.838873567 1155.45420235 137 1142.1686747 137 1124 c 0
 137 1120 135 1118 131 1118 c 0
EndSplineSet
EndChar

StartChar: arrowright
Encoding: 8594 8594 154
Width: 1067
VWidth: 0
Flags: HW
LayerCount: 2
Fore
SplineSet
702 906 m 0
 718 906 742 891 760 867 c 0
 785 835 803 826 845 819 c 0
 904 810 993 780 1013 738 c 0
 1021 720 1022 703 1014 692 c 0
 1008 683 978 665 946 655 c 0
 915 644 854 615 812 592 c 0
 771 569 729 553 712 553 c 0
 687 553 682 566 675 613 c 0
 667 667 667 682 633 682 c 0
 621 682 604 680 580 677 c 0
 542 671 415 667 297 667 c 0
 273 667 251 667 232 667 c 0
 108 667 79 670 66 684 c 0
 56 693 48 705 48 711 c 0
 48 729 76 752 100 752 c 0
 103 752 107 752 110 751 c 0
 146 742 240 738 334 738 c 0
 428 738 524 742 563 748 c 2
 660 763 l 1
 664 820 l 1
 665 852 670 884 672 892 c 0
 674 899 688 906 702 906 c 0
EndSplineSet
EndChar

StartChar: arrowleft
Encoding: 8592 8592 155
Width: 974
VWidth: 0
Flags: HW
LayerCount: 2
Fore
SplineSet
267 766 m 0
 304 766 379 736 379 706 c 0
 379 698 367 682 353 673 c 0
 341 664 336 657 336 652 c 0
 336 640 361 636 388 636 c 0
 398 636 409 637 419 638 c 0
 496 646 777 687 841 708 c 0
 867 716 881 720 890 720 c 0
 911.842419007 720 925.402003499 685.212095036 925.402003499 660.865570619 c 0
 925.402003499 658.460635603 925.269697624 656.157580993 925 654 c 0
 922 627 918 626 813 619 c 0
 691 612 530 578 419 571 c 0
 350 566 350 566 350 529 c 0
 348 487 331 471 292 471 c 0
 279 471 256 484 241 500 c 0
 226 516 206 528 197 528 c 0
 169 528 65 570 54 589 c 0
 50 595 48 602 48 609 c 0
 48 627 60 643 72 647 c 0
 80 649 116 660 153 670 c 0
 210 687 220 696 235 730 c 0
 247 758 252 766 267 766 c 0
EndSplineSet
EndChar

StartChar: longs
Encoding: 383 383 156
Width: 596
VWidth: 0
Flags: HW
LayerCount: 2
Fore
SplineSet
523 763 m 0
 536 763 544 747 544 735 c 0
 544 704 485 687 463 676 c 0
 448 670 415 660 389 652 c 0
 351 641 339 632 330 604 c 0
 324 585 317 550 312 527 c 0
 306 491 301 484 278 484 c 0
 262 484 248 476 245 465 c 0
 236 423 232 373 232 319 c 0
 232 227 253 60 278 9 c 0
 287 -9 295 -35 295 -46 c 0
 295 -65 279 -91 257 -91 c 0
 231 -91 214 -59 201 -31 c 0
 173 25 152 199 152 309 c 0
 152 368 163 458 171 490 c 0
 175 507 177 520 177 530 c 0
 177 559 159 563 111 571 c 0
 62 579 50 585 48 605 c 0
 46 623 52 632 71 635 c 0
 86 638 120 645 148 650 c 2
 199 659 l 1
 218 733 l 2
 235 801 293 982 321 1033 c 0
 330 1052 486 1276 512 1276 c 0
 525 1276 548 1258 548 1237 c 0
 548 1215 530 1175 477 1069 c 0
 423 959 392 880 380 820 c 0
 371 777 366 739 366 728 c 0
 366 725 366 724 369 724 c 0
 392 724 499 763 523 763 c 0
EndSplineSet
EndChar

StartChar: pfote
Encoding: 993087 993087 157
Width: 1041
VWidth: 0
Flags: HW
LayerCount: 2
Fore
SplineSet
881 1036 m 0
 899.065713228 1022.23564706 920.83176653 1000.33054597 920.83176653 969.648036875 c 0
 920.83176653 964.664492666 920.257551474 959.449389719 919 954 c 0
 906.373730903 902.523672143 848.467649837 869.913932607 780.097739882 869.913932607 c 0
 778.074026623 869.913932607 776.041145702 869.942502938 774 870 c 0
 713 872 662 898 636 939 c 0
 628.134293028 951.36039667 624.76674005 963.878623305 624.76674005 975.956126425 c 0
 624.76674005 1006.87159121 646.832133715 1034.89928023 672 1050 c 0
 697.644085216 1065.55460907 729.827247815 1072.62609071 762.23423042 1072.62609071 c 0
 806.914261147 1072.62609071 852.01974198 1059.18420642 881 1036 c 0
776 1328 m 0
 776.909299704 1328.015155 777.81997745 1328.02273075 778.731726938 1328.02273075 c 0
 831.767819637 1328.02273075 888.430363767 1302.38863325 888.430363767 1251.80554047 c 0
 888.430363767 1245.87913201 887.652562812 1239.61025125 886 1233 c 0
 872 1173 807 1125 728 1117 c 0
 722.442418563 1116.39213953 716.816970816 1116.0934478 711.183244783 1116.0934478 c 0
 655.61598684 1116.0934478 599.243374691 1145.15171281 599.243374691 1193.214974 c 0
 599.243374691 1196.39445206 599.490065718 1199.65709748 600 1203 c 0
 612 1278 698 1326 776 1328 c 0
645 858 m 0
 674.749180643 840.420938711 707.241172492 803.185063783 707.241172492 765.764240062 c 0
 707.241172492 747.838455637 699.78517097 729.870230647 681 714 c 0
 658.918379194 694.954602055 629.294227175 686.65159705 598.289101399 686.65159705 c 0
 521.442453152 686.65159705 436.112437215 737.657232765 436.112437215 802.527369379 c 0
 436.112437215 806.306962559 436.402106411 810.13362146 437 814 c 0
 444.072037736 863.504264151 492.474856103 883.139224654 544.341385456 883.139224654 c 0
 580.483203271 883.139224654 618.306871069 873.605213836 645 858 c 0
498 1457 m 0
 511.8 1460.6 525.6 1462.4 538.76 1462.4 c 0
 586.709037793 1462.4 626.161811785 1438.50425806 626.161811785 1390.71277418 c 0
 626.161811785 1386.03722582 625.784203408 1381.13296776 625 1376 c 0
 615 1310 540 1256 469 1251 c 0
 465.722893703 1250.78152625 462.478602317 1250.67342992 459.275272659 1250.67342992 c 0
 409.851574688 1250.67342992 370.17879368 1276.40570135 370.17879368 1319.49212227 c 0
 370.17879368 1324.74214201 370.767818615 1330.2498202 372 1336 c 0
 386 1398 438 1442 498 1457 c 0
489 966 m 0
 459 908 352 803 263 771 c 0
 250.725201402 766.55567637 239.167029109 764.485177375 228.515061646 764.485177375 c 0
 188.835114665 764.485177375 161.730193248 793.216626305 157 835 c 0
 156.533133752 839.435229354 156.229740574 843.434530521 156.229740574 847.583023953 c 0
 156.229740574 861.206187612 159.501496858 876.438223071 171 914 c 0
 182.082482158 950.304682933 187.177237988 976.53246058 187.177237988 999.157369061 c 0
 187.177237988 1035.73601594 173.860281384 1062.89728267 151 1108 c 0
 131 1147 126 1162 122 1185 c 0
 120.946752106 1190.68753863 120.448169775 1196.18649096 120.448169775 1201.4781626 c 0
 120.448169775 1246.42795514 156.423641155 1276.42129916 194 1280 c 0
 195.201010127 1280.08578644 196.57128445 1280.127417 198.090620434 1280.127417 c 0
 214.281962568 1280.127417 247.402020254 1275.39949494 273 1269 c 0
 315 1259 359 1240 402 1215 c 0
 457.94017457 1182.18176425 508.317143575 1115.42797455 508.317143575 1042.12481966 c 0
 508.317143575 1017.14911399 502.468943304 991.413100573 489 966 c 0
EndSplineSet
Comment: "Gerne den Vorschlag von Christine Fraunhofer hier umgesetzt!"
EndChar

StartChar: .notdef
Encoding: 9633 9633 159
Width: 1377
VWidth: 0
Flags: HW
LayerCount: 2
Fore
SplineSet
855 651 m 2
 855 678 877 692 908 692 c 2
 909 692 l 2
 913 692 917 692 922 691 c 1
 933 611 l 1
 929 611 l 2
 903 611 855 620 855 646 c 2
 855 651 l 2
819 709 m 2
 819 740 842 769 874 769 c 2
 875 769 l 2
 887 769 899 765 912 758 c 1
 920 707 l 1
 908 707 897 709 886 709 c 0
 864 709 844 702 827 679 c 1
 822 689 819 694 819 707 c 2
 819 709 l 2
703 679 m 1
 687 701 658 707 624 707 c 0
 617 707 611 708 605 707 c 1
 648 689 665 675 665 641 c 0
 665 626 642 614 625 614 c 0
 593 614 582 654 582 683 c 0
 582 712 594 731 622 731 c 0
 636 731 652 724 670 709 c 1
 665 728 663 756 652 769 c 1
 657 770 661 770 665 770 c 2
 667 770 l 2
 701 770 712 746 712 709 c 0
 712 695 708 690 703 679 c 1
674 1085 m 1
 758 964 l 1
 725 904 l 1
 656 999 l 1
 674 1085 l 1
774 1261 m 2
 774 1303 733 1365 733 1414 c 2
 733 1422 l 1
 738 1467 l 1
 772 1467 l 1
 788 1389 804 1311 820 1233 c 0
 828 1196 835 1160 843 1123 c 1
 832 1102 821 1081 810 1060 c 2
 783 1010 l 1
 686 1151 l 1
 697 1212 l 1
 709 1210 719 1208 728 1208 c 0
 763 1208 774 1229 774 1258 c 2
 774 1261 l 2
855 1467 m 1
 1050 611 l 1
 990 611 l 1
 819 1467 l 1
 855 1467 l 1
745 709 m 0
 745 756 717 797 669 797 c 2
 668 797 l 2
 658 797 648 795 638 792 c 1
 625 807 615 823 615 844 c 0
 615 852 616 860 620 870 c 1
 639 938 l 1
 707 836 l 1
 715 827 721 821 728 821 c 0
 735 821 743 828 754 847 c 2
 858 1042 l 1
 909 777 l 1
 894 786 877 791 861 791 c 0
 814 791 787 751 787 704 c 0
 787 653 822 616 855 597 c 0
 878 584 907 576 947 576 c 2
 1190 576 l 1
 1195 584 1238 602 1238 611 c 0
 1109 606 l 1
 1108 607 l 1
 904 1469 l 1
 943 1469 1019 1473 1022 1493 c 1
 931 1493 l 2
 762 1493 634 1504 484 1504 c 0
 377 1504 292 1422 268 1339 c 0
 259 1302 255 1267 255 1228 c 0
 255 1108 328 1019 328 911 c 0
 328 903 327 895 327 888 c 0
 321 838 286 746 264 746 c 0
 263 746 261 746 260 747 c 0
 260 748 264 764 264 779 c 0
 264 809 237 824 213 824 c 0
 180 824 158 793 158 763 c 2
 158 759 l 1
 162 728 191 704 221 704 c 0
 309 704 390 795 424 855 c 0
 431 873 434 886 434 900 c 0
 434 1028 294 1092 294 1212 c 0
 294 1217 297 1219 299 1219 c 0
 307 1219 318 1170 325 1154 c 0
 350 1094 404 998 458 957 c 0
 490 931 527 942 561 921 c 1
 561 936 l 2
 561 1025 485 1084 429 1116 c 0
 396 1135 370 1147 356 1185 c 0
 339 1234 336 1240 330 1263 c 0
 329 1265 329 1266 329 1267 c 0
 329 1269 330 1270 332 1270 c 0
 359 1236 385 1225 408 1225 c 0
 452 1225 504 1270 504 1304 c 0
 504 1307 503 1309 500 1310 c 0
 482 1289 459 1279 438 1279 c 0
 395 1279 368 1321 368 1361 c 0
 368 1384 376 1409 394 1434 c 0
 415 1462 437 1474 470 1474 c 1
 459 1447 442 1414 442 1386 c 0
 442 1346 479 1326 516 1326 c 0
 576 1326 614 1385 614 1431 c 2
 614 1440 l 2
 614 1441 613 1440 613 1440 c 2
 607 1440 587 1407 587 1407 c 1
 578 1390 553 1372 532 1372 c 0
 503 1372 492 1405 492 1431 c 0
 492 1449 495 1472 511 1472 c 0
 571 1472 648 1468 714 1468 c 1
 703 1426 l 2
 694 1394 644 1358 621 1332 c 0
 606 1315 595 1297 595 1278 c 2
 595 1272 l 2
 595 1243 609 1220 645 1220 c 2
 651 1220 l 1
 617 1046 l 1
 563 1119 l 2
 559 1123 558 1126 558 1130 c 0
 558 1141 570 1154 570 1171 c 0
 570 1200 536 1225 512 1225 c 2
 509 1225 l 2
 475 1225 438 1201 438 1166 c 0
 438 1138 455 1103 482 1103 c 0
 527 1103 528 1085 548 1061 c 0
 566 1039 604 990 604 990 c 1
 572 883 l 1
 557 840 530 817 497 798 c 0
 474 785 451 772 434 738 c 1
 469 742 490 749 507 749 c 0
 527 749 537 732 537 712 c 0
 537 687 519 666 501 652 c 0
 459 618 417 608 344 577 c 1
 346 577 547 579 619 579 c 0
 694 579 745 636 745 709 c 0
90 1609 m 1
 1287 1609 l 1
 1287 -381 l 1
 90 -381 l 1
 90 1609 l 1
EndSplineSet
EndChar
